M48
;Layer_Color=9474304
;FILE_FORMAT=4:4
METRIC,LZ
;TYPE=PLATED
T02F00S00C0.6350
T03F00S00C0.7112
T04F00S00C0.7500
T05F00S00C0.7620
T06F00S00C0.9000
T07F00S00C0.9200
T08F00S00C1.0000
T09F00S00C1.0500
T10F00S00C1.0700
T11F00S00C1.2700
T12F00S00C1.5240
T13F00S00C2.3000
%
T02
X0022246Y0025574
T03
X0009271Y-0022098
X0009398Y-0016891
X0027051Y-0031115
X0018796Y-0005588
X0012954Y-000218
Y0007366
X0013462Y0012192
X0007874Y0013081
X0023876Y0012573
X00254Y001143
X0029591Y0009017
X003429Y000635
X-0014986Y0015748
X-004699Y0008636
X-0008001Y0024892
X000889Y0033274
X0033274Y0033782
X0032385Y0030226
T04
X0038862Y002794
X0046462
T05
X0039116Y-001651
Y-001397
Y-001143
Y-000889
Y-000635
Y-000381
Y-000127
Y000127
T06
X-0036242Y0030099
X-0033742
X-0031242
T07
X-0036809Y-0027757
Y-0025257
Y-0023257
Y-0020757
T08
X-0031877Y-0031623
X0008763
Y-0013843
Y-0009779
Y0008001
X-0016002Y0018564
Y0021104
X-0018542
Y0018564
X-0021082
Y0021104
X-0023622
Y0018564
X-0031877Y0008001
Y-0009779
Y-0013843
T09
X0026309Y-0014876
X0028809
X-0043454Y0030116
X-0045954
X-0004208Y0028555
Y0026055
T10
X0039116Y000381
Y000635
Y000889
Y001143
Y001397
Y001651
T11
X-0022479Y0008001
X-0018161
X-002032Y0012192
T12
X-0025908Y-0030226
X-0014732
T13
X-0039519Y-0030827
Y-0017687
M30
