G04*
G04 #@! TF.GenerationSoftware,Altium Limited,Altium Designer,24.1.2 (44)*
G04*
G04 Layer_Color=32768*
%FSLAX44Y44*%
%MOMM*%
G71*
G04*
G04 #@! TF.SameCoordinates,98FF00E1-DB16-4AB4-99D8-1D2B7C447DA4*
G04*
G04*
G04 #@! TF.FilePolarity,Positive*
G04*
G01*
G75*
%ADD10C,0.2000*%
%ADD80C,0.1500*%
%ADD83C,0.1000*%
D10*
X-104040Y299880D02*
Y319880D01*
Y299880D02*
X-91540D01*
Y319880D01*
X-104040D02*
X-91540D01*
X-386920Y266990D02*
Y324490D01*
X-287920D01*
Y266990D02*
Y324490D01*
X-386920Y266990D02*
X-287920D01*
X-497780Y41930D02*
X-426780D01*
X-497780D02*
Y133330D01*
X-426780D01*
Y41930D02*
Y133330D01*
X178050Y-4830D02*
Y58170D01*
Y-4830D02*
X241050D01*
Y58170D01*
X178050D02*
X241050D01*
X123290Y-110330D02*
Y-90330D01*
Y-110330D02*
X135790D01*
Y-90330D01*
X123290D02*
X135790D01*
X163730Y-167480D02*
Y-147480D01*
X151230D02*
X163730D01*
X151230Y-167480D02*
Y-147480D01*
Y-167480D02*
X163730D01*
X-313530Y177900D02*
X-293530D01*
Y190400D01*
X-313530D02*
X-293530D01*
X-313530Y177900D02*
Y190400D01*
X-370680D02*
X-350680D01*
X-370680Y177900D02*
Y190400D01*
Y177900D02*
X-350680D01*
Y190400D01*
X179320Y-97540D02*
Y-34540D01*
Y-97540D02*
X242320D01*
Y-34540D01*
X179320D02*
X242320D01*
D80*
X486620Y279400D02*
G03*
X486620Y279400I-60000J0D01*
G01*
D83*
X-494990Y-305070D02*
G03*
X-497988Y-308170I0J-3000D01*
G01*
Y-176970D02*
G03*
X-494990Y-180070I2998J-100D01*
G01*
X-497990Y-299070D02*
X-494990Y-299070D01*
X-497990Y-315070D02*
X-494990D01*
Y-308070D01*
X-497990Y-315070D02*
X-497988Y-308170D01*
X-494990Y-305070D02*
X-494990Y-299070D01*
X-494990Y-180070D02*
X-494990Y-186070D01*
X-497990D02*
X-494990D01*
X-497990Y-299070D02*
Y-186070D01*
X-497990Y-170070D02*
X-497988Y-176970D01*
X-494990Y-177070D02*
Y-170070D01*
X-497990D02*
X-494990D01*
X-357990Y-308070D02*
Y-177070D01*
X-494990Y-308070D02*
X-357990D01*
X-494990Y-177070D02*
X-357990D01*
X-497990Y-299070D02*
Y-186070D01*
M02*
