G04*
G04 #@! TF.GenerationSoftware,Altium Limited,Altium Designer,24.1.2 (44)*
G04*
G04 Layer_Color=65535*
%FSLAX44Y44*%
%MOMM*%
G71*
G04*
G04 #@! TF.SameCoordinates,98FF00E1-DB16-4AB4-99D8-1D2B7C447DA4*
G04*
G04*
G04 #@! TF.FilePolarity,Positive*
G04*
G01*
G75*
%ADD10C,0.2000*%
%ADD11C,0.1270*%
%ADD12C,0.2540*%
D10*
X392160Y186600D02*
G03*
X392160Y186600I-1000J0D01*
G01*
D11*
X378460Y-180340D02*
X403860D01*
X378460Y180300D02*
X403860D01*
X378460Y-180340D02*
Y180300D01*
X403860Y-180340D02*
Y180300D01*
D12*
X-281940Y-320040D02*
Y135890D01*
X-124460D01*
Y-320040D02*
Y135890D01*
X-281940Y-320040D02*
X-124460D01*
X-149856Y-265433D02*
X-152395Y-267973D01*
Y-273051D01*
X-149856Y-275590D01*
X-139699D01*
X-137160Y-273051D01*
Y-267973D01*
X-139699Y-265433D01*
X-144777D01*
Y-270512D01*
X-137160Y-260355D02*
X-152395D01*
X-137160Y-250198D01*
X-152395D01*
Y-245120D02*
X-137160D01*
Y-237502D01*
X-139699Y-234963D01*
X-149856D01*
X-152395Y-237502D01*
Y-245120D01*
X-269236Y-280670D02*
X-271775Y-278131D01*
Y-273053D01*
X-269236Y-270513D01*
X-266697D01*
X-264158Y-273053D01*
X-261618Y-270513D01*
X-259079D01*
X-256540Y-273053D01*
Y-278131D01*
X-259079Y-280670D01*
X-261618D01*
X-264158Y-278131D01*
X-266697Y-280670D01*
X-269236D01*
X-264158Y-278131D02*
Y-273053D01*
X-256540Y-265435D02*
X-259079D01*
Y-262896D01*
X-256540D01*
Y-265435D01*
Y-245121D02*
X-271775D01*
X-264158Y-252739D01*
Y-242582D01*
X-271775Y-237504D02*
X-261618D01*
X-256540Y-232426D01*
X-261618Y-227347D01*
X-271775D01*
X-280670Y160015D02*
Y144780D01*
X-273053D01*
X-270513Y147319D01*
Y149858D01*
X-273053Y152397D01*
X-280670D01*
X-273053D01*
X-270513Y154937D01*
Y157476D01*
X-273053Y160015D01*
X-280670D01*
X-265435Y144780D02*
Y160015D01*
X-260357Y154937D01*
X-255278Y160015D01*
Y144780D01*
X-240043Y157476D02*
X-242582Y160015D01*
X-247661D01*
X-250200Y157476D01*
Y154937D01*
X-247661Y152397D01*
X-242582D01*
X-240043Y149858D01*
Y147319D01*
X-242582Y144780D01*
X-247661D01*
X-250200Y147319D01*
M02*
