G04*
G04 #@! TF.GenerationSoftware,Altium Limited,Altium Designer,24.1.2 (44)*
G04*
G04 Layer_Color=0*
%FSLAX44Y44*%
%MOMM*%
G71*
G04*
G04 #@! TF.SameCoordinates,98FF00E1-DB16-4AB4-99D8-1D2B7C447DA4*
G04*
G04*
G04 #@! TF.FilePolarity,Positive*
G04*
G01*
G75*
%ADD88C,0.0254*%
G36*
X441442Y126D02*
Y-1647D01*
X442133Y-5124D01*
X443490Y-8400D01*
X445460Y-11349D01*
X447967Y-13856D01*
X450915Y-15826D01*
X454191Y-17182D01*
X457669Y-17874D01*
X459442D01*
X461214D01*
X464692Y-17182D01*
X467968Y-15826D01*
X470916Y-13856D01*
X473423Y-11349D01*
X475393Y-8400D01*
X476750Y-5124D01*
X477442Y-1647D01*
Y126D01*
Y1899D01*
X476750Y5376D01*
X475393Y8652D01*
X473423Y11600D01*
X470916Y14107D01*
X467968Y16077D01*
X464692Y17434D01*
X461214Y18126D01*
X459442D01*
X457669D01*
X454191Y17434D01*
X450915Y16077D01*
X447967Y14107D01*
X445460Y11600D01*
X443490Y8652D01*
X442133Y5376D01*
X441442Y1899D01*
Y126D01*
D01*
D02*
G37*
G36*
X-461023Y-18010D02*
X-462748Y-17961D01*
X-466112Y-17192D01*
X-469262Y-15782D01*
X-472076Y-13784D01*
X-474446Y-11275D01*
X-476281Y-8352D01*
X-477511Y-5128D01*
X-478088Y-1725D01*
X-478039Y-0D01*
X-478039Y1777D01*
X-477346Y5262D01*
X-475986Y8545D01*
X-474012Y11499D01*
X-471499Y14012D01*
X-468545Y15986D01*
X-465262Y17346D01*
X-461777Y18039D01*
X-460000Y18039D01*
X-460000Y18039D01*
X-458223Y18039D01*
X-454738Y17346D01*
X-451455Y15986D01*
X-448500Y14012D01*
X-445987Y11500D01*
X-444013Y8545D01*
X-442653Y5262D01*
X-441960Y1777D01*
X-441960Y-0D01*
X-441960Y-0D01*
X-442012Y-1826D01*
X-442826Y-5387D01*
X-444319Y-8720D01*
X-446434Y-11699D01*
X-449089Y-14208D01*
X-452183Y-16150D01*
X-455596Y-17451D01*
X-459197Y-18062D01*
X-461023Y-18010D01*
D01*
D02*
G37*
D88*
X-497840Y-349250D02*
Y350750D01*
X501650D01*
Y-349250D01*
X-497840D01*
M02*
