G04*
G04 #@! TF.GenerationSoftware,Altium Limited,Altium Designer,24.1.2 (44)*
G04*
G04 Layer_Color=2752767*
%FSLAX44Y44*%
%MOMM*%
G71*
G04*
G04 #@! TF.SameCoordinates,98FF00E1-DB16-4AB4-99D8-1D2B7C447DA4*
G04*
G04*
G04 #@! TF.FilePolarity,Positive*
G04*
G01*
G75*
%ADD11C,0.1270*%
%ADD86C,0.1693*%
%ADD87C,0.1016*%
D11*
X222460Y250660D02*
X225000Y253200D01*
X227540D01*
X225000Y255740D01*
X227540Y258280D01*
X225000D01*
X222460Y260820D01*
X219920Y258280D01*
X217380D01*
X219920Y255740D01*
X217380Y253200D01*
X219920D01*
X222460Y250660D01*
Y252692D02*
X223984Y254216D01*
X225508D01*
X223984Y255740D01*
X225508Y257264D01*
X223984D01*
X222460Y258788D01*
X220936Y257264D01*
X219412D01*
X220936Y255740D01*
X219412Y254216D01*
X220936D01*
X222460Y252692D01*
X-162560Y183100D02*
Y180560D01*
X-157480D01*
Y183100D01*
X-154940D01*
Y188180D01*
X-157480D01*
Y190720D01*
X-162560D01*
Y188180D01*
X-165100D01*
Y183100D01*
X-162560D01*
Y208500D02*
Y205960D01*
X-157480D01*
Y208500D01*
X-154940D01*
Y213580D01*
X-157480D01*
Y216120D01*
X-162560D01*
Y213580D01*
X-165100D01*
Y208500D01*
X-162560D01*
X-187960Y183100D02*
Y180560D01*
X-182880D01*
Y183100D01*
X-180340D01*
Y188180D01*
X-182880D01*
Y190720D01*
X-187960D01*
Y188180D01*
X-190500D01*
Y183100D01*
X-187960D01*
Y208500D02*
Y205960D01*
X-182880D01*
Y208500D01*
X-180340D01*
Y213580D01*
X-182880D01*
Y216120D01*
X-187960D01*
Y213580D01*
X-190500D01*
Y208500D01*
X-187960D01*
X-213360Y183100D02*
Y180560D01*
X-208280D01*
Y183100D01*
X-205740D01*
Y188180D01*
X-208280D01*
Y190720D01*
X-213360D01*
Y188180D01*
X-215900D01*
Y183100D01*
X-213360D01*
Y208500D02*
Y205960D01*
X-208280D01*
Y208500D01*
X-205740D01*
Y213580D01*
X-208280D01*
Y216120D01*
X-213360D01*
Y213580D01*
X-215900D01*
Y208500D01*
X-213360D01*
X-238760Y183100D02*
Y180560D01*
X-233680D01*
Y183100D01*
X-231140D01*
Y188180D01*
X-233680D01*
Y190720D01*
X-238760D01*
Y188180D01*
X-241300D01*
Y183100D01*
X-238760D01*
Y208500D02*
Y205960D01*
X-233680D01*
Y208500D01*
X-231140D01*
Y213580D01*
X-233680D01*
Y216120D01*
X-238760D01*
Y213580D01*
X-241300D01*
Y208500D01*
X-238760D01*
X288090Y-153840D02*
X283010Y-143680D01*
X293170D01*
X288090Y-153840D01*
X263090D02*
X258010Y-143680D01*
X268170D01*
X263090Y-153840D01*
X383540Y274320D02*
X386080Y279400D01*
X383540Y284480D01*
X388620Y281940D01*
X393700Y284480D01*
X391160Y279400D01*
X393700Y274320D01*
X388620Y276860D01*
X383540Y274320D01*
X459540D02*
X462080Y279400D01*
X459540Y284480D01*
X464620Y281940D01*
X469700Y284480D01*
X467160Y279400D01*
X469700Y274320D01*
X464620Y276860D01*
X459540Y274320D01*
X-317500Y295910D02*
Y306070D01*
X-307340D01*
Y295910D01*
X-317500D01*
X-315468Y297942D02*
Y304038D01*
X-309372D01*
Y297942D01*
X-315468D01*
X-342500Y295910D02*
Y306070D01*
X-332340D01*
Y295910D01*
X-342500D01*
X-340468Y297942D02*
Y304038D01*
X-334372D01*
Y297942D01*
X-340468D01*
X-367500Y295910D02*
Y306070D01*
X-357340D01*
Y295910D01*
X-367500D01*
X-365468Y297942D02*
Y304038D01*
X-359372D01*
Y297942D01*
X-365468D01*
X386080Y160020D02*
Y170180D01*
X396240D01*
Y160020D01*
X386080D01*
Y134620D02*
Y144780D01*
X396240D01*
Y134620D01*
X386080D01*
Y109220D02*
Y119380D01*
X396240D01*
Y109220D01*
X386080D01*
Y83820D02*
Y93980D01*
X396240D01*
Y83820D01*
X386080D01*
Y58420D02*
Y68580D01*
X396240D01*
Y58420D01*
X386080D01*
Y33020D02*
Y43180D01*
X396240D01*
Y33020D01*
X386080D01*
X85090Y-140970D02*
Y-143510D01*
X90170D01*
Y-140970D01*
X92710D01*
Y-135890D01*
X90170D01*
Y-133350D01*
X85090D01*
Y-135890D01*
X82550D01*
Y-140970D01*
X85090D01*
Y-318770D02*
Y-321310D01*
X90170D01*
Y-318770D01*
X92710D01*
Y-313690D01*
X90170D01*
Y-311150D01*
X85090D01*
Y-313690D01*
X82550D01*
Y-318770D01*
X85090D01*
X-321310Y-140970D02*
Y-143510D01*
X-316230D01*
Y-140970D01*
X-313690D01*
Y-135890D01*
X-316230D01*
Y-133350D01*
X-321310D01*
Y-135890D01*
X-323850D01*
Y-140970D01*
X-321310D01*
Y-318770D02*
Y-321310D01*
X-316230D01*
Y-318770D01*
X-313690D01*
Y-313690D01*
X-316230D01*
Y-311150D01*
X-321310D01*
Y-313690D01*
X-323850D01*
Y-318770D01*
X-321310D01*
X-373170Y-232570D02*
X-368090Y-227490D01*
X-363010Y-232570D01*
X-368090Y-237650D01*
X-373170Y-232570D01*
Y-252570D02*
X-368090Y-247490D01*
X-363010Y-252570D01*
X-368090Y-257650D01*
X-373170Y-252570D01*
Y-207570D02*
X-368090Y-202490D01*
X-363010Y-207570D01*
X-368090Y-212650D01*
X-373170Y-207570D01*
Y-277570D02*
X-368090Y-272490D01*
X-363010Y-277570D01*
X-368090Y-282650D01*
X-373170Y-277570D01*
X-400270Y-313350D02*
X-397730D01*
X-395190Y-310810D01*
X-392650Y-313350D01*
X-390110D01*
Y-310810D01*
X-392650Y-308270D01*
X-390110Y-305730D01*
Y-303190D01*
X-392650D01*
X-395190Y-305730D01*
X-397730Y-303190D01*
X-400270D01*
Y-305730D01*
X-397730Y-308270D01*
X-400270Y-310810D01*
Y-313350D01*
Y-181950D02*
X-397730D01*
X-395190Y-179410D01*
X-392650Y-181950D01*
X-390110D01*
Y-179410D01*
X-392650Y-176870D01*
X-390110Y-174330D01*
Y-171790D01*
X-392650D01*
X-395190Y-174330D01*
X-397730Y-171790D01*
X-400270D01*
Y-174330D01*
X-397730Y-176870D01*
X-400270Y-179410D01*
Y-181950D01*
X-181610Y74930D02*
X-186690Y85090D01*
X-176530D01*
X-181610Y74930D01*
Y76962D02*
X-184658Y83058D01*
X-178562D01*
X-181610Y76962D01*
X-203200Y116840D02*
X-208280Y127000D01*
X-198120D01*
X-203200Y116840D01*
Y118872D02*
X-206248Y124968D01*
X-200152D01*
X-203200Y118872D01*
X-152400Y-307340D02*
X-149860Y-302260D01*
X-152400Y-297180D01*
X-147320Y-299720D01*
X-142240Y-297180D01*
X-144780Y-302260D01*
X-142240Y-307340D01*
X-147320Y-304800D01*
X-152400Y-307340D01*
X-150368Y-305308D02*
X-148844Y-302260D01*
X-150368Y-299212D01*
X-147320Y-300736D01*
X-144272Y-299212D01*
X-145796Y-302260D01*
X-144272Y-305308D01*
X-147320Y-303784D01*
X-150368Y-305308D01*
X-264160Y-307340D02*
X-261620Y-302260D01*
X-264160Y-297180D01*
X-259080Y-299720D01*
X-254000Y-297180D01*
X-256540Y-302260D01*
X-254000Y-307340D01*
X-259080Y-304800D01*
X-264160Y-307340D01*
X-262128Y-305308D02*
X-260604Y-302260D01*
X-262128Y-299212D01*
X-259080Y-300736D01*
X-256032Y-299212D01*
X-257556Y-302260D01*
X-256032Y-305308D01*
X-259080Y-303784D01*
X-262128Y-305308D01*
X-224790Y74930D02*
X-229870Y85090D01*
X-219710D01*
X-224790Y74930D01*
Y76962D02*
X-227838Y83058D01*
X-221742D01*
X-224790Y76962D01*
X-42080Y255470D02*
X-47160Y265630D01*
X-37000D01*
X-42080Y255470D01*
Y280470D02*
X-47160Y290630D01*
X-37000D01*
X-42080Y280470D01*
X-459540Y296080D02*
X-464620Y306240D01*
X-454460D01*
X-459540Y296080D01*
X-434540D02*
X-439620Y306240D01*
X-429460D01*
X-434540Y296080D01*
X-321310Y-100330D02*
Y-102870D01*
X-316230D01*
Y-100330D01*
X-313690D01*
Y-95250D01*
X-316230D01*
Y-92710D01*
X-321310D01*
Y-95250D01*
X-323850D01*
Y-100330D01*
X-321310D01*
Y77470D02*
Y74930D01*
X-316230D01*
Y77470D01*
X-313690D01*
Y82550D01*
X-316230D01*
Y85090D01*
X-321310D01*
Y82550D01*
X-323850D01*
Y77470D01*
X-321310D01*
X85090Y-100330D02*
Y-102870D01*
X90170D01*
Y-100330D01*
X92710D01*
Y-95250D01*
X90170D01*
Y-92710D01*
X85090D01*
Y-95250D01*
X82550D01*
Y-100330D01*
X85090D01*
Y77470D02*
Y74930D01*
X90170D01*
Y77470D01*
X92710D01*
Y82550D01*
X90170D01*
Y85090D01*
X85090D01*
Y82550D01*
X82550D01*
Y77470D01*
X85090D01*
X270510Y-316230D02*
X273050Y-313690D01*
X275590D01*
X273050Y-311150D01*
X275590Y-308610D01*
X273050D01*
X270510Y-306070D01*
X267970Y-308610D01*
X265430D01*
X267970Y-311150D01*
X265430Y-313690D01*
X267970D01*
X270510Y-316230D01*
X323850Y297180D02*
X326390Y299720D01*
X328930D01*
X326390Y302260D01*
X328930Y304800D01*
X326390D01*
X323850Y307340D01*
X321310Y304800D01*
X318770D01*
X321310Y302260D01*
X318770Y299720D01*
X321310D01*
X323850Y297180D01*
X129540Y-26880D02*
X132080Y-24340D01*
X134620D01*
X132080Y-21800D01*
X134620Y-19260D01*
X132080D01*
X129540Y-16720D01*
X127000Y-19260D01*
X124460D01*
X127000Y-21800D01*
X124460Y-24340D01*
X127000D01*
X129540Y-26880D01*
X-469900Y81280D02*
X-467360Y83820D01*
X-464820D01*
X-467360Y86360D01*
X-464820Y88900D01*
X-467360D01*
X-469900Y91440D01*
X-472440Y88900D01*
X-474980D01*
X-472440Y86360D01*
X-474980Y83820D01*
X-472440D01*
X-469900Y81280D01*
X129540Y68580D02*
X132080Y71120D01*
X134620D01*
X132080Y73660D01*
X134620Y76200D01*
X132080D01*
X129540Y78740D01*
X127000Y76200D01*
X124460D01*
X127000Y73660D01*
X124460Y71120D01*
X127000D01*
X129540Y68580D01*
X93980Y-173990D02*
X96520Y-171450D01*
X99060D01*
X96520Y-168910D01*
X99060Y-166370D01*
X96520D01*
X93980Y-163830D01*
X91440Y-166370D01*
X88900D01*
X91440Y-168910D01*
X88900Y-171450D01*
X91440D01*
X93980Y-173990D01*
X92710Y-226060D02*
X95250Y-223520D01*
X97790D01*
X95250Y-220980D01*
X97790Y-218440D01*
X95250D01*
X92710Y-215900D01*
X90170Y-218440D01*
X87630D01*
X90170Y-220980D01*
X87630Y-223520D01*
X90170D01*
X92710Y-226060D01*
X332740Y332740D02*
X335280Y335280D01*
X337820D01*
X335280Y337820D01*
X337820Y340360D01*
X335280D01*
X332740Y342900D01*
X330200Y340360D01*
X327660D01*
X330200Y337820D01*
X327660Y335280D01*
X330200D01*
X332740Y332740D01*
X88900Y327660D02*
X91440Y330200D01*
X93980D01*
X91440Y332740D01*
X93980Y335280D01*
X91440D01*
X88900Y337820D01*
X86360Y335280D01*
X83820D01*
X86360Y332740D01*
X83820Y330200D01*
X86360D01*
X88900Y327660D01*
X-80010Y243840D02*
X-77470Y246380D01*
X-74930D01*
X-77470Y248920D01*
X-74930Y251460D01*
X-77470D01*
X-80010Y254000D01*
X-82550Y251460D01*
X-85090D01*
X-82550Y248920D01*
X-85090Y246380D01*
X-82550D01*
X-80010Y243840D01*
X-149860Y152400D02*
X-147320Y154940D01*
X-144780D01*
X-147320Y157480D01*
X-144780Y160020D01*
X-147320D01*
X-149860Y162560D01*
X-152400Y160020D01*
X-154940D01*
X-152400Y157480D01*
X-154940Y154940D01*
X-152400D01*
X-149860Y152400D01*
X78740Y125730D02*
X81280Y128270D01*
X83820D01*
X81280Y130810D01*
X83820Y133350D01*
X81280D01*
X78740Y135890D01*
X76200Y133350D01*
X73660D01*
X76200Y130810D01*
X73660Y128270D01*
X76200D01*
X78740Y125730D01*
X134620Y116840D02*
X137160Y119380D01*
X139700D01*
X137160Y121920D01*
X139700Y124460D01*
X137160D01*
X134620Y127000D01*
X132080Y124460D01*
X129540D01*
X132080Y121920D01*
X129540Y119380D01*
X132080D01*
X134620Y116840D01*
X187960Y-60960D02*
X190500Y-58420D01*
X193040D01*
X190500Y-55880D01*
X193040Y-53340D01*
X190500D01*
X187960Y-50800D01*
X185420Y-53340D01*
X182880D01*
X185420Y-55880D01*
X182880Y-58420D01*
X185420D01*
X187960Y-60960D01*
X254000Y109220D02*
X256540Y111760D01*
X259080D01*
X256540Y114300D01*
X259080Y116840D01*
X256540D01*
X254000Y119380D01*
X251460Y116840D01*
X248920D01*
X251460Y114300D01*
X248920Y111760D01*
X251460D01*
X254000Y109220D01*
X238760Y120650D02*
X241300Y123190D01*
X243840D01*
X241300Y125730D01*
X243840Y128270D01*
X241300D01*
X238760Y130810D01*
X236220Y128270D01*
X233680D01*
X236220Y125730D01*
X233680Y123190D01*
X236220D01*
X238760Y120650D01*
X295910Y85090D02*
X298450Y87630D01*
X300990D01*
X298450Y90170D01*
X300990Y92710D01*
X298450D01*
X295910Y95250D01*
X293370Y92710D01*
X290830D01*
X293370Y90170D01*
X290830Y87630D01*
X293370D01*
X295910Y85090D01*
X342900Y58420D02*
X345440Y60960D01*
X347980D01*
X345440Y63500D01*
X347980Y66040D01*
X345440D01*
X342900Y68580D01*
X340360Y66040D01*
X337820D01*
X340360Y63500D01*
X337820Y60960D01*
X340360D01*
X342900Y58420D01*
D86*
X-465700Y130830D02*
G03*
X-465700Y130830I-5080J0D01*
G01*
Y44430D02*
G03*
X-465700Y44430I-5080J0D01*
G01*
X-427700Y130830D02*
G03*
X-427700Y130830I-5080J0D01*
G01*
Y44430D02*
G03*
X-427700Y44430I-5080J0D01*
G01*
X396240Y-165100D02*
G03*
X396240Y-165100I-5080J0D01*
G01*
Y-139700D02*
G03*
X396240Y-139700I-5080J0D01*
G01*
Y-114300D02*
G03*
X396240Y-114300I-5080J0D01*
G01*
Y-88900D02*
G03*
X396240Y-88900I-5080J0D01*
G01*
Y-63500D02*
G03*
X396240Y-63500I-5080J0D01*
G01*
Y-38100D02*
G03*
X396240Y-38100I-5080J0D01*
G01*
Y-12700D02*
G03*
X396240Y-12700I-5080J0D01*
G01*
Y12700D02*
G03*
X396240Y12700I-5080J0D01*
G01*
D87*
X-467732Y130830D02*
G03*
X-467732Y130830I-3048J0D01*
G01*
Y44430D02*
G03*
X-467732Y44430I-3048J0D01*
G01*
X-429732Y130830D02*
G03*
X-429732Y130830I-3048J0D01*
G01*
Y44430D02*
G03*
X-429732Y44430I-3048J0D01*
G01*
M02*
