G04*
G04 #@! TF.GenerationSoftware,Altium Limited,Altium Designer,24.1.2 (44)*
G04*
G04 Layer_Color=32768*
%FSLAX44Y44*%
%MOMM*%
G71*
G04*
G04 #@! TF.SameCoordinates,98FF00E1-DB16-4AB4-99D8-1D2B7C447DA4*
G04*
G04*
G04 #@! TF.FilePolarity,Positive*
G04*
G01*
G75*
%ADD85C,0.0500*%
D85*
X109720Y144870D02*
X304720D01*
X109720D02*
Y345910D01*
X304720D01*
Y144870D02*
Y345910D01*
X118645Y-296500D02*
X188695D01*
Y-211500D01*
X118645D02*
X188695D01*
X118645Y-296500D02*
Y-211500D01*
X-124120Y168140D02*
Y347980D01*
X-272120D02*
X-124120D01*
X-272120Y168140D02*
X-124120D01*
X-272120D02*
Y347980D01*
X315090Y-174760D02*
Y-112260D01*
X236090Y-174760D02*
X315090D01*
X236090D02*
Y-112260D01*
X315090D01*
X375960Y-182880D02*
Y182800D01*
X406360D01*
X375960Y-182880D02*
X406360D01*
Y182800D01*
X-90310Y240080D02*
Y278080D01*
X-107810D02*
X-90310D01*
X-107810Y240080D02*
Y278080D01*
Y240080D02*
X-90310D01*
X353390Y-208720D02*
X373050D01*
X353390Y-243820D02*
X373050D01*
Y-208720D01*
X353390Y-243820D02*
Y-208720D01*
X325460Y-216020D02*
X331710D01*
X343960Y-228270D01*
Y-274020D02*
Y-228270D01*
X325460Y-274020D02*
X343960D01*
X285960D02*
X304460D01*
X285960D02*
Y-228270D01*
X298210Y-216020D01*
X304460D01*
Y-207020D02*
X325460D01*
Y-216020D02*
Y-207020D01*
Y-283020D02*
Y-274020D01*
X304460Y-283020D02*
X325460D01*
X304460D02*
Y-274020D01*
Y-216020D02*
Y-207020D01*
X119710Y-74700D02*
X139370D01*
X119710Y-39600D02*
X139370D01*
X119710Y-74700D02*
Y-39600D01*
X139370Y-74700D02*
Y-39600D01*
X118440Y11660D02*
X138100D01*
X118440Y46760D02*
X138100D01*
X118440Y11660D02*
Y46760D01*
X138100Y11660D02*
Y46760D01*
X235290Y-216500D02*
X241540D01*
X253790Y-228750D01*
Y-274500D02*
Y-228750D01*
X235290Y-274500D02*
X253790D01*
X195790D02*
X214290D01*
X195790D02*
Y-228750D01*
X208040Y-216500D01*
X214290D01*
Y-207500D02*
X235290D01*
Y-216500D02*
Y-207500D01*
Y-283500D02*
Y-274500D01*
X214290Y-283500D02*
X235290D01*
X214290D02*
Y-274500D01*
Y-216500D02*
Y-207500D01*
X259410Y-208720D02*
X279070D01*
X259410Y-243820D02*
X279070D01*
Y-208720D01*
X259410Y-243820D02*
Y-208720D01*
X139560Y-175210D02*
Y-137210D01*
X122060D02*
X139560D01*
X122060Y-175210D02*
Y-137210D01*
Y-175210D02*
X139560D01*
X-68080Y233550D02*
X-5580D01*
X-68080D02*
Y312550D01*
X-5580D01*
Y233550D02*
Y312550D01*
X-486540Y264660D02*
Y327160D01*
X-407540D01*
Y264660D02*
Y327160D01*
X-486540Y264660D02*
X-407540D01*
M02*
