G04*
G04 #@! TF.GenerationSoftware,Altium Limited,Altium Designer,24.1.2 (44)*
G04*
G04 Layer_Color=32896*
%FSLAX44Y44*%
%MOMM*%
G71*
G04*
G04 #@! TF.SameCoordinates,98FF00E1-DB16-4AB4-99D8-1D2B7C447DA4*
G04*
G04*
G04 #@! TF.FilePolarity,Positive*
G04*
G01*
G75*
%ADD10C,0.2000*%
%ADD11C,0.1270*%
%ADD12C,0.2540*%
%ADD71C,0.5080*%
%ADD80C,0.1500*%
%ADD81C,0.2500*%
%ADD82C,0.1778*%
G36*
X-471409Y-27862D02*
X-471315Y-27956D01*
X-471253Y-35800D01*
Y-35863D01*
Y-48979D01*
X-471064Y-49418D01*
X-470970Y-49513D01*
X-462247Y-49575D01*
X-461996Y-49513D01*
X-461714Y-49167D01*
X-461651Y-28395D01*
X-461714Y-28207D01*
X-461619Y-27924D01*
X-457603Y-27862D01*
X-457289Y-27987D01*
X-457321Y-48728D01*
X-457258Y-48916D01*
X-457289Y-49011D01*
X-457383Y-49544D01*
X-457446Y-50171D01*
X-457509Y-50423D01*
X-457572Y-51050D01*
X-457760Y-51364D01*
X-457823Y-51678D01*
X-457948Y-51991D01*
X-458199Y-52431D01*
X-458387Y-52744D01*
X-458921Y-53278D01*
X-459235Y-53466D01*
X-459423Y-53654D01*
X-459925Y-53843D01*
X-460051Y-53968D01*
X-460553Y-54031D01*
X-460741Y-54094D01*
X-461243Y-54156D01*
X-461431Y-54219D01*
X-471566Y-54188D01*
X-471817Y-54125D01*
X-472539Y-54031D01*
X-472790Y-53968D01*
X-473355Y-53717D01*
X-473669Y-53529D01*
X-473794Y-53466D01*
X-474045Y-53215D01*
X-474171Y-53152D01*
X-474265Y-53058D01*
X-474328Y-52933D01*
X-474579Y-52682D01*
X-474955Y-51991D01*
X-475175Y-51583D01*
X-475269Y-51113D01*
X-475457Y-50673D01*
X-475520Y-49418D01*
X-475583Y-49230D01*
X-475551Y-28426D01*
X-475583Y-28144D01*
X-475520Y-27893D01*
X-475394Y-27830D01*
X-471849Y-27862D01*
X-471660Y-27799D01*
X-471409Y-27862D01*
D02*
G37*
G36*
X-480697Y-27611D02*
X-480666Y-27705D01*
X-480478Y-27893D01*
X-480415Y-29839D01*
X-480478Y-30090D01*
X-480823Y-30372D01*
X-481325Y-30309D01*
X-481513Y-30372D01*
X-481701Y-30309D01*
X-481952Y-30246D01*
X-482047Y-30152D01*
X-482109Y-28521D01*
X-482266Y-28364D01*
X-482454Y-28426D01*
X-482517Y-28677D01*
X-482486Y-29964D01*
X-482580Y-30246D01*
X-482988Y-30215D01*
X-483051Y-28019D01*
X-482957Y-27924D01*
X-482925Y-27893D01*
X-482643Y-27611D01*
X-480948Y-27548D01*
X-480697Y-27611D01*
D02*
G37*
G36*
X-480823Y-30749D02*
X-480697Y-30811D01*
X-480478Y-31031D01*
X-480415Y-33227D01*
X-480540Y-33541D01*
X-480603Y-33667D01*
X-480478Y-33792D01*
X-480352Y-34106D01*
X-480415Y-34357D01*
X-480666Y-34608D01*
X-480478Y-34734D01*
X-480415Y-35863D01*
X-480509Y-36146D01*
X-480948Y-36397D01*
X-482298Y-36365D01*
X-482486Y-36051D01*
X-482392Y-35769D01*
X-481262Y-35706D01*
X-480980Y-35612D01*
Y-35549D01*
Y-35047D01*
X-480917Y-34796D01*
X-480729Y-34608D01*
X-480823Y-34514D01*
X-482329Y-34451D01*
X-482486Y-34169D01*
X-482329Y-33761D01*
X-482203Y-33698D01*
X-482172Y-33604D01*
X-482360Y-33416D01*
X-482423Y-32851D01*
X-482329Y-32757D01*
X-481513Y-32694D01*
X-481325Y-32757D01*
X-481074Y-32694D01*
X-480980Y-32600D01*
X-481011Y-31502D01*
X-482329Y-31439D01*
X-482454Y-31251D01*
X-482423Y-30780D01*
X-482329Y-30686D01*
X-481137Y-30623D01*
X-480823Y-30749D01*
D02*
G37*
G36*
X-479725Y-34169D02*
X-479787Y-34420D01*
X-480007Y-34451D01*
X-480164Y-34294D01*
Y-34232D01*
X-480132Y-34012D01*
X-480070Y-33761D01*
X-479819Y-33698D01*
X-479725Y-34169D01*
D02*
G37*
G36*
X-480823Y-36710D02*
X-480478Y-36930D01*
X-480383Y-37150D01*
X-480415Y-38185D01*
Y-38813D01*
X-480478Y-39064D01*
X-480634Y-39220D01*
X-481074Y-39283D01*
X-481701Y-39346D01*
X-482203Y-39220D01*
X-482360Y-39064D01*
X-482423Y-36930D01*
X-482329Y-36836D01*
X-482078Y-36773D01*
X-481984Y-36867D01*
X-481921Y-38311D01*
X-481858Y-38562D01*
X-481764Y-38656D01*
X-481670Y-38624D01*
X-481607Y-38248D01*
X-481544Y-38060D01*
X-481576Y-37965D01*
X-481544Y-37118D01*
X-481482Y-36867D01*
X-481199Y-36710D01*
X-481011Y-36648D01*
X-480823Y-36710D01*
D02*
G37*
G36*
X-480634Y-39723D02*
X-480478Y-39880D01*
X-480415Y-41762D01*
X-480478Y-42013D01*
X-480634Y-42170D01*
X-480760Y-42233D01*
X-480791Y-42264D01*
X-481890Y-42296D01*
X-482141Y-42233D01*
X-482360Y-41950D01*
X-482423Y-39817D01*
X-482329Y-39723D01*
X-482078Y-39660D01*
X-481984Y-39754D01*
X-481921Y-41197D01*
X-481858Y-41448D01*
X-481764Y-41543D01*
X-481670Y-41511D01*
X-481607Y-41386D01*
X-481544Y-41197D01*
X-481576Y-40978D01*
X-481544Y-40068D01*
X-481482Y-39817D01*
X-481388Y-39723D01*
X-480886Y-39660D01*
X-480634Y-39723D01*
D02*
G37*
G36*
X-480697Y-42672D02*
X-480478Y-42892D01*
X-480415Y-43394D01*
Y-43457D01*
Y-44774D01*
X-480352Y-44963D01*
X-480446Y-45245D01*
X-482141Y-45308D01*
X-482423Y-45214D01*
X-482486Y-44963D01*
X-482360Y-44649D01*
X-481607Y-44586D01*
X-481137Y-44618D01*
X-481042Y-44523D01*
X-480980Y-43457D01*
X-481105Y-43331D01*
X-482360Y-43268D01*
X-482486Y-42955D01*
X-482392Y-42672D01*
X-480948Y-42609D01*
X-480697Y-42672D01*
D02*
G37*
G36*
X-479787Y-45716D02*
X-479725Y-45967D01*
X-479787Y-46218D01*
X-479850Y-46406D01*
X-479881Y-46438D01*
X-480007D01*
X-480101Y-46218D01*
X-480164Y-45967D01*
X-480070Y-45684D01*
X-479881Y-45622D01*
X-479787Y-45716D01*
D02*
G37*
G36*
X-480352Y-45841D02*
X-480415Y-46281D01*
X-480791Y-46469D01*
X-480729Y-46720D01*
X-480415Y-47034D01*
X-480446Y-49136D01*
X-480572Y-49199D01*
X-480760Y-49387D01*
X-480980Y-49544D01*
X-481042Y-49669D01*
X-480697Y-49826D01*
X-480478Y-50046D01*
X-480415Y-52368D01*
X-480540Y-52493D01*
X-481388Y-52462D01*
X-481827Y-52525D01*
X-482015Y-52588D01*
X-482203D01*
X-482360Y-52431D01*
X-482423Y-51866D01*
X-482298Y-51740D01*
X-481042Y-51678D01*
X-480980Y-50548D01*
X-481168Y-50423D01*
X-481952Y-50454D01*
X-482392Y-50391D01*
X-482486Y-50234D01*
X-482423Y-49795D01*
X-482329Y-49701D01*
X-481827Y-49638D01*
X-481796Y-49418D01*
X-482047Y-49167D01*
X-482109Y-47536D01*
X-482203Y-47442D01*
X-482423Y-47473D01*
X-482517Y-47693D01*
X-482486Y-48979D01*
X-482580Y-49261D01*
X-482894Y-49324D01*
X-482988Y-49230D01*
X-483051Y-47222D01*
X-482957Y-46940D01*
X-482831Y-46877D01*
X-482580Y-46626D01*
X-482329Y-46563D01*
X-482235Y-46469D01*
X-482423Y-46155D01*
X-482486Y-45841D01*
X-482392Y-45747D01*
X-480509Y-45684D01*
X-480352Y-45841D01*
D02*
G37*
G36*
X-479944Y-52713D02*
X-479850Y-52807D01*
X-479787Y-56133D01*
X-479850Y-56384D01*
X-480132Y-56667D01*
X-481827Y-56729D01*
X-482109Y-56635D01*
X-482172Y-56510D01*
X-482360Y-56322D01*
X-482423Y-52933D01*
X-482266Y-52776D01*
X-482078Y-52713D01*
X-481921Y-52870D01*
X-481858Y-53372D01*
Y-53435D01*
Y-55820D01*
X-481701Y-55914D01*
X-481544Y-55882D01*
X-481450Y-55663D01*
X-481482Y-52996D01*
X-481388Y-52901D01*
X-481137Y-52839D01*
X-480823Y-52964D01*
X-480760Y-55851D01*
X-480509Y-55914D01*
X-480415Y-55820D01*
X-480352Y-52996D01*
X-480289Y-52744D01*
X-480132Y-52650D01*
X-479944Y-52713D01*
D02*
G37*
G36*
X-480823Y-58675D02*
X-480478Y-59020D01*
X-480415Y-61342D01*
X-480509Y-61436D01*
X-481011Y-61562D01*
X-480980Y-61719D01*
X-480697Y-61876D01*
X-480478Y-62095D01*
X-480415Y-64103D01*
X-480603Y-64292D01*
X-480948Y-64574D01*
X-481074Y-64511D01*
X-481796Y-64543D01*
X-482078Y-64511D01*
X-482109Y-64417D01*
X-482360Y-64166D01*
X-482423Y-63601D01*
Y-62158D01*
X-482203Y-61938D01*
X-482078Y-61876D01*
X-481858Y-61656D01*
X-481890Y-61562D01*
X-482266Y-61499D01*
X-482360Y-61405D01*
X-482423Y-60840D01*
X-482329Y-60746D01*
X-481764Y-60683D01*
X-481137Y-60746D01*
X-481042Y-60652D01*
X-480980Y-59585D01*
X-481074Y-59491D01*
X-481890Y-59428D01*
X-482078Y-59491D01*
X-482360Y-59397D01*
X-482454Y-59177D01*
X-482423Y-58769D01*
X-482329Y-58675D01*
X-481074Y-58612D01*
X-480823Y-58675D01*
D02*
G37*
G36*
X-479787Y-64919D02*
X-479725Y-65233D01*
X-479787Y-65484D01*
X-480007Y-65515D01*
X-480101Y-65421D01*
Y-65358D01*
X-480164Y-65233D01*
X-480101Y-64982D01*
X-479944Y-64825D01*
X-479787Y-64919D01*
D02*
G37*
G36*
X-480415D02*
X-480352Y-65358D01*
X-480603Y-65609D01*
X-480415Y-65923D01*
X-480352Y-66049D01*
X-480164Y-66111D01*
X-479850Y-66174D01*
X-479787Y-66425D01*
X-479881Y-66708D01*
X-480195Y-66770D01*
X-480352Y-66927D01*
X-480415Y-67053D01*
X-480540Y-67178D01*
X-480603Y-67304D01*
X-480478Y-67618D01*
X-480415Y-69626D01*
X-480540Y-69940D01*
X-480478Y-70128D01*
X-480415Y-72199D01*
X-480572Y-72356D01*
X-480697Y-72418D01*
X-480823Y-72544D01*
X-481952Y-72607D01*
X-482078Y-72481D01*
X-482203Y-72418D01*
X-482360Y-72262D01*
X-482423Y-70253D01*
X-482078Y-69971D01*
X-482109Y-69814D01*
X-482392Y-69657D01*
X-482454Y-69469D01*
X-482423Y-67806D01*
X-482360Y-67555D01*
X-482141Y-67335D01*
X-481513Y-67273D01*
X-481262Y-67335D01*
X-481011Y-67273D01*
X-480854Y-67116D01*
X-480917Y-67053D01*
Y-66990D01*
X-481105Y-66802D01*
X-482266Y-66833D01*
X-482360Y-66739D01*
X-482486Y-66425D01*
X-482392Y-66143D01*
X-481513Y-66080D01*
X-481325Y-66143D01*
X-481074Y-66080D01*
X-480917Y-65798D01*
X-480791Y-65672D01*
X-480823Y-65578D01*
X-482329Y-65515D01*
X-482486Y-65233D01*
X-482392Y-64950D01*
X-480760Y-64888D01*
X-480572Y-64825D01*
X-480415Y-64919D01*
D02*
G37*
G36*
X-460615Y-58298D02*
X-459611Y-58361D01*
X-459266Y-58455D01*
X-458858Y-58612D01*
X-458419Y-58675D01*
X-458011Y-58895D01*
X-457603Y-58989D01*
X-457509Y-59083D01*
X-457101Y-59240D01*
X-456787Y-59428D01*
X-456473Y-59553D01*
X-456222Y-59805D01*
X-455971Y-59867D01*
X-455877Y-59961D01*
X-455501Y-60212D01*
X-455438Y-60338D01*
X-455218Y-60432D01*
X-454967Y-60683D01*
X-454842Y-60746D01*
X-453995Y-61593D01*
X-453932Y-61719D01*
X-453838Y-61813D01*
X-453712Y-61876D01*
X-453618Y-62032D01*
X-453179Y-62597D01*
X-452990Y-62911D01*
X-452802Y-63099D01*
X-452739Y-63288D01*
X-452614Y-63413D01*
X-452426Y-63727D01*
X-452300Y-64040D01*
X-452112Y-64354D01*
X-451798Y-65045D01*
X-451735Y-65296D01*
X-451610Y-65421D01*
X-451547Y-65609D01*
X-451484Y-65861D01*
X-451327Y-66143D01*
X-451359Y-66300D01*
X-451735Y-66488D01*
X-452143Y-66645D01*
X-452457Y-66770D01*
X-452645Y-66708D01*
X-452834Y-66331D01*
X-452928Y-65986D01*
X-452990Y-65735D01*
X-453116Y-65609D01*
X-453242Y-65296D01*
X-453461Y-64888D01*
X-453618Y-64480D01*
X-453744Y-64354D01*
X-453869Y-64040D01*
X-453995Y-63915D01*
X-454183Y-63601D01*
X-454214Y-63570D01*
X-454371Y-63413D01*
X-454434Y-63288D01*
X-454685Y-63036D01*
X-454748Y-62911D01*
X-454999Y-62660D01*
X-455061Y-62534D01*
X-455156Y-62503D01*
X-455312Y-62346D01*
X-455375Y-62221D01*
X-455469Y-62189D01*
X-455720Y-61938D01*
X-455940Y-61781D01*
X-456003Y-61656D01*
X-456222Y-61562D01*
X-456348Y-61436D01*
X-456662Y-61248D01*
X-456787Y-61122D01*
X-457352Y-60809D01*
X-458293Y-60307D01*
X-458544Y-60244D01*
X-458952Y-60087D01*
X-459360Y-59993D01*
X-459611Y-59930D01*
X-459925Y-59805D01*
X-460678Y-59742D01*
X-460866Y-59679D01*
X-461337Y-59710D01*
X-461588Y-59648D01*
X-461651Y-58518D01*
X-461588Y-58267D01*
X-460866Y-58236D01*
X-460615Y-58298D01*
D02*
G37*
G36*
X-460992Y-60809D02*
X-460364Y-60871D01*
X-460082Y-60965D01*
X-459486Y-61060D01*
X-459203Y-61154D01*
X-458795Y-61311D01*
X-458544Y-61373D01*
X-458262Y-61530D01*
X-457854Y-61687D01*
X-457666Y-61876D01*
X-457415Y-61938D01*
X-457226Y-62126D01*
X-457101Y-62189D01*
X-456662Y-62503D01*
X-456536Y-62566D01*
X-456034Y-63068D01*
X-455909Y-63131D01*
X-455815Y-63225D01*
X-455752Y-63350D01*
X-455501Y-63601D01*
X-455438Y-63727D01*
X-455281Y-63884D01*
X-454999Y-64229D01*
X-454810Y-64543D01*
X-454685Y-64668D01*
X-454057Y-65798D01*
X-453932Y-66111D01*
X-453681Y-66676D01*
X-453618Y-67116D01*
X-453712Y-67210D01*
X-453963Y-67273D01*
X-454497Y-67492D01*
X-454748Y-67555D01*
X-455156Y-67649D01*
X-455281Y-67775D01*
X-455658Y-67837D01*
X-455846Y-67523D01*
X-455940Y-67178D01*
X-456003Y-66927D01*
X-456160Y-66770D01*
X-456254Y-66425D01*
X-456379Y-66300D01*
X-456630Y-65861D01*
X-456819Y-65672D01*
X-456881Y-65547D01*
X-457132Y-65296D01*
X-457195Y-65170D01*
X-457477Y-64888D01*
X-457603Y-64825D01*
X-458105Y-64323D01*
X-458293Y-64260D01*
X-458482Y-64072D01*
X-458607Y-64009D01*
X-458921Y-63884D01*
X-459078Y-63727D01*
X-459423Y-63633D01*
X-459737Y-63507D01*
X-459862Y-63382D01*
X-460364Y-63319D01*
X-460553Y-63256D01*
X-461306Y-63193D01*
X-461557Y-63131D01*
X-461651Y-62974D01*
Y-62911D01*
Y-60903D01*
X-461557Y-60809D01*
X-461180Y-60746D01*
X-460992Y-60809D01*
D02*
G37*
G36*
X-480415Y-73015D02*
X-480352Y-73454D01*
X-480446Y-73548D01*
X-482141Y-73611D01*
X-482392Y-73548D01*
X-482486Y-73391D01*
X-482423Y-73077D01*
Y-73015D01*
X-482329Y-72920D01*
X-481952Y-72858D01*
X-481764Y-72920D01*
X-480572Y-72858D01*
X-480415Y-73015D01*
D02*
G37*
G36*
X-479787Y-72952D02*
X-479725Y-73328D01*
Y-73391D01*
X-479787Y-73580D01*
X-480007Y-73611D01*
X-480101Y-73517D01*
X-480164Y-73328D01*
X-480038Y-72889D01*
X-479881Y-72858D01*
X-479787Y-72952D01*
D02*
G37*
G36*
X-480697Y-73987D02*
X-480478Y-74207D01*
X-480415Y-76090D01*
X-480352Y-76278D01*
X-480446Y-76560D01*
X-482329Y-76623D01*
X-482486Y-76466D01*
X-482423Y-76090D01*
X-482298Y-75964D01*
X-481042Y-75901D01*
X-480980Y-74960D01*
X-481042Y-74709D01*
X-481168Y-74646D01*
X-481639Y-74678D01*
X-482078D01*
X-482360Y-74584D01*
X-482486Y-74270D01*
X-482392Y-73987D01*
X-481890Y-73925D01*
X-481701Y-73987D01*
X-481137Y-73925D01*
X-480697Y-73987D01*
D02*
G37*
G36*
X-480478Y-77094D02*
X-480415Y-77408D01*
X-480478Y-77659D01*
X-480572Y-77753D01*
X-481388Y-77815D01*
X-481576Y-77753D01*
X-481764Y-77815D01*
X-481858Y-77910D01*
X-481827Y-78945D01*
X-481607Y-79039D01*
X-480823Y-79008D01*
X-480478Y-79102D01*
X-480415Y-79541D01*
X-480603Y-79667D01*
X-481952Y-79635D01*
X-482203Y-79573D01*
X-482298Y-79479D01*
X-482360Y-79353D01*
X-482392Y-79322D01*
X-482423Y-77408D01*
X-482078Y-77062D01*
X-480572Y-77000D01*
X-480478Y-77094D01*
D02*
G37*
G36*
X-460992Y-64260D02*
X-460364Y-64323D01*
X-459925Y-64511D01*
X-459737Y-64574D01*
X-459297Y-64762D01*
X-458858Y-65013D01*
X-458544Y-65202D01*
X-458450Y-65296D01*
X-458387Y-65421D01*
X-458231Y-65515D01*
X-458105Y-65578D01*
X-458042Y-65704D01*
X-457917Y-65766D01*
X-457823Y-65923D01*
X-457760Y-66049D01*
X-457666Y-66080D01*
X-457572Y-66174D01*
X-457509Y-66300D01*
X-457289Y-66519D01*
X-457132Y-66927D01*
X-456944Y-67116D01*
X-456881Y-67367D01*
Y-67429D01*
X-456819Y-67555D01*
X-456693Y-67680D01*
X-456568Y-67994D01*
X-456630Y-68245D01*
X-456756Y-68371D01*
X-457101Y-68465D01*
X-457603Y-68590D01*
X-457760Y-68747D01*
X-457823Y-80734D01*
X-457917Y-80828D01*
X-461933Y-80891D01*
X-462184Y-80828D01*
X-462216Y-70442D01*
X-462310Y-70347D01*
X-475991Y-70285D01*
X-476085Y-70191D01*
X-476147Y-66049D01*
X-476053Y-65766D01*
X-461808Y-65704D01*
X-461714Y-65609D01*
X-461651Y-64856D01*
X-461714Y-64605D01*
X-461619Y-64260D01*
X-461180Y-64197D01*
X-460992Y-64260D01*
D02*
G37*
G36*
X-480760Y-80012D02*
X-480729Y-80106D01*
X-480478Y-80357D01*
X-480415Y-80859D01*
Y-80922D01*
Y-83056D01*
X-480352Y-83244D01*
X-480415Y-83495D01*
X-480509Y-83589D01*
X-481168Y-83558D01*
X-481764Y-83589D01*
X-481952Y-83526D01*
X-482015Y-83589D01*
X-482392Y-83526D01*
X-482486Y-83307D01*
X-482423Y-83056D01*
X-482141Y-82899D01*
X-482015Y-82962D01*
X-481042Y-82930D01*
X-480980Y-82491D01*
X-481042Y-82240D01*
X-481168Y-82177D01*
X-482266Y-82208D01*
X-482360Y-82114D01*
X-482486Y-81800D01*
X-482423Y-81550D01*
X-482329Y-81455D01*
X-481576Y-81393D01*
X-481388Y-81455D01*
X-481042Y-81424D01*
X-480980Y-80922D01*
X-481168Y-80796D01*
X-482078Y-80828D01*
X-482360Y-80734D01*
X-482423Y-80483D01*
X-482486Y-80294D01*
X-482423Y-80106D01*
X-482329Y-80012D01*
X-481011Y-79949D01*
X-480760Y-80012D01*
D02*
G37*
G36*
X-480823Y-83966D02*
X-480478Y-84311D01*
X-480415Y-86946D01*
X-480352Y-87135D01*
X-480415Y-87386D01*
X-480478Y-87574D01*
X-481576Y-87543D01*
X-482203Y-87605D01*
X-482392Y-87543D01*
X-482486Y-87072D01*
X-482329Y-86915D01*
X-481952Y-86852D01*
X-481137Y-86915D01*
X-480948Y-86664D01*
X-480980Y-86319D01*
X-481168Y-86193D01*
X-481450Y-86225D01*
X-482266D01*
X-482360Y-86131D01*
X-482486Y-85754D01*
X-482360Y-85440D01*
X-481105Y-85378D01*
X-480948Y-85158D01*
X-480980Y-84875D01*
X-481262Y-84719D01*
X-481450Y-84781D01*
X-481607Y-84750D01*
X-482078Y-84781D01*
X-482360Y-84687D01*
X-482423Y-84060D01*
X-482329Y-83966D01*
X-481074Y-83903D01*
X-480823Y-83966D01*
D02*
G37*
G36*
X-480854Y-87888D02*
X-480478Y-88202D01*
X-480415Y-90273D01*
X-480572Y-90429D01*
X-480697Y-90492D01*
X-480823Y-90618D01*
X-481450Y-90681D01*
X-481639D01*
X-481890Y-90743D01*
X-482078Y-90555D01*
X-482203Y-90492D01*
X-482360Y-90335D01*
X-482423Y-88453D01*
X-482360Y-88202D01*
X-482266Y-88170D01*
X-482172Y-88076D01*
X-482015Y-87856D01*
X-480948Y-87794D01*
X-480854Y-87888D01*
D02*
G37*
G36*
X-481921Y-90963D02*
X-481858Y-92532D01*
X-481764Y-92626D01*
X-481042Y-92594D01*
X-480980Y-91402D01*
X-480917Y-90963D01*
X-480791Y-90837D01*
X-480572Y-90869D01*
X-480478Y-90963D01*
X-480415Y-92971D01*
X-480572Y-93128D01*
X-480791Y-93285D01*
X-480854Y-93536D01*
X-480697Y-93693D01*
X-480572Y-93756D01*
X-480478Y-93850D01*
X-480415Y-94414D01*
Y-95732D01*
X-480478Y-95983D01*
X-480634Y-96140D01*
X-481952Y-96203D01*
X-482203Y-96140D01*
X-482360Y-95983D01*
X-482423Y-93787D01*
X-482329Y-93693D01*
X-482078Y-93630D01*
X-481984Y-93724D01*
X-481921Y-95168D01*
X-481858Y-95419D01*
X-481764Y-95513D01*
X-481670Y-95481D01*
X-481544Y-95105D01*
X-481576Y-94885D01*
X-481544Y-94038D01*
X-481482Y-93787D01*
X-481388Y-93693D01*
X-481262Y-93630D01*
X-481231Y-93473D01*
X-481482Y-93410D01*
X-481764Y-93442D01*
X-482015Y-93379D01*
X-482360Y-93034D01*
X-482423Y-91026D01*
X-482266Y-90869D01*
X-482015Y-90806D01*
X-481921Y-90963D01*
D02*
G37*
G36*
X-479725Y-96799D02*
X-479756Y-96831D01*
X-479787Y-97176D01*
X-479944Y-97333D01*
X-480227Y-97301D01*
X-482078Y-97333D01*
X-482360Y-97239D01*
X-482423Y-97113D01*
X-482486Y-96925D01*
X-482392Y-96642D01*
X-481639Y-96580D01*
X-479881Y-96517D01*
X-479725Y-96799D01*
D02*
G37*
G36*
X-480823Y-97584D02*
X-480478Y-97803D01*
X-480415Y-99686D01*
X-480478Y-99937D01*
X-480509Y-99968D01*
X-480760Y-100157D01*
X-481764Y-100219D01*
X-482203Y-100094D01*
X-482360Y-99937D01*
X-482423Y-97803D01*
X-482329Y-97709D01*
X-482078Y-97646D01*
X-481984Y-97740D01*
X-481890Y-97960D01*
X-481921Y-99372D01*
X-481827Y-99466D01*
X-481701Y-99529D01*
X-481544Y-99247D01*
X-481607Y-98996D01*
X-481544Y-98807D01*
X-481576Y-98776D01*
X-481544Y-97803D01*
X-481011Y-97521D01*
X-480823Y-97584D01*
D02*
G37*
G36*
X-479850Y-100188D02*
X-479787Y-102635D01*
Y-102698D01*
Y-103828D01*
X-479881Y-104110D01*
X-480195Y-104173D01*
X-480289Y-104079D01*
X-480352Y-102824D01*
X-480415Y-102573D01*
X-482141Y-102541D01*
X-482392Y-102479D01*
X-482486Y-102259D01*
X-482423Y-102071D01*
X-482360Y-101820D01*
X-481042Y-101757D01*
X-480509Y-101788D01*
X-480415Y-101694D01*
X-480352Y-100251D01*
X-480258Y-100157D01*
X-479850Y-100188D01*
D02*
G37*
G36*
X-479819Y-106181D02*
X-479756Y-106432D01*
X-479787Y-106715D01*
X-479913Y-106840D01*
X-480258Y-106809D01*
X-480352Y-106903D01*
X-480415Y-108095D01*
Y-108472D01*
X-480697Y-108754D01*
X-482078Y-108817D01*
X-482360Y-108534D01*
X-482423Y-106589D01*
X-482266Y-106307D01*
X-481952Y-106118D01*
X-479881Y-106056D01*
X-479819Y-106181D01*
D02*
G37*
G36*
X-480478Y-109539D02*
X-480415Y-111359D01*
X-480352Y-111610D01*
X-480478Y-111923D01*
X-480509Y-111955D01*
X-481952Y-111892D01*
X-482141Y-111955D01*
X-482392Y-111892D01*
X-482486Y-111610D01*
X-482392Y-111327D01*
X-481450Y-111264D01*
X-481262Y-111327D01*
X-481042Y-111233D01*
X-480980Y-110103D01*
X-481168Y-109978D01*
X-482078Y-110009D01*
X-482392Y-109884D01*
X-482486Y-109350D01*
X-482392Y-109256D01*
X-480823Y-109193D01*
X-480478Y-109539D01*
D02*
G37*
G36*
Y-112551D02*
X-480415Y-114747D01*
X-480509Y-114841D01*
X-480634Y-114904D01*
X-480886Y-114841D01*
X-480948Y-114653D01*
X-480917Y-113179D01*
X-481011Y-113084D01*
X-481137Y-113022D01*
X-481293Y-113241D01*
X-481262Y-113586D01*
X-481293Y-114685D01*
X-481450Y-114841D01*
X-481952Y-114904D01*
X-482266Y-114779D01*
X-482298Y-114685D01*
X-482392Y-114591D01*
X-482454Y-114340D01*
X-482423Y-112614D01*
X-482172Y-112363D01*
X-482109Y-112237D01*
X-481325Y-112206D01*
X-480823D01*
X-480478Y-112551D01*
D02*
G37*
G36*
Y-116818D02*
X-480415Y-118701D01*
X-480478Y-118952D01*
X-481011Y-119234D01*
X-481450Y-119172D01*
X-481701Y-119234D01*
X-482141Y-119109D01*
X-482360Y-118889D01*
X-482423Y-117007D01*
Y-116944D01*
Y-116881D01*
X-482329Y-116787D01*
X-482015Y-116724D01*
X-481890Y-116912D01*
X-481827Y-118481D01*
X-481137Y-118544D01*
X-481042Y-118450D01*
X-480980Y-117069D01*
X-480886Y-116787D01*
X-480572Y-116724D01*
X-480478Y-116818D01*
D02*
G37*
G36*
X-480446Y-119611D02*
X-480352Y-119956D01*
X-480415Y-120207D01*
X-480540Y-120270D01*
X-482329Y-120239D01*
X-482454Y-120050D01*
X-482423Y-119642D01*
X-482329Y-119548D01*
X-480886Y-119486D01*
X-480572D01*
X-480446Y-119611D01*
D02*
G37*
G36*
X-479787Y-119580D02*
X-479725Y-120144D01*
X-479819Y-120239D01*
X-480007Y-120301D01*
X-480101Y-120207D01*
X-480164Y-119893D01*
X-480132Y-119862D01*
X-480070Y-119548D01*
X-479881Y-119486D01*
X-479787Y-119580D01*
D02*
G37*
G36*
X-480634Y-120741D02*
X-480603Y-120835D01*
X-480478Y-120960D01*
X-480415Y-122529D01*
X-480352Y-123157D01*
X-480446Y-123251D01*
X-482329Y-123314D01*
X-482423Y-123219D01*
X-482486Y-123031D01*
X-482423Y-122780D01*
X-482329Y-122686D01*
X-481952Y-122623D01*
X-481137Y-122686D01*
X-481042Y-122592D01*
X-480980Y-121525D01*
X-481074Y-121431D01*
X-482266Y-121368D01*
X-482360Y-121274D01*
X-482486Y-120960D01*
X-482392Y-120678D01*
X-481952Y-120615D01*
X-480948D01*
X-480634Y-120741D01*
D02*
G37*
G36*
X-457352Y-84279D02*
X-457289Y-84405D01*
X-457321Y-88139D01*
X-457258Y-88327D01*
X-457321Y-88515D01*
X-457415Y-88610D01*
X-471158Y-88672D01*
X-471253Y-88766D01*
X-471315Y-88955D01*
X-471253Y-89206D01*
X-471158Y-89488D01*
X-471064Y-89833D01*
X-471001Y-90084D01*
X-470876Y-90210D01*
X-470688Y-90524D01*
X-470562Y-90649D01*
X-470374Y-90963D01*
X-470280Y-90994D01*
X-469809Y-91465D01*
X-469746Y-91590D01*
X-469589Y-91685D01*
X-469464Y-91747D01*
X-469276Y-91936D01*
X-469150Y-91998D01*
X-468585Y-92563D01*
X-468460Y-92626D01*
X-468334Y-92814D01*
X-468209Y-92877D01*
X-467958Y-93128D01*
X-467832Y-93191D01*
X-467581Y-93442D01*
X-467456Y-93504D01*
X-467205Y-93756D01*
X-467079Y-93818D01*
X-466577Y-94320D01*
X-466452Y-94383D01*
X-466263Y-94571D01*
X-466044Y-94728D01*
X-465887Y-94948D01*
X-465761Y-95011D01*
X-465510Y-95262D01*
X-465385Y-95324D01*
X-465134Y-95575D01*
X-465008Y-95638D01*
X-464757Y-95889D01*
X-464632Y-95952D01*
X-464381Y-96203D01*
X-464255Y-96266D01*
X-463690Y-96831D01*
X-463565Y-96893D01*
X-463502Y-97019D01*
X-463377Y-97082D01*
X-463126Y-97333D01*
X-463000Y-97395D01*
X-462686Y-97709D01*
X-462561Y-97772D01*
X-462373Y-97960D01*
X-462247Y-98023D01*
X-462059Y-98211D01*
X-461839Y-98368D01*
X-461776Y-98494D01*
X-461682Y-98588D01*
X-461557Y-98651D01*
X-461055Y-99152D01*
X-460929Y-99215D01*
X-460678Y-99466D01*
X-460553Y-99529D01*
X-460302Y-99780D01*
X-460176Y-99843D01*
X-459611Y-100408D01*
X-459486Y-100470D01*
X-459392Y-100564D01*
X-459329Y-100690D01*
X-459015Y-101004D01*
X-458576Y-101569D01*
X-458387Y-101882D01*
X-458168Y-102102D01*
X-458074Y-102447D01*
X-457885Y-102635D01*
X-457823Y-102949D01*
X-457697Y-103263D01*
X-457572Y-103389D01*
X-457509Y-104079D01*
X-457446Y-104330D01*
X-457383Y-104518D01*
X-457321Y-110166D01*
X-457415Y-110260D01*
X-465824Y-110323D01*
X-466075Y-110386D01*
X-466201Y-110574D01*
X-466169Y-112614D01*
X-466075Y-112708D01*
X-462686Y-112771D01*
X-462529Y-112928D01*
X-462623Y-113022D01*
X-466012Y-113084D01*
X-466106Y-113179D01*
X-466075Y-113335D01*
X-465918Y-113743D01*
X-465730Y-113932D01*
X-465667Y-114245D01*
X-465479Y-114434D01*
X-465353Y-114747D01*
X-465291Y-114936D01*
X-465134Y-115155D01*
X-465040Y-115500D01*
X-464851Y-115689D01*
X-464789Y-116003D01*
X-464538Y-116253D01*
X-464412Y-116756D01*
X-464224Y-116944D01*
X-464161Y-117258D01*
X-463910Y-117509D01*
X-463847Y-117885D01*
X-463722Y-118011D01*
X-463534Y-118324D01*
X-463157Y-119140D01*
X-462969Y-119454D01*
X-462906Y-119705D01*
X-462655Y-119956D01*
X-462686Y-120364D01*
X-466012Y-120427D01*
X-466106Y-120521D01*
X-466169Y-122906D01*
X-466106Y-123157D01*
X-465887Y-123251D01*
X-465040Y-123219D01*
X-464757Y-123251D01*
X-464663Y-123345D01*
X-464600Y-134641D01*
X-464695Y-134923D01*
X-467519Y-134986D01*
X-467644Y-134861D01*
X-467707Y-134547D01*
X-467675Y-123847D01*
X-467738Y-123659D01*
X-467675Y-123345D01*
X-467487Y-123219D01*
X-466640Y-123251D01*
X-466546Y-123157D01*
X-466483Y-121337D01*
Y-121274D01*
Y-120584D01*
X-466671Y-120395D01*
X-469903Y-120427D01*
X-469997Y-120333D01*
X-469872Y-120082D01*
X-469746Y-119768D01*
X-469558Y-119454D01*
X-469495Y-119329D01*
X-469370Y-119015D01*
X-469182Y-118701D01*
X-469056Y-118387D01*
X-468868Y-118073D01*
X-468742Y-117760D01*
X-468554Y-117446D01*
X-468491Y-117258D01*
X-466922Y-114183D01*
X-466828Y-114088D01*
X-466734Y-113743D01*
X-466483Y-113492D01*
X-466514Y-113147D01*
X-470092Y-113084D01*
X-470248Y-112928D01*
X-470154Y-112833D01*
X-466640Y-112771D01*
X-466546Y-112676D01*
X-466483Y-110480D01*
X-466577Y-110386D01*
X-475049Y-110323D01*
X-475238Y-110386D01*
X-475426Y-110323D01*
X-475520Y-110229D01*
X-475583Y-106213D01*
X-475489Y-105930D01*
X-461808Y-105867D01*
X-461651Y-105710D01*
X-461714Y-105020D01*
X-462090Y-104204D01*
X-462278Y-103891D01*
X-462529Y-103640D01*
X-462592Y-103514D01*
X-462875Y-103232D01*
X-463000Y-103169D01*
X-463565Y-102604D01*
X-463690Y-102541D01*
X-463879Y-102353D01*
X-464004Y-102290D01*
X-464318Y-101976D01*
X-464443Y-101914D01*
X-464695Y-101663D01*
X-464820Y-101600D01*
X-465008Y-101412D01*
X-465228Y-101255D01*
X-465291Y-101129D01*
X-465385Y-101098D01*
X-465699Y-100784D01*
X-465824Y-100721D01*
X-466075Y-100470D01*
X-466201Y-100408D01*
X-466640Y-99968D01*
X-466765Y-99906D01*
X-466891Y-99780D01*
X-467016Y-99717D01*
X-467048Y-99623D01*
X-467142Y-99592D01*
X-467456Y-99278D01*
X-467581Y-99215D01*
X-468083Y-98713D01*
X-468209Y-98651D01*
X-468460Y-98399D01*
X-468585Y-98337D01*
X-468836Y-98086D01*
X-468962Y-98023D01*
X-469213Y-97772D01*
X-469338Y-97709D01*
X-469841Y-97207D01*
X-469966Y-97144D01*
X-470280Y-96831D01*
X-470405Y-96768D01*
X-470468Y-96642D01*
X-470782Y-96454D01*
X-470970Y-96266D01*
X-471096Y-96203D01*
X-471409Y-95889D01*
X-471535Y-95827D01*
X-471598Y-95701D01*
X-471723Y-95638D01*
X-472037Y-95324D01*
X-472162Y-95262D01*
X-472602Y-94822D01*
X-472727Y-94760D01*
X-473041Y-94446D01*
X-473167Y-94383D01*
X-474014Y-93536D01*
X-474076Y-93410D01*
X-474202Y-93285D01*
X-474390Y-92971D01*
X-474516Y-92845D01*
X-474704Y-92532D01*
X-474861Y-92375D01*
X-474955Y-92030D01*
X-475175Y-91622D01*
X-475269Y-91214D01*
X-475394Y-90900D01*
X-475457Y-90649D01*
X-475520Y-90461D01*
X-475583Y-84562D01*
X-475489Y-84279D01*
X-457603Y-84217D01*
X-457352Y-84279D01*
D02*
G37*
G36*
X-480760Y-123690D02*
X-480478Y-123973D01*
X-480415Y-126044D01*
X-480603Y-126232D01*
X-481105Y-126420D01*
X-481890Y-126389D01*
X-482141Y-126326D01*
X-482360Y-126106D01*
X-482423Y-125290D01*
Y-124098D01*
X-482298Y-123973D01*
X-482235Y-123847D01*
X-482078Y-123690D01*
X-481199Y-123627D01*
X-480760Y-123690D01*
D02*
G37*
G36*
X-480352Y-126859D02*
X-480383Y-126953D01*
X-480446Y-128020D01*
X-480572Y-128083D01*
X-480666Y-128177D01*
X-480729Y-128365D01*
X-480634Y-128460D01*
X-480509Y-128522D01*
X-480321Y-128836D01*
X-480007Y-128899D01*
X-479850Y-129056D01*
X-479787Y-129495D01*
X-479881Y-129589D01*
X-480258Y-129652D01*
X-480352Y-129746D01*
X-480446Y-129966D01*
X-480415Y-132131D01*
X-480634Y-132350D01*
X-480760Y-132413D01*
X-480854Y-132507D01*
X-480917Y-132633D01*
X-480697Y-132852D01*
X-480572Y-132915D01*
X-480478Y-133009D01*
X-480383Y-133229D01*
X-480415Y-134892D01*
X-480478Y-135143D01*
X-480634Y-135300D01*
X-481952Y-135363D01*
X-482141Y-135300D01*
X-482203D01*
X-482360Y-135080D01*
X-482423Y-132947D01*
X-482329Y-132852D01*
X-482078Y-132790D01*
X-481984Y-132884D01*
X-481921Y-134327D01*
X-481827Y-134672D01*
X-481670Y-134641D01*
X-481544Y-134264D01*
X-481576Y-134045D01*
X-481544Y-133198D01*
X-481450Y-132915D01*
X-481325Y-132852D01*
X-481168Y-132696D01*
X-481199Y-132601D01*
X-481827Y-132539D01*
X-482015Y-132476D01*
X-482141Y-132413D01*
X-482360Y-132193D01*
X-482423Y-130185D01*
X-482329Y-130091D01*
X-482015Y-130028D01*
X-481921Y-130123D01*
X-481858Y-131692D01*
X-481764Y-131786D01*
X-481042Y-131754D01*
X-480980Y-130813D01*
X-480917Y-129997D01*
X-481011Y-129715D01*
X-481952Y-129652D01*
X-482392Y-129589D01*
X-482486Y-129369D01*
X-482360Y-128930D01*
X-481074Y-128899D01*
X-480980Y-128805D01*
X-480917Y-128554D01*
X-481011Y-128460D01*
X-482141Y-128397D01*
X-482423Y-128303D01*
X-482392Y-127706D01*
X-481137Y-127644D01*
X-481042Y-127550D01*
X-480980Y-126797D01*
X-480886Y-126702D01*
X-480509Y-126640D01*
X-480352Y-126859D01*
D02*
G37*
G36*
X-479819Y-135739D02*
X-479787Y-136273D01*
X-479913Y-136587D01*
X-479850Y-136775D01*
X-479787Y-139975D01*
Y-140101D01*
X-479850Y-140352D01*
X-479944Y-140446D01*
X-480070Y-140509D01*
X-480195Y-140634D01*
X-481576Y-140697D01*
X-482015Y-140634D01*
X-482141Y-140509D01*
X-482266Y-140446D01*
X-482360Y-140352D01*
X-482423Y-137026D01*
X-482298Y-136587D01*
X-482360Y-136398D01*
X-482423Y-136273D01*
X-482486Y-136084D01*
X-482392Y-135802D01*
X-480697Y-135739D01*
X-480070Y-135676D01*
X-479819Y-135739D01*
D02*
G37*
G36*
X-471033Y-114591D02*
X-470876Y-114747D01*
X-470907Y-115092D01*
X-470876Y-135708D01*
X-470656Y-136241D01*
X-461933Y-136304D01*
X-461682Y-136241D01*
X-461400Y-135959D01*
X-461337Y-115124D01*
X-461400Y-114936D01*
X-461306Y-114653D01*
X-457289Y-114591D01*
X-457007Y-114685D01*
X-456944Y-116003D01*
Y-116065D01*
Y-134390D01*
X-457007Y-136335D01*
X-457101Y-136681D01*
X-457195Y-137528D01*
X-457258Y-137779D01*
X-457352Y-138061D01*
X-457509Y-138469D01*
X-457823Y-139159D01*
X-458011Y-139348D01*
X-458074Y-139473D01*
X-458262Y-139662D01*
X-458325Y-139787D01*
X-458482Y-139944D01*
X-458921Y-140195D01*
X-459172Y-140446D01*
X-459548Y-140509D01*
X-459737Y-140697D01*
X-459988Y-140760D01*
X-460427Y-140822D01*
X-460615Y-140885D01*
X-470970Y-140948D01*
X-471409Y-140885D01*
X-471660Y-140822D01*
X-472288Y-140760D01*
X-472853Y-140509D01*
X-473167Y-140383D01*
X-473292Y-140258D01*
X-473480Y-140195D01*
X-474139Y-139536D01*
X-474390Y-139097D01*
X-474579Y-138908D01*
X-474641Y-138657D01*
X-474767Y-138344D01*
X-474861Y-138250D01*
X-474955Y-137779D01*
X-475143Y-137151D01*
X-475206Y-136963D01*
X-475269Y-114873D01*
X-475175Y-114591D01*
X-471284Y-114528D01*
X-471033Y-114591D01*
D02*
G37*
G36*
X411966Y-279286D02*
X412381Y-279320D01*
X412554Y-279355D01*
X412882Y-279407D01*
X413055Y-279476D01*
X413107Y-279528D01*
X413297Y-279580D01*
X413366Y-279649D01*
X413608Y-279787D01*
X413712Y-279891D01*
X413781Y-279925D01*
X413919Y-280064D01*
X414092Y-280271D01*
X414248Y-280461D01*
X414282Y-280530D01*
X414386Y-280634D01*
X414421Y-280772D01*
X414524Y-280876D01*
X414559Y-281014D01*
X414663Y-281256D01*
X414697Y-281395D01*
X414732Y-281498D01*
X414767Y-292769D01*
Y-292803D01*
Y-305526D01*
X414732Y-305768D01*
X414697Y-306114D01*
X414611Y-306304D01*
X414559Y-306494D01*
X414490Y-306667D01*
X414421Y-306736D01*
X414386Y-306874D01*
X414317Y-306943D01*
X414213Y-307116D01*
X413747Y-307583D01*
X413677Y-307618D01*
X413608Y-307687D01*
X413366Y-307825D01*
X413297Y-307894D01*
X413124Y-307963D01*
X412900Y-308084D01*
X412554Y-308153D01*
X412329Y-308205D01*
X412225Y-308240D01*
X400281Y-308223D01*
X400108Y-308188D01*
X399710Y-308102D01*
X399399Y-307963D01*
X399226Y-307894D01*
X398984Y-307756D01*
X398881Y-307652D01*
X398811Y-307618D01*
X398448Y-307255D01*
X398414Y-307185D01*
X398362Y-307168D01*
X398310Y-307082D01*
X398275Y-307013D01*
X398206Y-306943D01*
X397964Y-306494D01*
X397930Y-306356D01*
X397843Y-306166D01*
X397809Y-305993D01*
X397774Y-305647D01*
X397740Y-298249D01*
X397757Y-282328D01*
X397791Y-281567D01*
X397826Y-281429D01*
X397878Y-281239D01*
X397947Y-281066D01*
X397999Y-280876D01*
X398103Y-280772D01*
X398137Y-280634D01*
X398206Y-280565D01*
X398310Y-280392D01*
X398414Y-280288D01*
X398448Y-280219D01*
X398708Y-279960D01*
X398777Y-279925D01*
X398915Y-279787D01*
X399088Y-279718D01*
X399192Y-279614D01*
X399365Y-279545D01*
X399589Y-279424D01*
X399918Y-279372D01*
X400021Y-279338D01*
X400471Y-279303D01*
X400575Y-279268D01*
X411966Y-279286D01*
D02*
G37*
G36*
X411932Y-314791D02*
X412070Y-314826D01*
X412295Y-314912D01*
X412675Y-315085D01*
X412813Y-315224D01*
X412882Y-315258D01*
X413003Y-315379D01*
X413038Y-315448D01*
X413142Y-315552D01*
X413280Y-315794D01*
X413349Y-315863D01*
X413401Y-315984D01*
X413453Y-316209D01*
X413522Y-316278D01*
X413557Y-317246D01*
X413522Y-317384D01*
X413470Y-317540D01*
X413349Y-317868D01*
X413280Y-317937D01*
X413245Y-318007D01*
X412986Y-318266D01*
X412917Y-318300D01*
X412900Y-318352D01*
X412779Y-318404D01*
X412571Y-318542D01*
X412398Y-318577D01*
X412156Y-318681D01*
X411361Y-318715D01*
X411067Y-318629D01*
X410877Y-318577D01*
X410428Y-318370D01*
X410393Y-318300D01*
X410324Y-318266D01*
X410065Y-318007D01*
X410030Y-317937D01*
X410013Y-317920D01*
X409978D01*
X409926Y-317834D01*
X409892Y-317730D01*
X409805Y-317644D01*
X409719Y-317419D01*
X409615Y-317177D01*
X409581Y-316174D01*
X409650Y-315898D01*
X409753Y-315656D01*
X409892Y-315448D01*
X409926Y-315379D01*
X410047Y-315258D01*
X410117Y-315224D01*
X410220Y-315120D01*
X410601Y-314912D01*
X410843Y-314843D01*
X411015Y-314774D01*
X411932Y-314791D01*
D02*
G37*
G36*
X478621Y-314204D02*
X479538Y-314256D01*
X480022Y-314325D01*
X480212Y-314377D01*
X480575Y-314428D01*
X480713Y-314463D01*
X480869Y-314515D01*
X481232Y-314601D01*
X481387Y-314653D01*
X481612Y-314739D01*
X481750Y-314774D01*
X481923Y-314843D01*
X482303Y-314981D01*
X482373Y-315051D01*
X482511Y-315085D01*
X482684Y-315154D01*
X482735Y-315206D01*
X482960Y-315293D01*
X483029Y-315362D01*
X483098Y-315396D01*
X483271Y-315466D01*
X483513Y-315604D01*
X483582Y-315673D01*
X484067Y-315949D01*
X484170Y-316053D01*
X484239Y-316088D01*
X484309Y-316157D01*
X484481Y-316261D01*
X484585Y-316364D01*
X484654Y-316399D01*
X484793Y-316537D01*
X484862Y-316572D01*
X485034Y-316745D01*
X485104Y-316779D01*
X485138Y-316848D01*
X485207Y-316883D01*
X485882Y-317557D01*
X485916Y-317626D01*
X486020Y-317730D01*
X486106Y-317851D01*
X486279Y-318058D01*
X486435Y-318249D01*
X486469Y-318318D01*
X486538Y-318387D01*
X486573Y-318456D01*
X486642Y-318525D01*
X486815Y-318767D01*
X486919Y-318940D01*
X486988Y-319009D01*
X487264Y-319493D01*
X487334Y-319562D01*
X487748Y-320358D01*
X487852Y-320530D01*
X487887Y-320600D01*
X488060Y-320980D01*
X488094Y-321118D01*
X488232Y-321429D01*
X488354Y-321723D01*
X488405Y-321913D01*
X488440Y-322052D01*
X488526Y-322242D01*
X488578Y-322466D01*
X488630Y-322622D01*
X488699Y-322795D01*
X488751Y-323123D01*
X488786Y-323262D01*
X488838Y-323452D01*
X488872Y-323590D01*
X488924Y-323988D01*
X488959Y-324126D01*
X488993Y-324368D01*
X489028Y-324472D01*
X489062Y-327410D01*
X489010Y-327877D01*
X488941Y-328153D01*
X488889Y-328517D01*
X488803Y-328810D01*
X488716Y-329173D01*
X488630Y-329364D01*
X488578Y-329554D01*
X488475Y-329796D01*
X488405Y-329969D01*
X488371Y-330107D01*
X488302Y-330176D01*
X488198Y-330453D01*
X488094Y-330556D01*
X488060Y-330695D01*
X487990Y-330764D01*
X487956Y-330833D01*
X487714Y-331213D01*
X487679Y-331282D01*
X487610Y-331352D01*
X487576Y-331421D01*
X487437Y-331559D01*
X487403Y-331628D01*
X487264Y-331766D01*
X487230Y-331836D01*
X486625Y-332440D01*
X486556Y-332475D01*
X486383Y-332648D01*
X486314Y-332682D01*
X486210Y-332786D01*
X486141Y-332821D01*
X485760Y-333063D01*
X485449Y-333236D01*
X485397Y-333288D01*
X485173Y-333374D01*
X485086Y-333460D01*
X484896Y-333512D01*
X484672Y-333633D01*
X484481Y-333685D01*
X484188Y-333806D01*
X483842Y-333875D01*
X483669Y-333944D01*
X483531Y-333979D01*
X482960Y-334031D01*
X482856Y-334065D01*
X482165Y-334100D01*
X482061Y-334134D01*
X481301Y-334100D01*
X480748Y-334065D01*
X480609Y-334031D01*
X480056Y-333996D01*
X480022D01*
X479918Y-333962D01*
X479572Y-333858D01*
X479330Y-333823D01*
X479174Y-333772D01*
X478950Y-333685D01*
X478811Y-333651D01*
X478466Y-333512D01*
X478224Y-333409D01*
X477878Y-333270D01*
X477809Y-333201D01*
X477671Y-333167D01*
X477463Y-333028D01*
X477325Y-332994D01*
X477221Y-332890D01*
X477048Y-332821D01*
X476945Y-332717D01*
X476841Y-332682D01*
X476772Y-332613D01*
X476582Y-332492D01*
X476391Y-332337D01*
X476322Y-332302D01*
X476219Y-332198D01*
X476149Y-332164D01*
X475873Y-331887D01*
X475804Y-331853D01*
X475475Y-331524D01*
X475441Y-331455D01*
X475199Y-331213D01*
X475112Y-331092D01*
X474957Y-330902D01*
X474922Y-330833D01*
X474870Y-330816D01*
X474576Y-330349D01*
X474403Y-330038D01*
X474300Y-329865D01*
X474127Y-329485D01*
X474006Y-329191D01*
X473954Y-328931D01*
X473850Y-328689D01*
X473816Y-328378D01*
X473781Y-328274D01*
X473747Y-327237D01*
X473816Y-326477D01*
X473850Y-326339D01*
X473919Y-326166D01*
X473954Y-326062D01*
X473902Y-325941D01*
X473591Y-325906D01*
X473142Y-325872D01*
X472969Y-325803D01*
X472796Y-325699D01*
X472623Y-325526D01*
X472554Y-325491D01*
X472398Y-325267D01*
X472295Y-325094D01*
X472225Y-325025D01*
X472053Y-324714D01*
X472001Y-324593D01*
X471949Y-324403D01*
X471862Y-324212D01*
X471811Y-323953D01*
X471776Y-323849D01*
X471741Y-323296D01*
X471776Y-323054D01*
X471862Y-322864D01*
X471932Y-322829D01*
X472035Y-322726D01*
X472381Y-322691D01*
X472485Y-322657D01*
X473557Y-322691D01*
X477947Y-322726D01*
X478500Y-322760D01*
X479157Y-322795D01*
X479296Y-322829D01*
X479641Y-322864D01*
X480194Y-322898D01*
X480333Y-322933D01*
X480488Y-323019D01*
X480678Y-323071D01*
X480782Y-323175D01*
X480851Y-323210D01*
X481180Y-323538D01*
X481318Y-323780D01*
X481404Y-323901D01*
X481456Y-324126D01*
X481491Y-324230D01*
X481525Y-324748D01*
X481491Y-324886D01*
X481404Y-325180D01*
X481335Y-325215D01*
X481232Y-325319D01*
X481111Y-325370D01*
X480903Y-325405D01*
X480765Y-325440D01*
X480540Y-325491D01*
X480298Y-325526D01*
X479745Y-325561D01*
X479399Y-325595D01*
X479157Y-325630D01*
X478881Y-325699D01*
X478535Y-325733D01*
X478241Y-325820D01*
X478016Y-325872D01*
X477878Y-325906D01*
X477567Y-326045D01*
X477429Y-326079D01*
X477360Y-326148D01*
X477256Y-326183D01*
X477014Y-326356D01*
X476945Y-326390D01*
X476806Y-326529D01*
X476685Y-326615D01*
X476651Y-326684D01*
X476582Y-326753D01*
X476305Y-327272D01*
X476270Y-327790D01*
X476236Y-327894D01*
X476270Y-328067D01*
X476305Y-328517D01*
X476409Y-328759D01*
X476478Y-328931D01*
X476616Y-329139D01*
X476651Y-329208D01*
X476754Y-329312D01*
X476789Y-329381D01*
X476910Y-329502D01*
X476979Y-329536D01*
X477083Y-329640D01*
X477394Y-329882D01*
X477463Y-329917D01*
X477532Y-329986D01*
X477705Y-330055D01*
X477774Y-330124D01*
X477947Y-330193D01*
X478172Y-330314D01*
X478362Y-330366D01*
X478552Y-330453D01*
X478915Y-330539D01*
X479209Y-330625D01*
X479382Y-330660D01*
X479987Y-330712D01*
X480091Y-330746D01*
X481214Y-330729D01*
X481888Y-330677D01*
X482027Y-330643D01*
X482217Y-330591D01*
X482753Y-330470D01*
X482805Y-330418D01*
X482995Y-330366D01*
X483375Y-330193D01*
X483548Y-330124D01*
X483859Y-329951D01*
X484032Y-329848D01*
X484101Y-329778D01*
X484274Y-329675D01*
X484378Y-329571D01*
X484447Y-329536D01*
X484620Y-329364D01*
X484689Y-329329D01*
X484758Y-329225D01*
X484827Y-329191D01*
X484879Y-329139D01*
X484965Y-329018D01*
X485034Y-328983D01*
X485052Y-328931D01*
X485155Y-328828D01*
X485259Y-328655D01*
X485328Y-328586D01*
X485432Y-328413D01*
X485501Y-328344D01*
X485639Y-328102D01*
X485812Y-327790D01*
X485899Y-327669D01*
X485951Y-327445D01*
X486003Y-327393D01*
X486089Y-327168D01*
X486141Y-326978D01*
X486210Y-326805D01*
X486262Y-326546D01*
X486296Y-326408D01*
X486348Y-326217D01*
X486383Y-326079D01*
X486417Y-325733D01*
X486452Y-325353D01*
X486487Y-324696D01*
X486469Y-324472D01*
X486435Y-323815D01*
X486400Y-323365D01*
X486366Y-323123D01*
X486262Y-322708D01*
X486227Y-322466D01*
X486141Y-322242D01*
X486089Y-322017D01*
X486020Y-321775D01*
X485968Y-321723D01*
X485916Y-321533D01*
X485743Y-321153D01*
X485709Y-321014D01*
X485622Y-320928D01*
X485570Y-320738D01*
X485501Y-320669D01*
X485363Y-320427D01*
X485259Y-320254D01*
X485086Y-320012D01*
X485052Y-319943D01*
X484948Y-319839D01*
X484913Y-319770D01*
X484637Y-319493D01*
X484602Y-319424D01*
X484551Y-319372D01*
X484481Y-319338D01*
X484447Y-319268D01*
X484378Y-319234D01*
X484205Y-319061D01*
X484136Y-319027D01*
X484101Y-318957D01*
X484032Y-318923D01*
X483928Y-318819D01*
X483755Y-318715D01*
X483686Y-318646D01*
X483513Y-318542D01*
X483444Y-318473D01*
X483375Y-318439D01*
X483116Y-318283D01*
X482891Y-318197D01*
X482822Y-318128D01*
X482649Y-318058D01*
X482355Y-317937D01*
X482131Y-317886D01*
X481906Y-317799D01*
X481767Y-317765D01*
X481404Y-317713D01*
X481266Y-317678D01*
X481162Y-317644D01*
X480748Y-317609D01*
X480644Y-317574D01*
X479347Y-317592D01*
X479036Y-317626D01*
X478760Y-317695D01*
X478397Y-317747D01*
X478258Y-317782D01*
X478016Y-317886D01*
X477809Y-317920D01*
X477498Y-318058D01*
X476910Y-318335D01*
X476668Y-318473D01*
X476495Y-318577D01*
X476288Y-318715D01*
X475665Y-318750D01*
X475527Y-318715D01*
X475147Y-318542D01*
X475043Y-318439D01*
X474974Y-318404D01*
X474646Y-318076D01*
X474559Y-317955D01*
X474403Y-317765D01*
X474231Y-317453D01*
X474179Y-317402D01*
X474127Y-317211D01*
X474023Y-316969D01*
X473989Y-316693D01*
X473954Y-316589D01*
X473989Y-316070D01*
X474075Y-315880D01*
X474127Y-315690D01*
X474300Y-315448D01*
X474334Y-315379D01*
X474490Y-315224D01*
X474801Y-314981D01*
X474974Y-314878D01*
X475216Y-314739D01*
X475510Y-314618D01*
X475700Y-314567D01*
X475890Y-314480D01*
X476080Y-314428D01*
X476322Y-314394D01*
X476495Y-314325D01*
X476772Y-314290D01*
X476875Y-314256D01*
X477878Y-314221D01*
X477982Y-314186D01*
X478621Y-314204D01*
D02*
G37*
G36*
X468440Y-321585D02*
X468630Y-321637D01*
X468855Y-321723D01*
X469304Y-321931D01*
X469546Y-322069D01*
X469650Y-322173D01*
X469719Y-322207D01*
X469892Y-322380D01*
X469961Y-322415D01*
X469978Y-322466D01*
X470220Y-322708D01*
X470359Y-322950D01*
X470462Y-323054D01*
X470497Y-323262D01*
X470566Y-323434D01*
X470549Y-323763D01*
X470462Y-323988D01*
X470359Y-324091D01*
X470324Y-324160D01*
X470272Y-324178D01*
X470203Y-324247D01*
X469961Y-324420D01*
X469719Y-324558D01*
X469650Y-324627D01*
X469581Y-324662D01*
X469442Y-324800D01*
X469287Y-324990D01*
X469149Y-325232D01*
X469114Y-325370D01*
X469010Y-325612D01*
X468976Y-326615D01*
X469010Y-326857D01*
X469045Y-327203D01*
X469097Y-327393D01*
X469149Y-327652D01*
X469183Y-327894D01*
X469287Y-328136D01*
X469321Y-328413D01*
X469391Y-328689D01*
X469460Y-328862D01*
X469494Y-329243D01*
X469529Y-329381D01*
X469563Y-329623D01*
X469598Y-329727D01*
X469633Y-331144D01*
X469598Y-331490D01*
X469494Y-331905D01*
X469460Y-332147D01*
X469321Y-332458D01*
X469114Y-332907D01*
X469045Y-332976D01*
X469010Y-333046D01*
X468872Y-333184D01*
X468837Y-333253D01*
X468751Y-333339D01*
X468682Y-333374D01*
X468665Y-333426D01*
X468544Y-333512D01*
X468474Y-333547D01*
X468457Y-333599D01*
X468232Y-333720D01*
X468060Y-333823D01*
X467697Y-333979D01*
X467368Y-334031D01*
X467264Y-334065D01*
X466746Y-334100D01*
X466642Y-334134D01*
X466210Y-334117D01*
X465864Y-334083D01*
X465155Y-333996D01*
X464913Y-333893D01*
X464775Y-333858D01*
X464464Y-333720D01*
X464395Y-333685D01*
X464222Y-333616D01*
X463911Y-333443D01*
X463738Y-333339D01*
X463669Y-333270D01*
X463496Y-333167D01*
X463358Y-333028D01*
X463289Y-332994D01*
X463150Y-332855D01*
X463081Y-332821D01*
X463012Y-332717D01*
X462943Y-332682D01*
X462891Y-332631D01*
X462856Y-332561D01*
X462614Y-332319D01*
X462528Y-332198D01*
X462372Y-332008D01*
X462338Y-331939D01*
X462200Y-331801D01*
Y-331766D01*
X462182Y-331749D01*
X461958Y-331421D01*
X461819Y-331179D01*
X461733Y-331092D01*
X461646Y-330867D01*
X461560Y-330781D01*
X461474Y-330556D01*
X461404Y-330487D01*
X461301Y-330211D01*
X461249Y-330159D01*
X461162Y-329934D01*
X461059Y-329761D01*
X461024Y-329519D01*
X460972Y-329467D01*
X460868Y-329433D01*
X460834Y-329536D01*
X460851Y-330245D01*
X460886Y-330349D01*
X460868Y-331300D01*
X460834Y-331887D01*
X460799Y-332060D01*
X460765Y-332198D01*
X460713Y-332389D01*
X460644Y-332665D01*
X460436Y-333115D01*
X460333Y-333288D01*
X459970Y-333651D01*
X459866Y-333685D01*
X459762Y-333789D01*
X459589Y-333858D01*
X459434Y-333910D01*
X459261Y-333979D01*
X458708Y-334013D01*
X458137Y-333996D01*
X457999Y-333962D01*
X457826Y-333893D01*
X457688Y-333858D01*
X457515Y-333789D01*
X457273Y-333651D01*
X457169Y-333547D01*
X457100Y-333512D01*
X457048Y-333460D01*
X457014Y-333391D01*
X456945Y-333357D01*
X456910Y-333288D01*
X456806Y-333184D01*
X456668Y-332942D01*
X456599Y-332873D01*
X456564Y-332803D01*
X456391Y-332423D01*
X456357Y-331663D01*
X456426Y-331421D01*
X456547Y-331334D01*
X456616Y-331300D01*
X456685Y-331231D01*
X456893Y-331196D01*
X457031Y-331161D01*
X457342Y-331023D01*
X457515Y-330954D01*
X457757Y-330816D01*
X458016Y-330556D01*
X458051Y-330487D01*
X458120Y-330418D01*
X458258Y-330176D01*
X458362Y-330003D01*
X458397Y-329865D01*
X458500Y-329623D01*
X458535Y-329346D01*
X458569Y-329208D01*
X458604Y-328966D01*
X458639Y-328862D01*
X458673Y-328032D01*
X458639Y-327479D01*
X458604Y-327237D01*
X458552Y-326771D01*
X458518Y-326356D01*
X458483Y-326079D01*
X458448Y-325906D01*
X458414Y-325768D01*
X458362Y-325440D01*
X458327Y-325198D01*
X458276Y-325008D01*
X458224Y-324748D01*
X458189Y-324610D01*
X458155Y-324368D01*
X458086Y-324195D01*
X458051Y-324057D01*
X458016Y-323815D01*
X457930Y-323521D01*
X457844Y-323158D01*
X457757Y-322933D01*
X457688Y-322553D01*
X457636Y-322224D01*
X457671Y-321982D01*
X457757Y-321792D01*
X457999Y-321654D01*
X458068Y-321585D01*
X458863Y-321550D01*
X459209Y-321585D01*
X459365Y-321637D01*
X459589Y-321723D01*
X459762Y-321792D01*
X459935Y-321896D01*
X460039Y-322000D01*
X460108Y-322034D01*
X460194Y-322121D01*
X460436Y-322432D01*
X460678Y-322881D01*
X460713Y-323019D01*
X460782Y-323192D01*
X460817Y-323400D01*
X460851Y-323504D01*
X460886Y-324679D01*
X460851Y-325129D01*
X460886Y-325267D01*
X460989Y-325509D01*
X461024Y-325716D01*
X461162Y-326027D01*
X461197Y-326235D01*
X461283Y-326425D01*
X461370Y-326650D01*
X461439Y-326823D01*
X461577Y-327203D01*
X461646Y-327272D01*
X461681Y-327410D01*
X461802Y-327635D01*
X461888Y-327860D01*
X461958Y-327929D01*
X461992Y-327998D01*
X462061Y-328171D01*
X462130Y-328240D01*
X462200Y-328413D01*
X462269Y-328482D01*
X462407Y-328724D01*
X462528Y-328914D01*
X462684Y-329104D01*
X462718Y-329173D01*
X462822Y-329277D01*
X462856Y-329346D01*
X462995Y-329485D01*
X463029Y-329554D01*
X463427Y-329951D01*
X463496Y-329986D01*
X463600Y-330090D01*
X463721Y-330176D01*
X464049Y-330401D01*
X464430Y-330608D01*
X464551Y-330660D01*
X464775Y-330712D01*
X464948Y-330781D01*
X465778Y-330816D01*
X466331Y-330643D01*
X466400Y-330574D01*
X466469Y-330539D01*
X466538Y-330470D01*
X466694Y-330280D01*
X466832Y-330038D01*
X466867Y-329899D01*
X466901Y-329796D01*
X466936Y-329485D01*
X466970Y-329381D01*
X466919Y-328810D01*
X466832Y-328274D01*
X466798Y-328032D01*
X466711Y-327739D01*
X466659Y-327410D01*
X466625Y-327272D01*
X466538Y-326978D01*
X466469Y-326529D01*
X466366Y-326114D01*
X466314Y-325509D01*
X466279Y-325405D01*
X466210Y-324437D01*
X466245Y-323780D01*
X466314Y-323365D01*
X466348Y-323019D01*
X466400Y-322829D01*
X466487Y-322605D01*
X466694Y-322155D01*
X466798Y-322052D01*
X466832Y-321982D01*
X466884Y-321931D01*
X466953Y-321896D01*
X467022Y-321827D01*
X467264Y-321688D01*
X467437Y-321585D01*
X468198Y-321550D01*
X468440Y-321585D01*
D02*
G37*
G36*
X356443Y-314204D02*
X357325Y-314256D01*
X357791Y-314307D01*
X358068Y-314377D01*
X358517Y-314446D01*
X358656Y-314480D01*
X358829Y-314549D01*
X359123Y-314601D01*
X359313Y-314688D01*
X359503Y-314739D01*
X359814Y-314878D01*
X359952Y-314912D01*
X360332Y-315085D01*
X360505Y-315154D01*
X361093Y-315466D01*
X361266Y-315569D01*
X361646Y-315811D01*
X361888Y-315949D01*
X361992Y-316053D01*
X362061Y-316088D01*
X362130Y-316157D01*
X362303Y-316261D01*
X362407Y-316364D01*
X362476Y-316399D01*
X362614Y-316537D01*
X362683Y-316572D01*
X362856Y-316745D01*
X362925Y-316779D01*
X362960Y-316848D01*
X363029Y-316883D01*
X363479Y-317332D01*
X363651Y-317540D01*
X363721Y-317574D01*
X363738Y-317626D01*
X363911Y-317799D01*
X363945Y-317868D01*
X364084Y-318007D01*
X364118Y-318076D01*
X364187Y-318145D01*
X364291Y-318318D01*
X364395Y-318421D01*
X364429Y-318491D01*
X364498Y-318560D01*
X364619Y-318750D01*
X364844Y-319078D01*
X364982Y-319320D01*
X365086Y-319424D01*
X365121Y-319562D01*
X365190Y-319632D01*
X365709Y-320634D01*
X365778Y-320807D01*
X365812Y-320945D01*
X365881Y-321014D01*
X365916Y-321153D01*
X366072Y-321516D01*
X366123Y-321706D01*
X366210Y-321896D01*
X366296Y-322259D01*
X366383Y-322449D01*
X366435Y-322674D01*
X366469Y-322812D01*
X366555Y-323106D01*
X366607Y-323469D01*
X366642Y-323607D01*
X366694Y-323797D01*
X366728Y-323936D01*
X366763Y-324281D01*
X366797Y-324696D01*
X366832Y-324904D01*
X366884Y-325405D01*
X366918Y-326166D01*
X366884Y-327030D01*
X366780Y-327756D01*
X366746Y-328205D01*
X366711Y-328344D01*
X366659Y-328534D01*
X366625Y-328672D01*
X366573Y-329001D01*
X366486Y-329191D01*
X366400Y-329588D01*
X366348Y-329640D01*
X366279Y-329813D01*
X366227Y-330038D01*
X366158Y-330107D01*
X366089Y-330280D01*
X366054Y-330383D01*
X365743Y-330971D01*
X365674Y-331040D01*
X365536Y-331282D01*
X365432Y-331455D01*
X365294Y-331594D01*
X365259Y-331663D01*
X365155Y-331766D01*
X365121Y-331836D01*
X364948Y-332008D01*
X364913Y-332077D01*
X364550Y-332440D01*
X364481Y-332475D01*
X364429Y-332527D01*
X364239Y-332682D01*
X364170Y-332717D01*
X364066Y-332821D01*
X363997Y-332855D01*
X363894Y-332959D01*
X363409Y-333236D01*
X363358Y-333288D01*
X363133Y-333374D01*
X363064Y-333443D01*
X362995Y-333478D01*
X362683Y-333616D01*
X362614Y-333651D01*
X362476Y-333685D01*
X362182Y-333806D01*
X361836Y-333875D01*
X361664Y-333944D01*
X361525Y-333979D01*
X360955Y-334031D01*
X360851Y-334065D01*
X360194Y-334100D01*
X360090Y-334134D01*
X359555Y-334117D01*
X358932Y-334083D01*
X358656Y-334048D01*
X358016Y-333996D01*
X357619Y-333875D01*
X357325Y-333823D01*
X357186Y-333789D01*
X356996Y-333702D01*
X356823Y-333668D01*
X356633Y-333616D01*
X356581Y-333564D01*
X356391Y-333512D01*
X356011Y-333339D01*
X355492Y-333097D01*
X355181Y-332924D01*
X354939Y-332786D01*
X354766Y-332682D01*
X354697Y-332613D01*
X354524Y-332510D01*
X354455Y-332440D01*
X354282Y-332337D01*
X354144Y-332198D01*
X354075Y-332164D01*
X353798Y-331887D01*
X353729Y-331853D01*
X353677Y-331801D01*
X353643Y-331732D01*
X353539Y-331663D01*
X353504Y-331594D01*
X353332Y-331421D01*
X353297Y-331352D01*
X353193Y-331248D01*
X353159Y-331179D01*
X353090Y-331109D01*
X352951Y-330867D01*
X352865Y-330781D01*
X352779Y-330556D01*
X352709Y-330487D01*
X352675Y-330383D01*
X352537Y-330072D01*
X352502Y-329899D01*
X352467Y-329796D01*
X352433Y-329450D01*
X352398Y-329346D01*
X352433Y-329243D01*
X352467Y-329001D01*
X352537Y-328724D01*
X352606Y-328655D01*
X352640Y-328586D01*
X352796Y-328499D01*
X352865Y-328430D01*
X353176Y-328396D01*
X353401Y-328482D01*
X353591Y-328534D01*
X353660Y-328603D01*
X353833Y-328707D01*
X353971Y-328845D01*
X354040Y-328880D01*
X354282Y-329122D01*
X354300Y-329139D01*
X354403Y-329208D01*
X354836Y-329536D01*
X354905Y-329571D01*
X354974Y-329640D01*
X355458Y-329917D01*
X355579Y-330003D01*
X355769Y-330055D01*
X355838Y-330124D01*
X356011Y-330193D01*
X356201Y-330280D01*
X356426Y-330366D01*
X356720Y-330487D01*
X357014Y-330539D01*
X357256Y-330643D01*
X357843Y-330712D01*
X357947Y-330746D01*
X358500Y-330781D01*
X358638Y-330816D01*
X359088Y-330781D01*
X360073Y-330660D01*
X360211Y-330625D01*
X360436Y-330539D01*
X360574Y-330504D01*
X360816Y-330401D01*
X360955Y-330366D01*
X361128Y-330297D01*
X361439Y-330124D01*
X361612Y-330020D01*
X361819Y-329882D01*
X361888Y-329848D01*
X361992Y-329744D01*
X362061Y-329709D01*
X362165Y-329606D01*
X362234Y-329571D01*
X362441Y-329364D01*
X362511Y-329329D01*
X362562Y-329277D01*
X362597Y-329208D01*
X362770Y-329035D01*
X362804Y-328966D01*
X362856Y-328914D01*
X363012Y-328724D01*
X363185Y-328482D01*
X363323Y-328240D01*
X363496Y-327929D01*
X363565Y-327860D01*
X363600Y-327790D01*
X363634Y-327652D01*
X363755Y-327427D01*
X363807Y-327203D01*
X363859Y-327151D01*
X363928Y-326978D01*
X363963Y-326771D01*
X363997Y-326632D01*
X364066Y-326460D01*
X364118Y-326235D01*
X364153Y-325889D01*
X364187Y-325751D01*
X364222Y-325647D01*
X364256Y-324022D01*
X364205Y-323555D01*
X364170Y-323383D01*
X364118Y-323054D01*
X364084Y-322812D01*
X364049Y-322674D01*
X363980Y-322501D01*
X363945Y-322259D01*
X363859Y-322034D01*
X363790Y-321861D01*
X363738Y-321637D01*
X363686Y-321585D01*
X363600Y-321360D01*
X363479Y-321135D01*
X363427Y-320945D01*
X363340Y-320859D01*
X363254Y-320634D01*
X363150Y-320530D01*
X363116Y-320427D01*
X363046Y-320358D01*
X362908Y-320116D01*
X362804Y-320012D01*
X362770Y-319943D01*
X362632Y-319804D01*
X362597Y-319735D01*
X361957Y-319096D01*
X361888Y-319061D01*
X361750Y-318923D01*
X361681Y-318888D01*
X361612Y-318819D01*
X361439Y-318715D01*
X361370Y-318646D01*
X361197Y-318542D01*
X361128Y-318473D01*
X361059Y-318439D01*
X360799Y-318283D01*
X360574Y-318197D01*
X360523Y-318145D01*
X360298Y-318058D01*
X360160Y-318024D01*
X360090Y-317955D01*
X359779Y-317886D01*
X359555Y-317799D01*
X359053Y-317713D01*
X358915Y-317678D01*
X358811Y-317644D01*
X358396Y-317609D01*
X358293Y-317574D01*
X356962Y-317592D01*
X356651Y-317626D01*
X356374Y-317695D01*
X356011Y-317747D01*
X355561Y-317920D01*
X355320Y-318024D01*
X355216Y-318058D01*
X355043Y-318128D01*
X354732Y-318300D01*
X354559Y-318404D01*
X354352Y-318542D01*
X354179Y-318612D01*
X354075Y-318715D01*
X353453Y-318750D01*
X353314Y-318715D01*
X353003Y-318577D01*
X352761Y-318404D01*
X352692Y-318370D01*
X352658Y-318300D01*
X352588Y-318266D01*
X352502Y-318179D01*
X352467Y-318110D01*
X352416Y-318058D01*
X352260Y-317868D01*
X352122Y-317626D01*
X352070Y-317574D01*
X351862Y-317160D01*
X351810Y-316900D01*
X351776Y-316796D01*
X351741Y-316382D01*
X351776Y-316243D01*
X351810Y-316001D01*
X351845Y-315863D01*
X352018Y-315483D01*
X352156Y-315345D01*
X352191Y-315275D01*
X352243Y-315258D01*
X352381Y-315120D01*
X352450Y-315085D01*
X352519Y-315016D01*
X352761Y-314878D01*
X352830Y-314809D01*
X353003Y-314739D01*
X353314Y-314601D01*
X353453Y-314567D01*
X353677Y-314480D01*
X353867Y-314428D01*
X354109Y-314394D01*
X354282Y-314325D01*
X354559Y-314290D01*
X354663Y-314256D01*
X355734Y-314221D01*
X355838Y-314186D01*
X356443Y-314204D01*
D02*
G37*
G36*
X412001Y-321464D02*
X412398Y-321550D01*
X412537Y-321585D01*
X412709Y-321654D01*
X412779Y-321688D01*
X413228Y-321896D01*
X413470Y-322069D01*
X413539Y-322103D01*
X413557Y-322155D01*
X413608Y-322173D01*
X413781Y-322345D01*
X413850Y-322380D01*
X413868Y-322432D01*
X414040Y-322605D01*
X414075Y-322674D01*
X414179Y-322777D01*
X414213Y-322847D01*
X414369Y-323106D01*
X414421Y-323365D01*
X414455Y-323469D01*
X414386Y-323884D01*
X414213Y-324057D01*
X414179Y-324126D01*
X413954Y-324247D01*
X413868Y-324333D01*
X413850Y-324351D01*
X413712Y-324420D01*
X413401Y-324593D01*
X413332Y-324662D01*
X413263Y-324696D01*
X412951Y-325008D01*
X412865Y-325232D01*
X412761Y-325474D01*
X412727Y-325854D01*
X412692Y-326096D01*
X412727Y-327272D01*
X412796Y-327756D01*
X412848Y-327946D01*
X412882Y-328084D01*
X412917Y-328361D01*
X412951Y-328499D01*
X413021Y-328672D01*
X413072Y-328931D01*
X413124Y-329122D01*
X413193Y-329294D01*
X413245Y-329588D01*
X413384Y-330038D01*
X413418Y-330280D01*
X413470Y-330470D01*
X413522Y-330729D01*
X413557Y-330833D01*
X413591Y-331836D01*
X413557Y-332596D01*
X413522Y-332734D01*
X413470Y-332890D01*
X413384Y-333115D01*
X413349Y-333218D01*
X413211Y-333460D01*
X413159Y-333478D01*
X413072Y-333564D01*
X412882Y-333720D01*
X412502Y-333927D01*
X412433Y-333962D01*
X412329Y-333996D01*
X411465Y-334031D01*
X411015Y-333996D01*
X410773Y-333962D01*
X410531Y-333858D01*
X410082Y-333651D01*
X409944Y-333512D01*
X409874Y-333478D01*
X409581Y-333184D01*
X409546Y-333115D01*
X409477Y-333046D01*
X409373Y-332873D01*
X409304Y-332803D01*
X409269Y-332734D01*
X409114Y-332371D01*
X409079Y-332233D01*
X409027Y-331905D01*
X409097Y-331663D01*
X409148Y-331611D01*
X409390Y-331438D01*
X409874Y-331161D01*
X409978Y-331058D01*
X410047Y-331023D01*
X410341Y-330729D01*
X410445Y-330556D01*
X410514Y-330487D01*
X410566Y-330366D01*
X410652Y-329934D01*
X410687Y-329830D01*
X410670Y-329294D01*
X410635Y-329018D01*
X410566Y-328396D01*
X410531Y-328188D01*
X410462Y-327911D01*
X410428Y-327704D01*
X410393Y-327393D01*
X410359Y-327186D01*
X410289Y-326909D01*
X410255Y-326702D01*
X410220Y-326390D01*
X410186Y-326217D01*
X410117Y-325941D01*
X410082Y-325595D01*
X410047Y-325180D01*
X409995Y-324299D01*
X409961Y-324160D01*
X409995Y-323918D01*
X410030Y-323365D01*
X410065Y-323227D01*
X410099Y-322777D01*
X410203Y-322536D01*
X410238Y-322397D01*
X410307Y-322224D01*
X410445Y-321982D01*
X410583Y-321844D01*
X410618Y-321775D01*
X410739Y-321723D01*
X410843Y-321619D01*
X411015Y-321550D01*
X411292Y-321481D01*
X411396Y-321446D01*
X412001Y-321464D01*
D02*
G37*
G36*
X333401Y-313218D02*
X333539Y-313253D01*
X333781Y-313288D01*
X333798Y-313305D01*
X334196Y-313495D01*
X334438Y-313633D01*
X334507Y-313668D01*
X334576Y-313737D01*
X334645Y-313771D01*
X334784Y-313910D01*
X334853Y-313944D01*
X335008Y-314100D01*
X335112Y-314273D01*
X335216Y-314377D01*
X335250Y-314549D01*
X335320Y-314722D01*
X335302Y-314912D01*
X335250Y-315172D01*
X335112Y-315483D01*
X335078Y-315621D01*
X334905Y-316001D01*
X334870Y-316140D01*
X334818Y-316192D01*
X334697Y-316520D01*
X334611Y-316710D01*
X334559Y-316935D01*
X334507Y-317090D01*
X334438Y-317263D01*
X334386Y-317592D01*
X334300Y-317886D01*
X334265Y-318024D01*
X334196Y-318646D01*
X334161Y-318854D01*
X334127Y-319027D01*
X334092Y-319407D01*
X334040Y-320772D01*
X334006Y-320876D01*
X333971Y-322501D01*
X333937Y-322605D01*
X333954Y-323313D01*
X333988Y-324281D01*
X334023Y-324627D01*
X334058Y-325111D01*
X334092Y-325837D01*
X334127Y-326148D01*
X334196Y-326598D01*
X334248Y-327168D01*
X334300Y-327635D01*
X334334Y-327808D01*
X334369Y-328015D01*
X334421Y-328586D01*
X334473Y-329052D01*
X334507Y-329260D01*
X334542Y-329536D01*
X334576Y-330020D01*
X334628Y-330625D01*
X334663Y-330729D01*
X334697Y-331490D01*
X334732Y-331594D01*
X334715Y-332129D01*
X334680Y-332544D01*
X334645Y-332682D01*
X334559Y-333080D01*
X334386Y-333460D01*
X334092Y-333754D01*
X333643Y-333996D01*
X332882Y-334031D01*
X332225Y-333996D01*
X332087Y-333962D01*
X331845Y-333858D01*
X331603Y-333789D01*
X331534Y-333720D01*
X331361Y-333651D01*
X331257Y-333547D01*
X331188Y-333512D01*
X330929Y-333253D01*
X330687Y-332942D01*
X330583Y-332769D01*
X330462Y-332544D01*
X330410Y-332354D01*
X330341Y-332181D01*
X330307Y-331836D01*
X330341Y-331732D01*
X330428Y-331611D01*
X330600Y-331507D01*
X330704Y-331403D01*
X330946Y-331265D01*
X331119Y-331161D01*
X331188Y-331092D01*
X331361Y-330988D01*
X331724Y-330625D01*
X331759Y-330556D01*
X331828Y-330487D01*
X332070Y-330038D01*
X332104Y-329899D01*
X332173Y-329485D01*
X332208Y-329381D01*
X332191Y-328430D01*
X332156Y-328119D01*
X332122Y-327911D01*
X332087Y-327497D01*
X332052Y-327116D01*
X332018Y-326909D01*
X331983Y-326736D01*
X331949Y-326529D01*
X331914Y-326148D01*
X331880Y-325837D01*
X331845Y-325630D01*
X331810Y-325457D01*
X331776Y-325180D01*
X331741Y-324765D01*
X331707Y-324454D01*
X331672Y-324247D01*
X331638Y-324074D01*
X331603Y-323797D01*
X331568Y-323348D01*
X331534Y-323037D01*
X331499Y-322864D01*
X331465Y-322657D01*
X331430Y-322207D01*
X331378Y-321083D01*
X331344Y-320980D01*
X331309Y-319493D01*
X331274Y-319389D01*
X331292Y-318197D01*
X331326Y-317090D01*
X331361Y-316745D01*
X331413Y-315898D01*
X331447Y-315552D01*
X331482Y-315310D01*
X331534Y-315120D01*
X331586Y-314791D01*
X331620Y-314653D01*
X331724Y-314411D01*
X331759Y-314273D01*
X331828Y-314100D01*
X331880Y-314048D01*
X331931Y-313858D01*
X332035Y-313754D01*
X332070Y-313685D01*
X332260Y-313495D01*
X332381Y-313409D01*
X332588Y-313270D01*
X332986Y-313218D01*
X333090Y-313184D01*
X333401Y-313218D01*
D02*
G37*
G36*
X326694Y-313253D02*
X326832Y-313288D01*
X327005Y-313357D01*
X327074Y-313391D01*
X327316Y-313495D01*
X327558Y-313633D01*
X327627Y-313702D01*
X327696Y-313737D01*
X327835Y-313875D01*
X327904Y-313910D01*
X328077Y-314083D01*
X328232Y-314273D01*
X328371Y-314515D01*
X328405Y-315033D01*
X328319Y-315224D01*
X328267Y-315414D01*
X327990Y-316036D01*
X327956Y-316105D01*
X327800Y-316468D01*
X327748Y-316693D01*
X327662Y-316883D01*
X327610Y-317073D01*
X327523Y-317367D01*
X327437Y-317730D01*
X327402Y-317972D01*
X327351Y-318162D01*
X327316Y-318335D01*
X327281Y-318612D01*
X327247Y-319061D01*
X327212Y-319441D01*
X327160Y-320116D01*
X327126Y-320219D01*
X327091Y-322743D01*
X327057Y-322847D01*
X327074Y-323106D01*
X327109Y-324593D01*
X327143Y-325215D01*
X327178Y-325561D01*
X327212Y-325837D01*
X327281Y-326632D01*
X327316Y-326978D01*
X327351Y-327186D01*
X327385Y-327358D01*
X327420Y-327635D01*
X327454Y-328050D01*
X327489Y-328326D01*
X327558Y-328741D01*
X327593Y-329122D01*
X327627Y-329606D01*
X327662Y-329882D01*
X327714Y-330280D01*
X327748Y-330383D01*
X327783Y-332319D01*
X327748Y-332769D01*
X327696Y-332959D01*
X327610Y-333184D01*
X327541Y-333357D01*
X327437Y-333530D01*
X327316Y-333651D01*
X327247Y-333685D01*
X327178Y-333754D01*
X326728Y-333996D01*
X326141Y-334031D01*
X325276Y-333996D01*
X325034Y-333893D01*
X324896Y-333858D01*
X324723Y-333789D01*
X324481Y-333651D01*
X324377Y-333547D01*
X324308Y-333512D01*
X324256Y-333460D01*
X324049Y-333288D01*
X324014Y-333218D01*
X323997Y-333201D01*
X323945Y-333149D01*
X323911Y-333080D01*
X323859Y-333063D01*
X323738Y-332838D01*
X323669Y-332769D01*
X323600Y-332596D01*
X323565Y-332458D01*
X323496Y-332389D01*
X323461Y-331697D01*
X323548Y-331611D01*
X323859Y-331369D01*
X323928Y-331334D01*
X324204Y-331161D01*
X324274Y-331127D01*
X324291Y-331075D01*
X324377Y-331023D01*
X324446Y-330988D01*
X324654Y-330781D01*
X324723Y-330746D01*
X324740Y-330695D01*
X324879Y-330556D01*
X324982Y-330383D01*
X325086Y-330280D01*
X325121Y-330107D01*
X325224Y-329865D01*
X325259Y-329761D01*
X325294Y-328517D01*
X325259Y-328067D01*
X325207Y-327600D01*
X325138Y-327186D01*
X325103Y-326805D01*
X325069Y-326494D01*
X325034Y-326321D01*
X324965Y-325906D01*
X324931Y-325457D01*
X324896Y-325180D01*
X324861Y-324973D01*
X324827Y-324800D01*
X324792Y-324489D01*
X324758Y-324039D01*
X324723Y-323763D01*
X324689Y-323590D01*
X324654Y-323383D01*
X324602Y-322743D01*
X324568Y-322501D01*
X324516Y-322034D01*
X324481Y-321654D01*
X324446Y-320790D01*
X324412Y-318854D01*
X324429Y-317695D01*
X324464Y-316520D01*
X324498Y-315967D01*
X324533Y-315725D01*
X324568Y-315586D01*
X324602Y-315345D01*
X324637Y-314999D01*
X324671Y-314860D01*
X324740Y-314688D01*
X324775Y-314480D01*
X324879Y-314238D01*
X324948Y-314065D01*
X325155Y-313720D01*
X325190Y-313650D01*
X325345Y-313495D01*
X325518Y-313391D01*
X325587Y-313322D01*
X325708Y-313270D01*
X326037Y-313218D01*
X326141Y-313184D01*
X326694Y-313253D01*
D02*
G37*
G36*
X432485Y-321412D02*
X432623Y-321446D01*
X432796Y-321516D01*
X433038Y-321550D01*
X433557Y-321792D01*
X433729Y-321896D01*
X433868Y-322034D01*
X433937Y-322069D01*
X434006Y-322138D01*
X434023Y-322155D01*
X434127Y-322259D01*
X434161Y-322328D01*
X434213Y-322345D01*
X434300Y-322432D01*
X434334Y-322501D01*
X434438Y-322605D01*
X434473Y-322674D01*
X434524Y-322726D01*
X434680Y-322916D01*
X434818Y-323158D01*
X434922Y-323262D01*
X434991Y-323434D01*
X435043Y-323486D01*
X435164Y-323815D01*
X435251Y-323832D01*
X435302Y-323780D01*
X435337Y-323331D01*
X435406Y-323054D01*
X435441Y-322950D01*
X435475Y-322674D01*
X435648Y-322294D01*
X435683Y-322190D01*
X435786Y-322017D01*
X436046Y-321758D01*
X436115Y-321723D01*
X436288Y-321619D01*
X436460Y-321550D01*
X436564Y-321516D01*
X436841Y-321481D01*
X436945Y-321446D01*
X437480Y-321464D01*
X437913Y-321550D01*
X438051Y-321585D01*
X438500Y-321792D01*
X438673Y-321896D01*
X438742Y-321965D01*
X438811Y-322000D01*
X438881Y-322069D01*
X438950Y-322103D01*
X438984Y-322173D01*
X439053Y-322207D01*
X439105Y-322259D01*
X439140Y-322328D01*
X439244Y-322397D01*
X439278Y-322466D01*
X439382Y-322570D01*
X439417Y-322639D01*
X439589Y-322881D01*
X439624Y-323019D01*
X439762Y-323227D01*
X439797Y-323711D01*
X439762Y-323953D01*
X439572Y-324143D01*
X439123Y-324385D01*
X438881Y-324489D01*
X438708Y-324558D01*
X438604Y-324662D01*
X438535Y-324696D01*
X438310Y-324921D01*
X438276Y-324990D01*
X438189Y-325077D01*
X438068Y-325405D01*
X437999Y-325474D01*
X437930Y-325785D01*
X437895Y-325924D01*
X437861Y-326027D01*
X437826Y-326269D01*
X437792Y-326373D01*
X437757Y-327790D01*
X437722Y-327894D01*
X437740Y-328292D01*
X437774Y-329156D01*
X437809Y-329744D01*
X437843Y-330055D01*
X437913Y-330401D01*
X437964Y-330798D01*
X437999Y-331040D01*
X438051Y-331231D01*
X438085Y-331369D01*
X438137Y-331766D01*
X438172Y-331905D01*
X438241Y-332147D01*
X438276Y-332285D01*
X438345Y-332700D01*
X438414Y-332873D01*
X438448Y-333115D01*
X438483Y-333218D01*
X438518Y-333599D01*
X438431Y-333823D01*
X438362Y-333858D01*
X438224Y-333996D01*
X437740Y-334031D01*
X437636Y-334065D01*
X437256Y-334031D01*
X436806Y-333996D01*
X436426Y-333823D01*
X436218Y-333685D01*
X436149Y-333651D01*
X435959Y-333460D01*
X435717Y-333149D01*
X435579Y-332907D01*
X435527Y-332855D01*
X435441Y-332631D01*
X435372Y-332458D01*
X435337Y-332319D01*
X435302Y-332216D01*
X435268Y-329865D01*
X435302Y-329761D01*
X435285Y-328396D01*
X435251Y-327911D01*
X435216Y-327739D01*
X435181Y-327600D01*
X435147Y-327393D01*
X435112Y-327047D01*
X435078Y-326909D01*
X435009Y-326736D01*
X434957Y-326511D01*
X434853Y-326269D01*
X434818Y-326131D01*
X434749Y-325958D01*
X434576Y-325647D01*
X434438Y-325405D01*
X434369Y-325336D01*
X434334Y-325267D01*
X434196Y-325129D01*
X434161Y-325059D01*
X434006Y-324904D01*
X433937Y-324869D01*
X433868Y-324800D01*
X433695Y-324696D01*
X433487Y-324558D01*
X433073Y-324524D01*
X432623Y-324558D01*
X432346Y-324731D01*
X432277Y-324765D01*
X432260Y-324817D01*
X432208Y-324835D01*
X432122Y-324921D01*
X432087Y-324990D01*
X432001Y-325042D01*
X431932Y-325077D01*
X431880Y-325129D01*
X431620Y-325180D01*
X431430Y-325129D01*
X431206Y-325042D01*
X430998Y-324904D01*
X430877Y-324817D01*
X430843Y-324748D01*
X430670Y-324575D01*
X430635Y-324506D01*
X430566Y-324437D01*
X430462Y-324264D01*
X430376Y-324178D01*
X430289Y-323953D01*
X430186Y-323780D01*
X430151Y-323607D01*
X430117Y-323469D01*
X430082Y-323365D01*
X430047Y-322708D01*
X430117Y-322466D01*
X430151Y-322328D01*
X430220Y-322155D01*
X430324Y-321982D01*
X430480Y-321827D01*
X430652Y-321723D01*
X430860Y-321585D01*
X430998Y-321550D01*
X431240Y-321446D01*
X431586Y-321412D01*
X431690Y-321377D01*
X432485Y-321412D01*
D02*
G37*
G36*
X382459D02*
X382735Y-321481D01*
X382839Y-321516D01*
X383046Y-321550D01*
X383185Y-321585D01*
X383531Y-321723D01*
X384049Y-321965D01*
X384291Y-322103D01*
X384360Y-322173D01*
X384429Y-322207D01*
X384568Y-322345D01*
X384637Y-322380D01*
X384740Y-322484D01*
X384810Y-322518D01*
X384879Y-322587D01*
X384948Y-322622D01*
X385484Y-323158D01*
X385518Y-323227D01*
X385657Y-323365D01*
X385691Y-323434D01*
X385830Y-323573D01*
X385864Y-323642D01*
X385968Y-323746D01*
X386002Y-323815D01*
X386072Y-323884D01*
X386210Y-324126D01*
X386279Y-324195D01*
X386383Y-324368D01*
X386452Y-324437D01*
X386728Y-324921D01*
X386901Y-325232D01*
X387005Y-325405D01*
X387126Y-325630D01*
X387212Y-325854D01*
X387281Y-325924D01*
X387316Y-325993D01*
X387524Y-326442D01*
X387558Y-326581D01*
X387627Y-326650D01*
X387662Y-326823D01*
X387731Y-326995D01*
X387800Y-327065D01*
X387835Y-327203D01*
X387887Y-327358D01*
X387973Y-327341D01*
X388008Y-327168D01*
X387921Y-326874D01*
X387887Y-326667D01*
X387852Y-326494D01*
X387817Y-326217D01*
X387783Y-326045D01*
X387714Y-325768D01*
X387679Y-325422D01*
X387645Y-325042D01*
X387610Y-324765D01*
X387558Y-324126D01*
X387593Y-323469D01*
X387627Y-323365D01*
X387662Y-322985D01*
X387731Y-322708D01*
X387817Y-322518D01*
X387869Y-322294D01*
X387973Y-322190D01*
X388008Y-322052D01*
X388267Y-321792D01*
X388440Y-321688D01*
X388543Y-321585D01*
X388751Y-321550D01*
X388924Y-321481D01*
X389546Y-321446D01*
X390134Y-321550D01*
X390272Y-321585D01*
X390929Y-321896D01*
X391033Y-322000D01*
X391102Y-322034D01*
X391240Y-322173D01*
X391309Y-322207D01*
X391465Y-322363D01*
X391499Y-322432D01*
X391551Y-322484D01*
X391707Y-322674D01*
X391880Y-322985D01*
X391949Y-323054D01*
X391983Y-323192D01*
X392018Y-323296D01*
X392052Y-323711D01*
X391983Y-323988D01*
X391793Y-324178D01*
X391620Y-324247D01*
X391551Y-324316D01*
X391205Y-324454D01*
X390894Y-324627D01*
X390704Y-324748D01*
X390670Y-324817D01*
X390531Y-324956D01*
X390497Y-325025D01*
X390393Y-325198D01*
X390324Y-325370D01*
X390220Y-325612D01*
X390151Y-325924D01*
X390082Y-326339D01*
X390047Y-326442D01*
X390013Y-327687D01*
X389978Y-327790D01*
X389995Y-328396D01*
X390030Y-329398D01*
X390065Y-329675D01*
X390134Y-330090D01*
X390168Y-330470D01*
X390203Y-330746D01*
X390238Y-330885D01*
X390289Y-331075D01*
X390324Y-331213D01*
X390359Y-331559D01*
X390410Y-331749D01*
X390445Y-331887D01*
X390497Y-332216D01*
X390531Y-332354D01*
X390618Y-332648D01*
X390670Y-332976D01*
X390722Y-333167D01*
X390808Y-333530D01*
X390739Y-333702D01*
X390704Y-333772D01*
X390635Y-333841D01*
X390445Y-333996D01*
X390134Y-334031D01*
X390030Y-334065D01*
X389442Y-334031D01*
X389097Y-333996D01*
X388855Y-333893D01*
X388682Y-333823D01*
X388474Y-333685D01*
X388405Y-333651D01*
X388077Y-333322D01*
X387938Y-333080D01*
X387835Y-332907D01*
X387714Y-332682D01*
X387662Y-332492D01*
X387627Y-332354D01*
X387558Y-332181D01*
X387524Y-330971D01*
X387489Y-330729D01*
X387385Y-330487D01*
X387351Y-330280D01*
X387212Y-329969D01*
X387178Y-329761D01*
X387091Y-329571D01*
X387005Y-329346D01*
X386901Y-329104D01*
X386832Y-328931D01*
X386798Y-328793D01*
X386728Y-328724D01*
X386694Y-328586D01*
X386348Y-327860D01*
X386227Y-327635D01*
X386141Y-327410D01*
X386037Y-327307D01*
X386002Y-327168D01*
X385899Y-327065D01*
X385864Y-326995D01*
X385657Y-326650D01*
X385588Y-326581D01*
X385466Y-326390D01*
X385397Y-326356D01*
X385345Y-326235D01*
X385069Y-325958D01*
X385034Y-325889D01*
X384706Y-325561D01*
X384637Y-325526D01*
X384498Y-325388D01*
X384429Y-325353D01*
X384326Y-325249D01*
X384257Y-325215D01*
X384101Y-325129D01*
X383686Y-324921D01*
X383323Y-324835D01*
X383150Y-324765D01*
X382597Y-324731D01*
X382251Y-324765D01*
X382096Y-324817D01*
X381906Y-324869D01*
X381733Y-324938D01*
X381664Y-325008D01*
X381594Y-325042D01*
X381543Y-325094D01*
X381508Y-325163D01*
X381439Y-325232D01*
X381231Y-325612D01*
X381197Y-326339D01*
X381231Y-326788D01*
X381266Y-326926D01*
X381318Y-327116D01*
X381370Y-327445D01*
X381404Y-327583D01*
X381491Y-327877D01*
X381543Y-328205D01*
X381664Y-328603D01*
X381715Y-328931D01*
X381836Y-329329D01*
X381888Y-329761D01*
X381957Y-330038D01*
X381992Y-330141D01*
X382027Y-331213D01*
X381992Y-331663D01*
X381906Y-331956D01*
X381854Y-332285D01*
X381715Y-332596D01*
X381646Y-332769D01*
X381543Y-332942D01*
X381370Y-333184D01*
X381335Y-333253D01*
X381197Y-333391D01*
X381007Y-333547D01*
X380765Y-333720D01*
X380523Y-333858D01*
X380211Y-333996D01*
X379451Y-334031D01*
X378794Y-333996D01*
X378552Y-333893D01*
X378448Y-333858D01*
X378275Y-333789D01*
X378206Y-333720D01*
X378137Y-333685D01*
X377878Y-333426D01*
X377636Y-333115D01*
X377532Y-332942D01*
X377411Y-332717D01*
X377359Y-332492D01*
X377256Y-332250D01*
X377221Y-331801D01*
X377256Y-331663D01*
X377480Y-331438D01*
X377601Y-331352D01*
X377619Y-331334D01*
X377653D01*
X378103Y-331127D01*
X378345Y-330988D01*
X378552Y-330781D01*
X378673Y-330695D01*
X378708Y-330625D01*
X378829Y-330504D01*
X379036Y-330159D01*
X379088Y-329969D01*
X379157Y-329899D01*
X379192Y-329727D01*
X379226Y-329623D01*
X379261Y-328724D01*
X379226Y-328586D01*
X379192Y-328032D01*
X379105Y-327739D01*
X379053Y-327479D01*
X379019Y-327341D01*
X378967Y-327151D01*
X378898Y-326978D01*
X378863Y-326771D01*
X378829Y-326632D01*
X378759Y-326460D01*
X378708Y-326200D01*
X378673Y-326062D01*
X378604Y-325889D01*
X378552Y-325561D01*
X378500Y-324644D01*
X378535Y-324299D01*
X378569Y-323849D01*
X378656Y-323625D01*
X378708Y-323434D01*
X378811Y-323192D01*
X378881Y-323019D01*
X378984Y-322847D01*
X379019Y-322777D01*
X379192Y-322536D01*
X379226Y-322466D01*
X379624Y-322069D01*
X379693Y-322034D01*
X379762Y-321965D01*
X379935Y-321861D01*
X380177Y-321723D01*
X380350Y-321654D01*
X380402Y-321602D01*
X380626Y-321550D01*
X380920Y-321464D01*
X381145Y-321412D01*
X381594Y-321377D01*
X382459Y-321412D01*
D02*
G37*
G36*
X446608Y-321395D02*
X447403Y-321429D01*
X447575Y-321464D01*
X447714Y-321498D01*
X448319Y-321585D01*
X448457Y-321619D01*
X448613Y-321671D01*
X448837Y-321723D01*
X448976Y-321758D01*
X449131Y-321810D01*
X449356Y-321896D01*
X449598Y-322000D01*
X449667Y-322034D01*
X449909Y-322103D01*
X449978Y-322173D01*
X450047Y-322207D01*
X450220Y-322276D01*
X450601Y-322484D01*
X450843Y-322622D01*
X451016Y-322726D01*
X451154Y-322864D01*
X451292Y-322898D01*
X451396Y-323002D01*
X451465Y-323037D01*
X451603Y-323175D01*
X451672Y-323210D01*
X451811Y-323348D01*
X451880Y-323383D01*
X452018Y-323521D01*
X452087Y-323555D01*
X452571Y-324039D01*
X452727Y-324230D01*
X452761Y-324299D01*
X453003Y-324541D01*
X453038Y-324610D01*
X453107Y-324679D01*
X453280Y-324921D01*
X453384Y-325094D01*
X453487Y-325198D01*
X453626Y-325440D01*
X453798Y-325751D01*
X454040Y-326200D01*
X454213Y-326581D01*
X454317Y-326823D01*
X454352Y-326892D01*
X454421Y-327168D01*
X454507Y-327358D01*
X454559Y-327583D01*
X454594Y-327721D01*
X454680Y-328015D01*
X454732Y-328344D01*
X454767Y-328586D01*
X454801Y-328724D01*
X454836Y-328828D01*
X454870Y-330038D01*
Y-330072D01*
X454853Y-330435D01*
X454818Y-330712D01*
X454784Y-330850D01*
X454697Y-331352D01*
X454594Y-331594D01*
X454559Y-331766D01*
X454317Y-332285D01*
X454213Y-332458D01*
X454040Y-332700D01*
X454006Y-332769D01*
X453729Y-333046D01*
X453695Y-333115D01*
X453643Y-333132D01*
X453505Y-333270D01*
X453332Y-333374D01*
X453263Y-333443D01*
X453090Y-333547D01*
X453003Y-333633D01*
X452779Y-333720D01*
X452727Y-333772D01*
X452502Y-333858D01*
X452208Y-333979D01*
X451811Y-334031D01*
X451707Y-334065D01*
X451119Y-334100D01*
X450981Y-334134D01*
X450428Y-334100D01*
X449961Y-334048D01*
X449529Y-333996D01*
X449391Y-333962D01*
X449200Y-333875D01*
X448976Y-333823D01*
X448751Y-333702D01*
X448561Y-333651D01*
X448492Y-333581D01*
X448008Y-333305D01*
X447904Y-333201D01*
X447835Y-333167D01*
X447696Y-333028D01*
X447627Y-332994D01*
X447489Y-332855D01*
X447420Y-332821D01*
X446953Y-332354D01*
X446919Y-332285D01*
X446729Y-332095D01*
X446573Y-331905D01*
X446538Y-331836D01*
X446487Y-331818D01*
X446435Y-331732D01*
X446400Y-331663D01*
X446331Y-331594D01*
X446296Y-331524D01*
X446124Y-331282D01*
X446089Y-331179D01*
X445985Y-331075D01*
X445899Y-330954D01*
X445830Y-330919D01*
X445778Y-331006D01*
X445795Y-331127D01*
X445743Y-331905D01*
X445709Y-332043D01*
X445605Y-332389D01*
X445570Y-332527D01*
X445432Y-332838D01*
X445363Y-333011D01*
X445294Y-333080D01*
X445259Y-333184D01*
X445155Y-333288D01*
X445121Y-333357D01*
X444913Y-333564D01*
X444723Y-333720D01*
X444481Y-333858D01*
X444291Y-333979D01*
X443842Y-334048D01*
X443375Y-334100D01*
X443133Y-334065D01*
X442787Y-334031D01*
X442545Y-333996D01*
X442165Y-333823D01*
X442027Y-333685D01*
X441958Y-333651D01*
X441940Y-333599D01*
X441888Y-333547D01*
X441819Y-333512D01*
X441802Y-333460D01*
X441664Y-333322D01*
X441629Y-333253D01*
X441474Y-332994D01*
X441422Y-332803D01*
X441283Y-332458D01*
X441249Y-331905D01*
X441283Y-331559D01*
X441404Y-331438D01*
X441577Y-331334D01*
X441819Y-331231D01*
X442027Y-331196D01*
X442269Y-331127D01*
X442321Y-331075D01*
X442545Y-330988D01*
X442649Y-330885D01*
X442718Y-330850D01*
X442908Y-330660D01*
X442943Y-330591D01*
X443064Y-330470D01*
X443150Y-330245D01*
X443219Y-330176D01*
X443288Y-329865D01*
X443375Y-329675D01*
X443496Y-328931D01*
X443531Y-328828D01*
X443565Y-327548D01*
X443531Y-327307D01*
X443479Y-326840D01*
X443427Y-326269D01*
X443392Y-326027D01*
X443323Y-325751D01*
X443271Y-325699D01*
X442822Y-325733D01*
X442683Y-325699D01*
X442580Y-325664D01*
X442511Y-325630D01*
X442493Y-325578D01*
X442355Y-325440D01*
X442182Y-325129D01*
X442130Y-325008D01*
X442079Y-324679D01*
X442044Y-324541D01*
X442009Y-324437D01*
X441975Y-323918D01*
X441940Y-323815D01*
X441958Y-323521D01*
X441992Y-323313D01*
X442130Y-322933D01*
X442286Y-322743D01*
X442321Y-322674D01*
X442511Y-322484D01*
X442632Y-322397D01*
X442822Y-322242D01*
X443479Y-321896D01*
X443721Y-321827D01*
X443773Y-321775D01*
X444136Y-321688D01*
X444360Y-321602D01*
X444689Y-321550D01*
X444827Y-321516D01*
X445069Y-321481D01*
X445173Y-321446D01*
X445968Y-321412D01*
X446072Y-321377D01*
X446608Y-321395D01*
D02*
G37*
G36*
X420004Y-313253D02*
X420143Y-313288D01*
X420592Y-313495D01*
X420903Y-313668D01*
X421076Y-313771D01*
X421370Y-314065D01*
X421404Y-314135D01*
X421456Y-314152D01*
X421577Y-314411D01*
X421646Y-314480D01*
X421681Y-314999D01*
X421577Y-315241D01*
X421543Y-315345D01*
X421197Y-316105D01*
X421076Y-316399D01*
X421024Y-316589D01*
X420903Y-316883D01*
X420851Y-317108D01*
X420817Y-317246D01*
X420765Y-317402D01*
X420730Y-317540D01*
X420661Y-317955D01*
X420626Y-318128D01*
X420592Y-318266D01*
X420557Y-318473D01*
X420523Y-318957D01*
X420488Y-319407D01*
X420436Y-319908D01*
X420402Y-320012D01*
X420367Y-321844D01*
X420333Y-322086D01*
X420367Y-322224D01*
X420523Y-322242D01*
X420626Y-322138D01*
X420868Y-322000D01*
X420989Y-321913D01*
X421180Y-321861D01*
X421249Y-321792D01*
X421422Y-321723D01*
X421716Y-321602D01*
X422113Y-321516D01*
X422286Y-321446D01*
X422735Y-321412D01*
X422839Y-321377D01*
X423911Y-321412D01*
X424049Y-321446D01*
X424222Y-321516D01*
X424568Y-321550D01*
X424879Y-321688D01*
X425086Y-321723D01*
X425881Y-322103D01*
X426124Y-322242D01*
X426227Y-322345D01*
X426296Y-322380D01*
X426538Y-322553D01*
X426608Y-322587D01*
X426711Y-322691D01*
X426780Y-322726D01*
X427057Y-323002D01*
X427126Y-323037D01*
X427195Y-323141D01*
X427264Y-323175D01*
X427351Y-323262D01*
X427385Y-323331D01*
X427454Y-323365D01*
X427489Y-323434D01*
X427627Y-323573D01*
X427714Y-323694D01*
X427783Y-323728D01*
X427800Y-323780D01*
X427938Y-323918D01*
X427973Y-323988D01*
X428146Y-324230D01*
X428181Y-324299D01*
X428284Y-324403D01*
X428699Y-325129D01*
X428941Y-325578D01*
X428976Y-325647D01*
X429148Y-326027D01*
X429183Y-326166D01*
X429252Y-326339D01*
X429304Y-326460D01*
X429356Y-326684D01*
X429442Y-326874D01*
X429494Y-327099D01*
X429615Y-327497D01*
X429684Y-327946D01*
X429736Y-328171D01*
X429771Y-328274D01*
X429805Y-328724D01*
X429840Y-328828D01*
X429823Y-330366D01*
X429788Y-330746D01*
X429719Y-331023D01*
X429632Y-331421D01*
X429563Y-331594D01*
X429511Y-331715D01*
X429460Y-331939D01*
X429390Y-332008D01*
X429287Y-332285D01*
X429218Y-332354D01*
X429079Y-332596D01*
X428976Y-332769D01*
X428734Y-333011D01*
X428647Y-333132D01*
X428578Y-333167D01*
X428405Y-333339D01*
X428336Y-333374D01*
X428319Y-333426D01*
X428094Y-333547D01*
X427990Y-333651D01*
X427852Y-333685D01*
X427766Y-333772D01*
X427541Y-333858D01*
X427368Y-333927D01*
X427247Y-333979D01*
X426884Y-334031D01*
X426780Y-334065D01*
X426262Y-334100D01*
X426227D01*
X426020Y-334134D01*
X425570Y-334100D01*
X425104Y-334048D01*
X424671Y-333996D01*
X424429Y-333893D01*
X424291Y-333858D01*
X423911Y-333685D01*
X423738Y-333616D01*
X423219Y-333305D01*
X423116Y-333201D01*
X423046Y-333167D01*
X422943Y-333063D01*
X422874Y-333028D01*
X422701Y-332855D01*
X422632Y-332821D01*
X422096Y-332285D01*
X422061Y-332216D01*
X421854Y-332008D01*
X421819Y-331939D01*
X421750Y-331870D01*
X421664Y-331749D01*
X421508Y-331559D01*
X421474Y-331490D01*
X421422Y-331473D01*
X421370Y-331352D01*
X421266Y-331248D01*
X420989Y-330729D01*
X420834Y-330712D01*
X420799Y-330988D01*
X420765Y-331438D01*
X420713Y-331836D01*
X420678Y-332181D01*
X420592Y-332475D01*
X420540Y-332700D01*
X420436Y-332942D01*
X420402Y-333011D01*
X420298Y-333253D01*
X420177Y-333443D01*
X420056Y-333530D01*
X420022Y-333599D01*
X419866Y-333685D01*
X419779Y-333772D01*
X419555Y-333858D01*
X419365Y-333944D01*
X419226Y-333979D01*
X418673Y-334013D01*
X418034Y-333996D01*
X417895Y-333962D01*
X417705Y-333910D01*
X417480Y-333823D01*
X417377Y-333789D01*
X417135Y-333651D01*
X416737Y-333253D01*
X416702Y-333184D01*
X416633Y-333115D01*
X416391Y-332665D01*
X416357Y-332527D01*
X416253Y-332285D01*
X416218Y-331697D01*
X416288Y-331524D01*
X416322Y-331455D01*
X416374Y-331403D01*
X416668Y-331213D01*
X416962Y-331161D01*
X417619Y-330850D01*
X417722Y-330746D01*
X417843Y-330660D01*
X417878Y-330591D01*
X417964Y-330504D01*
X418120Y-330314D01*
X418362Y-329865D01*
X418396Y-329727D01*
X418448Y-329536D01*
X418500Y-329312D01*
X418535Y-329208D01*
X418518Y-328050D01*
X418483Y-327773D01*
X418448Y-327600D01*
X418414Y-327393D01*
X418379Y-327082D01*
X418345Y-326702D01*
X418310Y-326494D01*
X418276Y-326321D01*
X418224Y-325924D01*
X418189Y-325578D01*
X418137Y-325111D01*
X418103Y-324938D01*
X418016Y-324022D01*
X417982Y-323884D01*
X417947Y-323642D01*
X417912Y-323538D01*
X417878Y-322881D01*
X417843Y-322743D01*
X417809Y-322294D01*
X417774Y-322190D01*
X417722Y-321446D01*
X417671Y-319459D01*
X417636Y-319355D01*
X417653Y-318197D01*
X417688Y-317021D01*
X417722Y-316192D01*
X417757Y-315742D01*
X417826Y-315396D01*
X417878Y-315068D01*
X417912Y-314826D01*
X418016Y-314584D01*
X418051Y-314377D01*
X418172Y-314152D01*
X418224Y-313962D01*
X418293Y-313892D01*
X418396Y-313720D01*
X418535Y-313581D01*
X418569Y-313512D01*
X418794Y-313391D01*
X418863Y-313322D01*
X418984Y-313270D01*
X419347Y-313218D01*
X419451Y-313184D01*
X420004Y-313253D01*
D02*
G37*
G36*
X398794Y-321395D02*
X399520Y-321429D01*
X399693Y-321464D01*
X399831Y-321498D01*
X400229Y-321550D01*
X400471Y-321585D01*
X400609Y-321619D01*
X400782Y-321688D01*
X400989Y-321723D01*
X401128Y-321758D01*
X401318Y-321844D01*
X401508Y-321896D01*
X401646Y-321931D01*
X401698Y-321982D01*
X401923Y-322069D01*
X402027Y-322103D01*
X402200Y-322207D01*
X402372Y-322276D01*
X402424Y-322328D01*
X402649Y-322415D01*
X402753Y-322518D01*
X402891Y-322553D01*
X403029Y-322691D01*
X403167Y-322726D01*
X403271Y-322829D01*
X403340Y-322864D01*
X403582Y-323037D01*
X403652Y-323071D01*
X403755Y-323175D01*
X403824Y-323210D01*
X403963Y-323348D01*
X404032Y-323383D01*
X404913Y-324264D01*
X404948Y-324333D01*
X405034Y-324420D01*
X405363Y-324852D01*
X405467Y-325025D01*
X405518Y-325042D01*
X405674Y-325301D01*
X405812Y-325543D01*
X405985Y-325854D01*
X406054Y-325924D01*
X406123Y-326096D01*
X406227Y-326269D01*
X406262Y-326442D01*
X406400Y-326650D01*
X406435Y-326823D01*
X406573Y-327134D01*
X406607Y-327272D01*
X406659Y-327462D01*
X406746Y-327687D01*
X406780Y-327929D01*
X406815Y-328067D01*
X406884Y-328240D01*
X406919Y-328689D01*
X406953Y-328793D01*
X406988Y-329485D01*
X407022Y-329588D01*
X407005Y-330020D01*
X406970Y-330435D01*
X406936Y-330781D01*
X406901Y-331058D01*
X406867Y-331231D01*
X406798Y-331403D01*
X406746Y-331628D01*
X406607Y-331939D01*
X406504Y-332181D01*
X406331Y-332492D01*
X406227Y-332665D01*
X405985Y-332907D01*
X405951Y-332976D01*
X405760Y-333167D01*
X405691Y-333201D01*
X405588Y-333305D01*
X405518Y-333339D01*
X405415Y-333443D01*
X405242Y-333547D01*
X405000Y-333685D01*
X404827Y-333789D01*
X404723Y-333823D01*
X404412Y-333962D01*
X403963Y-334031D01*
X403859Y-334065D01*
X403306Y-334100D01*
X403202Y-334134D01*
X402511Y-334100D01*
X402027Y-334031D01*
X401681Y-333996D01*
X401387Y-333910D01*
X401162Y-333823D01*
X400851Y-333685D01*
X400678Y-333616D01*
X400367Y-333443D01*
X400194Y-333339D01*
X400091Y-333236D01*
X400021Y-333201D01*
X399883Y-333063D01*
X399814Y-333028D01*
X399710Y-332924D01*
X399641Y-332890D01*
X399572Y-332821D01*
X399503Y-332786D01*
X399486Y-332734D01*
X399382Y-332665D01*
X399295Y-332544D01*
X399174Y-332458D01*
X399140Y-332389D01*
X398950Y-332198D01*
X398794Y-332008D01*
X398759Y-331939D01*
X398656Y-331836D01*
X398621Y-331766D01*
X398552Y-331697D01*
X398448Y-331524D01*
X398345Y-331421D01*
X398206Y-331179D01*
X398085Y-330919D01*
X397999Y-330937D01*
X397964Y-331006D01*
X397930Y-331109D01*
X397964Y-331213D01*
X397930Y-331628D01*
X397878Y-331818D01*
X397843Y-331956D01*
X397791Y-332319D01*
X397705Y-332544D01*
X397584Y-332873D01*
X397515Y-332942D01*
X397446Y-333115D01*
X397342Y-333218D01*
X397308Y-333288D01*
X397204Y-333391D01*
X397117Y-333512D01*
X397048Y-333547D01*
X396945Y-333651D01*
X396875Y-333685D01*
X396806Y-333754D01*
X396633Y-333858D01*
X396409Y-333979D01*
X396236Y-334013D01*
X395804Y-334065D01*
X395700Y-334100D01*
X395181Y-334065D01*
X394697Y-333996D01*
X394317Y-333823D01*
X394213Y-333720D01*
X394144Y-333685D01*
X393919Y-333460D01*
X393816Y-333288D01*
X393747Y-333218D01*
X393660Y-333097D01*
X393608Y-332907D01*
X393539Y-332838D01*
X393470Y-332527D01*
X393435Y-332389D01*
X393401Y-332285D01*
X393366Y-331801D01*
X393504Y-331490D01*
X393539Y-331421D01*
X393626Y-331369D01*
X393764Y-331334D01*
X393954Y-331248D01*
X394144Y-331196D01*
X394282Y-331161D01*
X394663Y-330988D01*
X394732Y-330954D01*
X394801Y-330885D01*
X394870Y-330850D01*
X394957Y-330764D01*
X394991Y-330695D01*
X395043Y-330677D01*
X395164Y-330487D01*
X395199Y-330418D01*
X395251Y-330366D01*
X395337Y-330141D01*
X395423Y-329951D01*
X395475Y-329761D01*
X395544Y-329485D01*
X395614Y-329312D01*
X395648Y-328724D01*
X395683Y-328620D01*
X395665Y-327393D01*
X395631Y-326771D01*
X395596Y-326460D01*
X395562Y-326252D01*
X395527Y-326114D01*
X395475Y-325751D01*
X395406Y-325682D01*
X395181Y-325699D01*
X395078Y-325733D01*
X394732Y-325699D01*
X394542Y-325509D01*
X394352Y-325215D01*
X394300Y-325025D01*
Y-324990D01*
X394248Y-324869D01*
X394196Y-324679D01*
X394161Y-324575D01*
X394127Y-323573D01*
X394161Y-323227D01*
X394369Y-322777D01*
X394421Y-322760D01*
X394473Y-322674D01*
X394507Y-322605D01*
X394559Y-322587D01*
X394732Y-322415D01*
X394801Y-322380D01*
X394905Y-322276D01*
X395147Y-322138D01*
X395527Y-321931D01*
X395665Y-321896D01*
X396046Y-321723D01*
X396288Y-321688D01*
X396530Y-321585D01*
X396841Y-321550D01*
X396979Y-321516D01*
X397221Y-321481D01*
X397325Y-321446D01*
X398051Y-321412D01*
X398154Y-321377D01*
X398794Y-321395D01*
D02*
G37*
G36*
X342510D02*
X343237Y-321429D01*
X343444Y-321464D01*
X343582Y-321498D01*
X344187Y-321585D01*
X344481Y-321671D01*
X344706Y-321723D01*
X344844Y-321758D01*
X345086Y-321861D01*
X345224Y-321896D01*
X345466Y-322000D01*
X345639Y-322069D01*
X345778Y-322103D01*
X345847Y-322173D01*
X345916Y-322207D01*
X346089Y-322276D01*
X346469Y-322484D01*
X346711Y-322622D01*
X346832Y-322708D01*
X346849Y-322726D01*
X346884D01*
X346953Y-322795D01*
X347195Y-322933D01*
X347299Y-323037D01*
X347368Y-323071D01*
X347437Y-323141D01*
X347558Y-323227D01*
X347748Y-323383D01*
X347817Y-323417D01*
X347835Y-323469D01*
X347887Y-323521D01*
X347956Y-323555D01*
X348008Y-323607D01*
X348042Y-323676D01*
X348094Y-323694D01*
X348492Y-324091D01*
X348526Y-324160D01*
X348664Y-324299D01*
X348699Y-324368D01*
X348751Y-324420D01*
X348906Y-324610D01*
X349148Y-324921D01*
X349183Y-324990D01*
X349252Y-325059D01*
X349390Y-325301D01*
X349494Y-325405D01*
X349529Y-325543D01*
X349598Y-325612D01*
X349944Y-326269D01*
X349978Y-326339D01*
X350116Y-326650D01*
X350186Y-326823D01*
X350220Y-326961D01*
X350307Y-327151D01*
X350376Y-327427D01*
X350445Y-327600D01*
X350497Y-327790D01*
X350531Y-328032D01*
X350600Y-328205D01*
X350635Y-328482D01*
X350670Y-328586D01*
X350704Y-329415D01*
X350739Y-329519D01*
X350721Y-330159D01*
X350670Y-330798D01*
X350635Y-331040D01*
X350600Y-331179D01*
X350531Y-331352D01*
X350497Y-331594D01*
X350358Y-331905D01*
X350255Y-332147D01*
X350082Y-332458D01*
X349978Y-332631D01*
X349874Y-332734D01*
X349840Y-332803D01*
X349459Y-333184D01*
X349269Y-333339D01*
X349200Y-333374D01*
X349131Y-333443D01*
X348958Y-333547D01*
X348872Y-333633D01*
X348647Y-333720D01*
X348595Y-333772D01*
X348371Y-333858D01*
X348129Y-333962D01*
X347921Y-333996D01*
X347783Y-334031D01*
X347316Y-334083D01*
X346746Y-334134D01*
X346296Y-334100D01*
X345830Y-334048D01*
X345397Y-333996D01*
X345259Y-333962D01*
X345069Y-333875D01*
X344844Y-333823D01*
X344619Y-333702D01*
X344429Y-333651D01*
X344360Y-333581D01*
X344049Y-333409D01*
X343876Y-333305D01*
X343772Y-333201D01*
X343703Y-333167D01*
X343565Y-333028D01*
X343496Y-332994D01*
X343392Y-332890D01*
X343323Y-332855D01*
X342718Y-332250D01*
X342683Y-332181D01*
X342631Y-332164D01*
X342545Y-332043D01*
X342510Y-331974D01*
X342441Y-331905D01*
X342338Y-331732D01*
X342234Y-331628D01*
X342199Y-331559D01*
X342130Y-331490D01*
X341992Y-331248D01*
X341923Y-331179D01*
X341888Y-331040D01*
X341802Y-330954D01*
X341715Y-330971D01*
X341681Y-331490D01*
X341612Y-331766D01*
X341577Y-331870D01*
X341543Y-332250D01*
X341370Y-332700D01*
X341335Y-332838D01*
X341266Y-332907D01*
X341231Y-333011D01*
X341059Y-333253D01*
X341024Y-333322D01*
X340695Y-333651D01*
X340626Y-333685D01*
X340557Y-333754D01*
X340246Y-333927D01*
X340125Y-333979D01*
X339952Y-334013D01*
X339555Y-334065D01*
X339451Y-334100D01*
X338829Y-334065D01*
X338690Y-334031D01*
X338448Y-333996D01*
X338206Y-333893D01*
X338033Y-333823D01*
X337895Y-333685D01*
X337826Y-333651D01*
X337774Y-333599D01*
X337740Y-333530D01*
X337601Y-333391D01*
X337567Y-333322D01*
X337497Y-333253D01*
X337256Y-332803D01*
X337221Y-332596D01*
X337186Y-332458D01*
X337117Y-332285D01*
X337083Y-331801D01*
X337186Y-331559D01*
X337221Y-331490D01*
X337273Y-331438D01*
X337446Y-331334D01*
X337688Y-331231D01*
X337895Y-331196D01*
X338137Y-331127D01*
X338189Y-331075D01*
X338414Y-330988D01*
X338517Y-330885D01*
X338587Y-330850D01*
X338777Y-330660D01*
X338915Y-330418D01*
X339002Y-330332D01*
X339088Y-330107D01*
X339192Y-329865D01*
X339226Y-329727D01*
X339261Y-329485D01*
X339330Y-329312D01*
X339364Y-329208D01*
X339399Y-327307D01*
X339364Y-326857D01*
X339313Y-326390D01*
X339278Y-326252D01*
X339226Y-325854D01*
X339192Y-325716D01*
X339105Y-325664D01*
X339053Y-325682D01*
X338725Y-325733D01*
X338483Y-325699D01*
X338414Y-325630D01*
X338293Y-325543D01*
X338189Y-325370D01*
X338120Y-325301D01*
X338051Y-325129D01*
X337964Y-324835D01*
X337912Y-324644D01*
X337878Y-324403D01*
X337843Y-323746D01*
X337878Y-323296D01*
X337947Y-323054D01*
X338016Y-322985D01*
X338051Y-322847D01*
X338154Y-322743D01*
X338189Y-322674D01*
X338448Y-322415D01*
X338517Y-322380D01*
X338587Y-322311D01*
X338829Y-322173D01*
X339347Y-321896D01*
X339589Y-321827D01*
X339641Y-321775D01*
X340004Y-321688D01*
X340229Y-321602D01*
X340557Y-321550D01*
X340695Y-321516D01*
X340938Y-321481D01*
X341041Y-321446D01*
X341802Y-321412D01*
X341906Y-321377D01*
X342510Y-321395D01*
D02*
G37*
%LPC*%
G36*
X-481388Y-28364D02*
X-481576Y-28615D01*
X-481544Y-29086D01*
X-481607Y-29337D01*
X-481513Y-29619D01*
X-481262Y-29682D01*
X-481074Y-29619D01*
X-481042Y-29588D01*
X-480980Y-28521D01*
X-481074Y-28426D01*
X-481388Y-28364D01*
D02*
G37*
G36*
X-481137Y-37463D02*
X-481231Y-37557D01*
X-481293Y-38122D01*
X-481231Y-38562D01*
X-481137Y-38656D01*
X-481042Y-38624D01*
X-480980Y-38436D01*
X-480948Y-38405D01*
X-480917Y-37620D01*
X-481011Y-37526D01*
X-481137Y-37463D01*
D02*
G37*
G36*
X-481011Y-40476D02*
X-481231Y-40507D01*
X-481293Y-41009D01*
X-481231Y-41448D01*
X-481137Y-41543D01*
X-481011Y-41480D01*
X-480980Y-41448D01*
X-480917Y-40758D01*
X-481011Y-40476D01*
D02*
G37*
G36*
X-481137Y-46438D02*
X-482047Y-46469D01*
X-481701Y-46500D01*
X-481639D01*
X-481105Y-46469D01*
X-481137Y-46438D01*
D02*
G37*
G36*
X-481262Y-47379D02*
X-481513Y-47442D01*
X-481576Y-47630D01*
X-481544Y-48101D01*
X-481607Y-48289D01*
X-481544Y-48477D01*
Y-48540D01*
X-481513Y-48634D01*
X-481137Y-48697D01*
X-481042Y-48603D01*
X-480980Y-47536D01*
X-481262Y-47379D01*
D02*
G37*
G36*
X-481388Y-49575D02*
X-481482Y-49607D01*
X-481388Y-49638D01*
X-481356Y-49607D01*
X-481388Y-49575D01*
D02*
G37*
G36*
X-481607Y-62472D02*
X-481764Y-62503D01*
X-481858Y-62597D01*
X-481827Y-63695D01*
X-481262Y-63758D01*
X-481199D01*
X-481042Y-63727D01*
X-480980Y-62723D01*
X-481042Y-62534D01*
X-481607Y-62472D01*
D02*
G37*
G36*
X-481764Y-67963D02*
X-481858Y-68057D01*
X-481921Y-68998D01*
X-481764Y-69155D01*
X-481607Y-69061D01*
Y-68998D01*
X-481544Y-68935D01*
X-481576Y-68653D01*
X-481639Y-68025D01*
X-481764Y-67963D01*
D02*
G37*
G36*
X-481074D02*
X-481168Y-67994D01*
X-481231Y-68120D01*
X-481293Y-68308D01*
X-481262Y-68779D01*
X-481293Y-69500D01*
X-481356Y-69751D01*
X-481639Y-69908D01*
X-481890Y-69971D01*
X-481921Y-70253D01*
X-481858Y-70504D01*
Y-71760D01*
X-481701Y-71854D01*
X-481042Y-71822D01*
X-480980Y-70442D01*
X-480854Y-70128D01*
X-480886Y-69783D01*
X-480948Y-69469D01*
X-480917Y-68496D01*
X-480980Y-68057D01*
X-481074Y-67963D01*
D02*
G37*
G36*
X-481764Y-88672D02*
X-481858Y-88766D01*
X-481827Y-89865D01*
X-481074Y-89927D01*
X-481042Y-89896D01*
X-480980Y-89833D01*
X-481011Y-88735D01*
X-481764Y-88672D01*
D02*
G37*
G36*
X-481137Y-94383D02*
X-481231Y-94477D01*
X-481293Y-94916D01*
Y-95105D01*
X-481199Y-95450D01*
X-481074Y-95513D01*
X-480980Y-95419D01*
X-480917Y-94540D01*
X-481011Y-94446D01*
X-481137Y-94383D01*
D02*
G37*
G36*
X-481199Y-98337D02*
X-481231Y-98431D01*
X-481262Y-98462D01*
X-481293Y-98494D01*
X-481262Y-98839D01*
X-481293Y-99184D01*
X-481199Y-99466D01*
X-481074Y-99529D01*
X-480980Y-99435D01*
X-480917Y-98619D01*
X-480980Y-98368D01*
X-481199Y-98337D01*
D02*
G37*
G36*
X-481701Y-106809D02*
X-481796Y-106903D01*
X-481858Y-107970D01*
X-481764Y-108064D01*
X-481137Y-108127D01*
X-481042Y-108033D01*
X-480980Y-107530D01*
Y-106966D01*
X-481074Y-106872D01*
X-481701Y-106809D01*
D02*
G37*
G36*
Y-113022D02*
X-481858Y-113053D01*
Y-113116D01*
X-481921Y-113743D01*
X-481858Y-113994D01*
X-481764Y-114088D01*
X-481670Y-114057D01*
X-481544Y-113743D01*
X-481607Y-113555D01*
X-481544Y-113429D01*
X-481607Y-113116D01*
X-481701Y-113022D01*
D02*
G37*
G36*
Y-124443D02*
X-481764D01*
X-481858Y-124600D01*
X-481827Y-125698D01*
X-481262Y-125761D01*
X-481011Y-125698D01*
X-480980Y-124726D01*
X-481042Y-124475D01*
X-481701Y-124443D01*
D02*
G37*
G36*
X-481137Y-133543D02*
X-481231Y-133637D01*
X-481293Y-134014D01*
X-481231Y-134641D01*
X-481074Y-134672D01*
X-480980Y-134578D01*
X-480917Y-133888D01*
Y-133700D01*
X-481011Y-133605D01*
X-481137Y-133543D01*
D02*
G37*
G36*
X-481890Y-136492D02*
X-481984Y-136587D01*
X-481921Y-136712D01*
X-481858Y-138281D01*
Y-138344D01*
X-481827Y-139818D01*
X-481576Y-139881D01*
X-481450Y-139693D01*
X-481482Y-137151D01*
X-481419Y-136900D01*
X-481199Y-136743D01*
X-480948Y-136806D01*
X-480854Y-136900D01*
X-480791Y-139410D01*
X-480854Y-139599D01*
X-480791Y-139787D01*
X-480572Y-139944D01*
X-480415Y-139850D01*
X-480352Y-137528D01*
X-480289Y-136524D01*
X-481890Y-136492D01*
D02*
G37*
G36*
X406798Y-286529D02*
X406521Y-286598D01*
X406469Y-286650D01*
X406244Y-286736D01*
X406141Y-286840D01*
X406072Y-286874D01*
X405881Y-287064D01*
X405709Y-287376D01*
X405639Y-287445D01*
X405605Y-287894D01*
X405674Y-288067D01*
X405847Y-288378D01*
X405985Y-288620D01*
X406054Y-288689D01*
X406089Y-288793D01*
X406158Y-288862D01*
X406331Y-289173D01*
X406435Y-289346D01*
X406538Y-289450D01*
X406573Y-289519D01*
X406659Y-289606D01*
X406832Y-289709D01*
X406936Y-289744D01*
X407282Y-289778D01*
X407351D01*
X407454Y-289744D01*
X407766Y-289709D01*
X407869Y-289675D01*
X408042Y-289709D01*
X408181Y-289744D01*
X408250Y-289813D01*
X408371Y-289899D01*
X408457Y-290124D01*
X408492Y-290262D01*
X408561Y-290643D01*
X408595Y-291023D01*
X408647Y-292043D01*
X408682Y-292147D01*
X408665Y-292302D01*
X408630Y-292890D01*
X408578Y-293599D01*
X408544Y-293841D01*
X408492Y-294031D01*
X408405Y-294428D01*
X408181Y-294653D01*
X407887Y-294705D01*
X407524Y-294653D01*
X407420Y-294618D01*
X407074Y-294584D01*
X406659Y-294688D01*
X406556Y-294791D01*
X406486Y-294826D01*
X406365Y-295016D01*
X406227Y-295258D01*
X406158Y-295327D01*
X405881Y-295811D01*
X405778Y-295915D01*
X405743Y-296053D01*
X405639Y-296157D01*
X405605Y-296226D01*
X405536Y-296399D01*
X405501Y-296710D01*
X405553Y-296866D01*
X405605Y-297090D01*
X405709Y-297194D01*
X405743Y-297263D01*
X405933Y-297453D01*
X406002Y-297488D01*
X406106Y-297592D01*
X406348Y-297730D01*
X406417Y-297799D01*
X406694Y-297834D01*
X406798Y-297868D01*
X407282Y-297799D01*
X407385Y-297695D01*
X407524Y-297661D01*
X407662Y-297523D01*
X407731Y-297488D01*
X407921Y-297298D01*
X407956Y-297229D01*
X408008Y-297177D01*
X408163Y-296987D01*
X408267Y-296814D01*
X408336Y-296745D01*
X408474Y-296503D01*
X408578Y-296330D01*
X408751Y-295949D01*
X408889Y-295638D01*
X408958Y-295362D01*
X409045Y-295172D01*
X409097Y-294912D01*
X409131Y-294774D01*
X409183Y-294618D01*
X409218Y-294480D01*
X409269Y-294152D01*
X409339Y-293737D01*
X409373Y-293633D01*
X409408Y-292631D01*
X409442Y-292527D01*
X409425Y-291680D01*
X409390Y-290954D01*
X409356Y-290643D01*
X409321Y-290504D01*
X409252Y-290124D01*
X409218Y-289848D01*
X409183Y-289709D01*
X409097Y-289485D01*
X409062Y-289242D01*
X409010Y-289087D01*
X408924Y-288862D01*
X408889Y-288724D01*
X408751Y-288413D01*
X408509Y-287894D01*
X408371Y-287652D01*
X408267Y-287479D01*
X408163Y-287376D01*
X408129Y-287306D01*
X408025Y-287203D01*
X407990Y-287134D01*
X407662Y-286805D01*
X407351Y-286563D01*
X406798Y-286529D01*
D02*
G37*
G36*
X400782Y-280444D02*
X400298Y-280513D01*
X400021Y-280582D01*
X399710Y-280720D01*
X399607Y-280824D01*
X399537Y-280859D01*
X399347Y-281049D01*
X399244Y-281222D01*
X399174Y-281291D01*
X399140Y-281360D01*
X399002Y-281671D01*
X398967Y-297816D01*
X399105Y-297955D01*
X399140Y-298024D01*
X399295Y-298145D01*
X399416Y-298231D01*
X399607Y-298387D01*
X399849Y-298560D01*
X400333Y-298836D01*
X400644Y-298975D01*
X400782Y-299009D01*
X401024Y-299113D01*
X401594Y-299199D01*
X401767Y-299234D01*
X402251Y-299268D01*
X402269Y-299286D01*
X402943Y-299199D01*
X403306Y-299147D01*
X403444Y-299113D01*
X403686Y-299009D01*
X403824Y-298975D01*
X404274Y-298767D01*
X404447Y-298663D01*
X404550Y-298560D01*
X404619Y-298525D01*
X404792Y-298352D01*
X404861Y-298318D01*
X404913Y-298197D01*
X404706Y-297885D01*
X404533Y-297574D01*
X404464Y-297505D01*
X404429Y-297367D01*
X404326Y-297125D01*
X404291Y-296330D01*
X404343Y-296140D01*
X404429Y-295915D01*
X404637Y-295466D01*
X404740Y-295362D01*
X404775Y-295224D01*
X404913Y-295085D01*
X404948Y-294947D01*
X405017Y-294878D01*
X405155Y-294636D01*
X405259Y-294463D01*
X405432Y-294221D01*
X405467Y-294152D01*
X405760Y-293858D01*
X405830Y-293823D01*
X405968Y-293685D01*
X406106Y-293650D01*
X406210Y-293547D01*
X406486Y-293478D01*
X406659Y-293409D01*
X407212Y-293374D01*
X407351Y-293339D01*
X407403Y-293288D01*
X407437Y-291801D01*
X407403Y-291144D01*
X407368Y-291040D01*
X406867Y-290988D01*
X406711Y-290937D01*
X406521Y-290885D01*
X406002Y-290643D01*
X405899Y-290539D01*
X405830Y-290504D01*
X405778Y-290452D01*
X405743Y-290383D01*
X405674Y-290349D01*
X405570Y-290176D01*
X405484Y-290089D01*
X405380Y-289882D01*
X404689Y-288776D01*
X404481Y-288361D01*
X404447Y-288223D01*
X404412Y-287877D01*
X404429Y-287445D01*
X404464Y-287203D01*
X404533Y-287030D01*
X404568Y-286961D01*
X404775Y-286511D01*
X404844Y-286442D01*
X404948Y-286269D01*
X405052Y-286200D01*
X405086Y-286131D01*
X405138Y-286079D01*
X405207Y-286045D01*
X405345Y-285906D01*
X405415Y-285872D01*
X405484Y-285803D01*
X405830Y-285595D01*
X405899Y-285560D01*
X406210Y-285422D01*
X406417Y-285388D01*
X406521Y-285353D01*
X407005Y-285319D01*
X407593Y-285388D01*
X407887Y-285509D01*
X408111Y-285595D01*
X408181Y-285664D01*
X408250Y-285699D01*
X408388Y-285837D01*
X408457Y-285872D01*
X408855Y-286269D01*
X408889Y-286338D01*
X408976Y-286425D01*
X409114Y-286632D01*
X409269Y-286822D01*
X409304Y-286892D01*
X409373Y-286961D01*
X409442Y-287134D01*
X409511Y-287203D01*
X409684Y-287514D01*
X409753Y-287687D01*
X409874Y-287911D01*
X409926Y-288102D01*
X410065Y-288413D01*
X410099Y-288551D01*
X410151Y-288707D01*
X410238Y-288931D01*
X410272Y-289173D01*
X410359Y-289398D01*
X410393Y-289536D01*
X410428Y-289848D01*
X410462Y-290020D01*
X410531Y-290297D01*
X410566Y-290574D01*
X410618Y-291524D01*
X410652Y-291628D01*
X410635Y-292648D01*
X410601Y-293305D01*
X410566Y-293720D01*
X410531Y-293996D01*
X410497Y-294204D01*
X410462Y-294377D01*
X410410Y-294601D01*
X410376Y-294843D01*
X410324Y-295033D01*
X410238Y-295396D01*
X410203Y-295535D01*
X410117Y-295725D01*
X410065Y-295949D01*
X410030Y-296088D01*
X409961Y-296157D01*
X409926Y-296295D01*
X409753Y-296675D01*
X409546Y-297125D01*
X409373Y-297436D01*
X409304Y-297505D01*
X409200Y-297678D01*
X409148Y-297695D01*
X409097Y-297782D01*
X409062Y-297851D01*
X408958Y-297955D01*
X408924Y-298024D01*
X408630Y-298318D01*
X408561Y-298352D01*
X408457Y-298456D01*
X408388Y-298491D01*
X408284Y-298594D01*
X408042Y-298733D01*
X407869Y-298836D01*
X407645Y-298957D01*
X407472Y-298992D01*
X407178Y-299044D01*
X407074Y-299078D01*
X406607Y-299061D01*
X406400Y-299026D01*
X406227Y-298992D01*
X406002Y-298940D01*
X405864Y-298975D01*
X405812Y-299026D01*
X405778Y-299096D01*
X405674Y-299165D01*
X405588Y-299286D01*
X405518Y-299320D01*
X405380Y-299459D01*
X405311Y-299493D01*
X405242Y-299562D01*
X405069Y-299666D01*
X405000Y-299735D01*
X404550Y-299977D01*
X404170Y-300150D01*
X404032Y-300185D01*
X403790Y-300288D01*
X403513Y-300323D01*
X403237Y-300392D01*
X403133Y-300427D01*
X402511Y-300461D01*
X402407Y-300496D01*
X401560Y-300444D01*
X401387Y-300409D01*
X401249Y-300375D01*
X400834Y-300306D01*
X400696Y-300271D01*
X400419Y-300167D01*
X400194Y-300116D01*
X400142Y-300064D01*
X399918Y-299977D01*
X399814Y-299943D01*
X399745Y-299908D01*
X399693Y-299856D01*
X399468Y-299770D01*
X399416Y-299718D01*
X399209Y-299614D01*
X399174Y-299545D01*
X399123Y-299493D01*
X399002Y-299510D01*
X398967Y-305630D01*
X399002Y-305768D01*
X399209Y-306252D01*
X399313Y-306425D01*
X399382Y-306460D01*
X399468Y-306581D01*
X399537Y-306615D01*
X399641Y-306719D01*
X400091Y-306961D01*
X411914Y-306995D01*
X412364Y-306961D01*
X412502Y-306926D01*
X412675Y-306822D01*
X412813Y-306788D01*
X412951Y-306650D01*
X413021Y-306615D01*
X413090Y-306511D01*
X413159Y-306477D01*
X413245Y-306321D01*
X413349Y-306217D01*
X413384Y-306148D01*
X413522Y-305837D01*
X413557Y-281844D01*
X413522Y-281706D01*
X413418Y-281464D01*
X413349Y-281291D01*
X413245Y-281118D01*
X413021Y-280893D01*
X412951Y-280859D01*
X412882Y-280790D01*
X412588Y-280599D01*
X412450Y-280565D01*
X412225Y-280513D01*
X412122Y-280478D01*
X400782Y-280444D01*
D02*
G37*
%LPD*%
G36*
X409321Y-282138D02*
X409390Y-282207D01*
X409460Y-282242D01*
X409581Y-282397D01*
X409615Y-282743D01*
X409546Y-283020D01*
X409494Y-283037D01*
X409442Y-283089D01*
X409252Y-283244D01*
X407040Y-283279D01*
X405622D01*
X405207Y-283210D01*
X404948Y-282950D01*
X404913Y-282639D01*
X404948Y-282397D01*
X405138Y-282207D01*
X405207Y-282173D01*
X405276Y-282103D01*
X409148Y-282069D01*
X409321Y-282138D01*
D02*
G37*
G36*
X403963D02*
X404032Y-282173D01*
X404101Y-282242D01*
X404257Y-282432D01*
X404291Y-282708D01*
X404222Y-282985D01*
X403997Y-283210D01*
X403790Y-283244D01*
X403686Y-283279D01*
X403340Y-283244D01*
X403202Y-283210D01*
X403064Y-283071D01*
X402995Y-283037D01*
X402943Y-282950D01*
X402908Y-282535D01*
X402995Y-282311D01*
X403116Y-282224D01*
X403133Y-282207D01*
X403271Y-282103D01*
X403790Y-282069D01*
X403963Y-282138D01*
D02*
G37*
G36*
X406435Y-301827D02*
X406711Y-301861D01*
X407040Y-301982D01*
X407178Y-302017D01*
X407247Y-302086D01*
X407420Y-302155D01*
X407524Y-302259D01*
X407593Y-302293D01*
X407800Y-302501D01*
X407956Y-302691D01*
X408094Y-302933D01*
X408232Y-303141D01*
X408267Y-303348D01*
X408336Y-303521D01*
X408371Y-304005D01*
X408336Y-304247D01*
X408284Y-304437D01*
X408232Y-304731D01*
X408146Y-304817D01*
X408060Y-305042D01*
X407956Y-305146D01*
X407921Y-305215D01*
X407783Y-305353D01*
X407748Y-305422D01*
X407645Y-305491D01*
X407454Y-305647D01*
X407385Y-305682D01*
X407299Y-305768D01*
X407109Y-305820D01*
X407057Y-305872D01*
X406884Y-305941D01*
X406677Y-305975D01*
X406210Y-306027D01*
X406072Y-305993D01*
X405726Y-305958D01*
X405484Y-305889D01*
X405432Y-305837D01*
X405242Y-305785D01*
X405173Y-305716D01*
X405155Y-305699D01*
X405069Y-305647D01*
X405000Y-305612D01*
X404931Y-305543D01*
X404810Y-305457D01*
X404775Y-305388D01*
X404602Y-305215D01*
X404568Y-305146D01*
X404481Y-305059D01*
X404395Y-304835D01*
X404308Y-304748D01*
X404257Y-304523D01*
X404222Y-304420D01*
X404187Y-304212D01*
X404153Y-304109D01*
X404170Y-303711D01*
X404205Y-303538D01*
X404257Y-303348D01*
X404291Y-303210D01*
X404429Y-302899D01*
X404568Y-302691D01*
X404602Y-302622D01*
X404896Y-302328D01*
X404965Y-302293D01*
X405034Y-302224D01*
X405276Y-302086D01*
X405449Y-301982D01*
X405588Y-301948D01*
X405760Y-301879D01*
X406002Y-301844D01*
X406106Y-301810D01*
X406435Y-301827D01*
D02*
G37*
%LPC*%
G36*
X406348Y-303020D02*
X406158Y-303037D01*
X406020Y-303071D01*
X405795Y-303158D01*
X405553Y-303400D01*
X405536Y-303417D01*
X405432Y-303555D01*
X405397Y-303936D01*
X405432Y-304281D01*
X405605Y-304523D01*
X405795Y-304679D01*
X405864Y-304714D01*
X405933Y-304783D01*
X406279Y-304817D01*
X406521Y-304783D01*
X406625Y-304748D01*
X406867Y-304610D01*
X407091Y-304281D01*
X407126Y-303763D01*
X407057Y-303486D01*
X406798Y-303227D01*
X406625Y-303123D01*
X406452Y-303054D01*
X406348Y-303020D01*
D02*
G37*
G36*
X448734Y-324524D02*
X447472Y-324541D01*
X447126Y-324575D01*
X446953Y-324610D01*
X446815Y-324644D01*
X446417Y-324731D01*
X446279Y-324765D01*
X446037Y-324869D01*
X445899Y-324904D01*
X445657Y-325008D01*
X445588Y-325077D01*
X445605Y-325578D01*
X445639Y-325924D01*
X445691Y-326114D01*
X445726Y-326287D01*
X445778Y-326719D01*
X445830Y-326909D01*
X445916Y-327134D01*
X445951Y-327376D01*
X446037Y-327600D01*
X446089Y-327790D01*
X446175Y-327981D01*
X446262Y-328205D01*
X446504Y-328724D01*
X446780Y-329208D01*
X446850Y-329277D01*
X446953Y-329450D01*
X447195Y-329692D01*
X447230Y-329761D01*
X447454Y-329986D01*
X447524Y-330020D01*
X447575Y-330072D01*
X447610Y-330141D01*
X447662Y-330159D01*
X447766Y-330262D01*
X447938Y-330366D01*
X448077Y-330504D01*
X448215Y-330539D01*
X448302Y-330625D01*
X448526Y-330712D01*
X448699Y-330816D01*
X448872Y-330850D01*
X449010Y-330885D01*
X449200Y-330937D01*
X449339Y-330971D01*
X449754Y-331006D01*
X450324Y-330988D01*
X450462Y-330954D01*
X450618Y-330902D01*
X450843Y-330850D01*
X451016Y-330781D01*
X451085Y-330712D01*
X451223Y-330677D01*
X451292Y-330608D01*
X451465Y-330504D01*
X451603Y-330366D01*
X451759Y-330176D01*
X451932Y-329934D01*
X452070Y-329692D01*
X452191Y-329467D01*
X452243Y-329139D01*
X452312Y-328966D01*
X452346Y-328586D01*
X452381Y-328482D01*
X452364Y-328015D01*
X452329Y-327739D01*
X452295Y-327600D01*
X452243Y-327341D01*
X452208Y-327203D01*
X452104Y-326961D01*
X452070Y-326823D01*
X452001Y-326650D01*
X451932Y-326581D01*
X451897Y-326442D01*
X451828Y-326373D01*
X451724Y-326200D01*
X451655Y-326131D01*
X451551Y-325958D01*
X451188Y-325595D01*
X451067Y-325509D01*
X450877Y-325353D01*
X450808Y-325319D01*
X450739Y-325249D01*
X450670Y-325215D01*
X450428Y-325042D01*
X450393D01*
X450289Y-325008D01*
X450220Y-324938D01*
X450047Y-324869D01*
X449909Y-324835D01*
X449840Y-324765D01*
X449529Y-324696D01*
X449391Y-324662D01*
X449218Y-324593D01*
X448837Y-324558D01*
X448734Y-324524D01*
D02*
G37*
G36*
X423807Y-324696D02*
X423150Y-324731D01*
X423012Y-324765D01*
X422839Y-324835D01*
X422562Y-324869D01*
X422200Y-325025D01*
X421975Y-325077D01*
X421906Y-325146D01*
X421629Y-325249D01*
X421525Y-325353D01*
X421387Y-325388D01*
X421318Y-325457D01*
X421145Y-325561D01*
X421093Y-325612D01*
X421076Y-325630D01*
X420972Y-325699D01*
X420903Y-325733D01*
X420765Y-325872D01*
X420696Y-325906D01*
X420575Y-326027D01*
X420540Y-326200D01*
X420626Y-326356D01*
X420713Y-326581D01*
X420817Y-326823D01*
X420851Y-326961D01*
X421007Y-327324D01*
X421059Y-327548D01*
X421162Y-327652D01*
X421197Y-327790D01*
X421318Y-328015D01*
X421404Y-328240D01*
X421474Y-328309D01*
X421543Y-328482D01*
X421612Y-328551D01*
X421750Y-328793D01*
X421854Y-328966D01*
X421906Y-329018D01*
X422061Y-329208D01*
X422096Y-329277D01*
X422338Y-329519D01*
X422372Y-329588D01*
X422597Y-329813D01*
X422666Y-329848D01*
X422718Y-329899D01*
X422908Y-330055D01*
X423392Y-330401D01*
X423703Y-330574D01*
X423876Y-330677D01*
X424015Y-330712D01*
X424257Y-330816D01*
X424360Y-330850D01*
X425086Y-330885D01*
X425639Y-330850D01*
X425951Y-330712D01*
X426193Y-330608D01*
X426366Y-330504D01*
X426469Y-330401D01*
X426538Y-330366D01*
X426798Y-330107D01*
X426832Y-330038D01*
X426901Y-329969D01*
X427005Y-329796D01*
X427091Y-329709D01*
X427299Y-329294D01*
X427351Y-329104D01*
X427385Y-328966D01*
X427454Y-328793D01*
X427489Y-327687D01*
X427454Y-327445D01*
X427351Y-327065D01*
X427316Y-326926D01*
X427178Y-326615D01*
X427143Y-326477D01*
X427040Y-326373D01*
X427005Y-326235D01*
X426936Y-326166D01*
X426832Y-325993D01*
X426694Y-325854D01*
X426659Y-325785D01*
X426435Y-325561D01*
X426366Y-325526D01*
X426262Y-325422D01*
X426193Y-325388D01*
X426124Y-325319D01*
X425881Y-325180D01*
X425778Y-325077D01*
X425639Y-325042D01*
X425467Y-324973D01*
X425415Y-324921D01*
X425225Y-324869D01*
X424948Y-324800D01*
X424775Y-324731D01*
X423807Y-324696D01*
D02*
G37*
G36*
X400851Y-324524D02*
X399589Y-324541D01*
X399278Y-324575D01*
X399105Y-324610D01*
X398829Y-324679D01*
X398535Y-324731D01*
X398310Y-324817D01*
X398120Y-324869D01*
X397809Y-325008D01*
X397722Y-325094D01*
X397688Y-325163D01*
X397740Y-325353D01*
X397774Y-325664D01*
X397809Y-326079D01*
X397843Y-326287D01*
X397912Y-326563D01*
X397964Y-326892D01*
X397999Y-327030D01*
X398068Y-327203D01*
X398137Y-327514D01*
X398172Y-327652D01*
X398258Y-327808D01*
X398310Y-327998D01*
X398448Y-328309D01*
X398517Y-328482D01*
X398552Y-328551D01*
X398604Y-328603D01*
X398656Y-328793D01*
X398725Y-328862D01*
X398863Y-329104D01*
X398967Y-329277D01*
X399071Y-329381D01*
X399105Y-329450D01*
X399278Y-329623D01*
X399313Y-329692D01*
X399607Y-329986D01*
X399728Y-330072D01*
X399762Y-330141D01*
X399849Y-330193D01*
X400160Y-330435D01*
X400402Y-330574D01*
X400471Y-330643D01*
X400575Y-330677D01*
X400747Y-330746D01*
X400817Y-330816D01*
X401024Y-330850D01*
X401318Y-330937D01*
X401456Y-330971D01*
X401906Y-331006D01*
X402476Y-330988D01*
X402614Y-330954D01*
X402787Y-330885D01*
X402995Y-330850D01*
X403167Y-330781D01*
X403237Y-330712D01*
X403375Y-330677D01*
X403479Y-330574D01*
X403548Y-330539D01*
X403911Y-330176D01*
X403945Y-330107D01*
X404015Y-330038D01*
X404153Y-329796D01*
X404239Y-329675D01*
X404291Y-329485D01*
X404429Y-329139D01*
X404464Y-328551D01*
X404498Y-328447D01*
X404481Y-328050D01*
X404429Y-327479D01*
X404378Y-327289D01*
X404257Y-326961D01*
X404222Y-326823D01*
X404205Y-326805D01*
X404118Y-326650D01*
X404049Y-326477D01*
X403980Y-326408D01*
X403928Y-326287D01*
X403773Y-326096D01*
X403738Y-326027D01*
X403686Y-326010D01*
X403669Y-325958D01*
X403271Y-325561D01*
X403202Y-325526D01*
X403150Y-325474D01*
X402960Y-325319D01*
X402718Y-325146D01*
X402200Y-324869D01*
X401906Y-324748D01*
X401681Y-324696D01*
X401543Y-324662D01*
X401370Y-324593D01*
X400955Y-324558D01*
X400851Y-324524D01*
D02*
G37*
G36*
X344602D02*
X343306Y-324541D01*
X342994Y-324575D01*
X342822Y-324610D01*
X342545Y-324679D01*
X342199Y-324748D01*
X341871Y-324869D01*
X341560Y-325008D01*
X341491Y-325042D01*
X341404Y-325129D01*
X341439Y-325232D01*
X341491Y-325561D01*
X341525Y-325872D01*
X341560Y-326217D01*
X341594Y-326390D01*
X341664Y-326667D01*
X341715Y-326961D01*
X341802Y-327255D01*
X341854Y-327445D01*
X341888Y-327583D01*
X341992Y-327825D01*
X342026Y-327963D01*
X342130Y-328205D01*
X342165Y-328274D01*
X342372Y-328724D01*
X342580Y-329070D01*
X342718Y-329312D01*
X342856Y-329450D01*
X342891Y-329519D01*
X342960Y-329588D01*
X342977Y-329606D01*
X343029Y-329657D01*
X343064Y-329727D01*
X343323Y-329986D01*
X343392Y-330020D01*
X343634Y-330262D01*
X343807Y-330366D01*
X343945Y-330504D01*
X344084Y-330539D01*
X344135Y-330591D01*
X344550Y-330798D01*
X344740Y-330850D01*
X344879Y-330885D01*
X345034Y-330937D01*
X345207Y-330971D01*
X345657Y-331006D01*
X346193Y-330988D01*
X346331Y-330954D01*
X346486Y-330902D01*
X346711Y-330850D01*
X346884Y-330781D01*
X346953Y-330712D01*
X347091Y-330677D01*
X347195Y-330574D01*
X347264Y-330539D01*
X347368Y-330435D01*
X347489Y-330349D01*
X347523Y-330280D01*
X347662Y-330141D01*
X347696Y-330072D01*
X347800Y-329969D01*
X347835Y-329865D01*
X347990Y-329606D01*
X348042Y-329415D01*
X348146Y-329173D01*
X348180Y-328759D01*
X348215Y-328655D01*
X348198Y-327877D01*
X348163Y-327531D01*
X348129Y-327358D01*
X348059Y-327186D01*
X348008Y-326995D01*
X347766Y-326477D01*
X347627Y-326235D01*
X347558Y-326166D01*
X347523Y-326096D01*
X347247Y-325820D01*
X347212Y-325751D01*
X347160Y-325699D01*
X347091Y-325664D01*
X346849Y-325422D01*
X346780Y-325388D01*
X346711Y-325319D01*
X346469Y-325180D01*
X346383Y-325094D01*
X346158Y-325008D01*
X346072Y-324921D01*
X345881Y-324869D01*
X345657Y-324748D01*
X345259Y-324662D01*
X345086Y-324593D01*
X344706Y-324558D01*
X344602Y-324524D01*
D02*
G37*
%LPD*%
D10*
X310220Y332470D02*
G03*
X310220Y332470I-1000J0D01*
G01*
X131770Y-204000D02*
G03*
X131770Y-204000I-1000J0D01*
G01*
X-118120Y211040D02*
G03*
X-118120Y211040I-1000J0D01*
G01*
X232190Y-148760D02*
G03*
X232190Y-148760I-1000J0D01*
G01*
X-98060Y237080D02*
G03*
X-98060Y237080I-1000J0D01*
G01*
X302460Y-203520D02*
G03*
X302460Y-203520I-1000J0D01*
G01*
X-494990Y-305070D02*
G03*
X-497988Y-308170I0J-3000D01*
G01*
Y-176970D02*
G03*
X-494990Y-180070I2998J-100D01*
G01*
X212290Y-204000D02*
G03*
X212290Y-204000I-1000J0D01*
G01*
X131810Y-178210D02*
G03*
X131810Y-178210I-1000J0D01*
G01*
X-41080Y317450D02*
G03*
X-41080Y317450I-1000J0D01*
G01*
X-401640Y301160D02*
G03*
X-401640Y301160I-1000J0D01*
G01*
X-86009Y293349D02*
Y326411D01*
X-109571Y293349D02*
Y326411D01*
X358120Y274400D02*
Y284400D01*
X353120Y279400D02*
X363120D01*
X-386920Y266990D02*
Y324490D01*
X-287920D01*
Y266990D02*
Y271740D01*
Y290240D02*
Y324490D01*
X-386920Y266990D02*
X-287920D01*
X-458530Y41930D02*
X-445030D01*
X-497780D02*
X-483030D01*
X-497780D02*
Y133330D01*
X-458530D02*
X-445030D01*
X-497780D02*
X-483030D01*
X178050Y14920D02*
Y38420D01*
Y-4830D02*
X241050D01*
Y14920D02*
Y38420D01*
X178050Y58170D02*
X241050D01*
X-497990Y-299070D02*
X-494990Y-299070D01*
X-497990Y-315070D02*
X-494990D01*
Y-308070D01*
X-497990Y-315070D02*
X-497988Y-308170D01*
X-494990Y-305070D02*
X-494990Y-299070D01*
X-494990Y-180070D02*
X-494990Y-186070D01*
X-497990D02*
X-494990D01*
X-497990Y-170070D02*
X-497988Y-176970D01*
X-494990Y-177070D02*
Y-170070D01*
X-497990D02*
X-494990D01*
X-355600Y-308610D02*
Y-177610D01*
X-497990Y-299070D02*
Y-186070D01*
X141321Y-116861D02*
Y-83799D01*
X117759Y-116861D02*
Y-83799D01*
X145699Y-174011D02*
Y-140949D01*
X169261Y-174011D02*
Y-140949D01*
X-320061Y195931D02*
X-286999D01*
X-320061Y172369D02*
X-286999D01*
X-377211D02*
X-344149D01*
X-377211Y195931D02*
X-344149D01*
X179320Y-77790D02*
Y-54290D01*
Y-97540D02*
X242320D01*
Y-77790D02*
Y-54290D01*
X179320Y-34540D02*
X242320D01*
D11*
X117220Y152370D02*
X129670D01*
X117220D02*
Y159670D01*
X284770Y152370D02*
X297220D01*
Y159670D01*
Y340170D02*
Y345910D01*
X117220Y340170D02*
Y345910D01*
X297220D01*
X121145Y-236475D02*
X186195D01*
Y-271525D02*
Y-236475D01*
X121145Y-271525D02*
X186195D01*
X121145D02*
Y-236475D01*
X-269620Y170640D02*
X-126620D01*
X-269620D02*
Y347980D01*
X-126620D01*
Y170640D02*
Y347980D01*
X238590Y-172260D02*
Y-114760D01*
Y-172260D02*
X312590D01*
Y-114760D01*
X238590D02*
X312590D01*
X326160Y-271520D02*
X341460D01*
X288460D02*
X303760D01*
X326160Y-218520D02*
X330460D01*
X299460D02*
X303760D01*
X288460Y-229520D02*
X299460Y-218520D01*
X288460Y-271520D02*
Y-229520D01*
X341460Y-271520D02*
Y-229520D01*
X330460Y-218520D02*
X341460Y-229520D01*
X235990Y-272000D02*
X251290D01*
X198290D02*
X213590D01*
X235990Y-219000D02*
X240290D01*
X209290D02*
X213590D01*
X198290Y-230000D02*
X209290Y-219000D01*
X198290Y-272000D02*
Y-230000D01*
X251290Y-272000D02*
Y-230000D01*
X240290Y-219000D02*
X251290Y-230000D01*
X-65580Y310050D02*
X-8080D01*
X-65580Y236050D02*
Y310050D01*
Y236050D02*
X-8080D01*
Y310050D01*
X-410040Y267160D02*
Y324660D01*
X-484040D02*
X-410040D01*
X-484040Y267160D02*
Y324660D01*
Y267160D02*
X-410040D01*
D12*
X-494030Y-176530D02*
X-416560D01*
X-494030Y-308610D02*
X-419100D01*
X-373380Y-176530D02*
X-355600D01*
X-372110Y-308610D02*
X-355600D01*
X55883Y-134625D02*
X60961D01*
X63500Y-137164D01*
Y-147321D01*
X60961Y-149860D01*
X55883D01*
X53343Y-147321D01*
Y-137164D01*
X55883Y-134625D01*
X48265Y-139703D02*
Y-147321D01*
X45726Y-149860D01*
X38108D01*
Y-139703D01*
X30491Y-137164D02*
Y-139703D01*
X33030D01*
X27952D01*
X30491D01*
Y-147321D01*
X27952Y-149860D01*
X20334Y-142242D02*
X10177D01*
X57153Y-303535D02*
X62231D01*
X64770Y-306074D01*
Y-316231D01*
X62231Y-318770D01*
X57153D01*
X54613Y-316231D01*
Y-306074D01*
X57153Y-303535D01*
X49535Y-308613D02*
Y-316231D01*
X46996Y-318770D01*
X39378D01*
Y-308613D01*
X31761Y-306074D02*
Y-308613D01*
X34300D01*
X29221D01*
X31761D01*
Y-316231D01*
X29221Y-318770D01*
X21604Y-311152D02*
X11447D01*
X16526Y-306074D02*
Y-316231D01*
X-289560Y-152405D02*
X-294638D01*
X-292099D01*
Y-167640D01*
X-289560D01*
X-294638D01*
X-302256D02*
Y-157483D01*
X-309873D01*
X-312413Y-160023D01*
Y-167640D01*
X-317491Y-160023D02*
X-327648D01*
X-290830Y-279405D02*
X-295908D01*
X-293369D01*
Y-294640D01*
X-290830D01*
X-295908D01*
X-303526D02*
Y-284483D01*
X-311143D01*
X-313683Y-287022D01*
Y-294640D01*
X-318761Y-287022D02*
X-328918D01*
X-323839Y-281944D02*
Y-292101D01*
X-289560Y-58425D02*
X-294638D01*
X-292099D01*
Y-73660D01*
X-289560D01*
X-294638D01*
X-302256D02*
Y-63503D01*
X-309873D01*
X-312413Y-66042D01*
Y-73660D01*
X-317491Y-66042D02*
X-327648D01*
X-322569Y-60964D02*
Y-71121D01*
X-288290Y69845D02*
X-293368D01*
X-290829D01*
Y54610D01*
X-288290D01*
X-293368D01*
X-300986D02*
Y64767D01*
X-308603D01*
X-311143Y62228D01*
Y54610D01*
X-316221Y62228D02*
X-326378D01*
X83822Y63495D02*
X88901D01*
X91440Y60956D01*
Y50799D01*
X88901Y48260D01*
X83822D01*
X81283Y50799D01*
Y60956D01*
X83822Y63495D01*
X76205Y58417D02*
Y50799D01*
X73666Y48260D01*
X66048D01*
Y58417D01*
X58431Y60956D02*
Y58417D01*
X60970D01*
X55891D01*
X58431D01*
Y50799D01*
X55891Y48260D01*
X48274Y55877D02*
X38117D01*
X85092Y-67315D02*
X90171D01*
X92710Y-69854D01*
Y-80011D01*
X90171Y-82550D01*
X85092D01*
X82553Y-80011D01*
Y-69854D01*
X85092Y-67315D01*
X77475Y-72393D02*
Y-80011D01*
X74936Y-82550D01*
X67318D01*
Y-72393D01*
X59701Y-69854D02*
Y-72393D01*
X62240D01*
X57161D01*
X59701D01*
Y-80011D01*
X57161Y-82550D01*
X49544Y-74932D02*
X39387D01*
X44466Y-69854D02*
Y-80011D01*
D71*
X-335280Y-121920D02*
X105410D01*
X-335280Y-332740D02*
X105410D01*
Y-121920D01*
X-335280Y-332740D02*
Y-121920D01*
Y-114300D02*
Y96520D01*
X105410Y-114300D02*
Y96520D01*
X-335280Y-114300D02*
X105410D01*
X-335280Y96520D02*
X105410D01*
D80*
X486620Y279400D02*
G03*
X486620Y279400I-60000J0D01*
G01*
D81*
X-390420Y300990D02*
G03*
X-390420Y300990I-1250J0D01*
G01*
X-418530Y60130D02*
G03*
X-418530Y60130I-1250J0D01*
G01*
X149300Y4170D02*
G03*
X149300Y4170I-1250J0D01*
G01*
X150570Y-88540D02*
G03*
X150570Y-88540I-1250J0D01*
G01*
D82*
X-335492Y339724D02*
X-333376D01*
X-334434D01*
Y334434D01*
X-333376Y333376D01*
X-332318D01*
X-331260Y334434D01*
X-340782Y333376D02*
Y339724D01*
X-337608Y336550D01*
X-341840D01*
X161036Y-188724D02*
Y-192956D01*
X158920Y-195072D01*
X156804Y-192956D01*
Y-188724D01*
X154688Y-195072D02*
Y-188724D01*
X151514D01*
X150456Y-189782D01*
Y-191898D01*
X151514Y-192956D01*
X154688D01*
X152572D02*
X150456Y-195072D01*
X148340D02*
X146224D01*
X147282D01*
Y-188724D01*
X148340Y-189782D01*
X216494Y72346D02*
X217552Y73404D01*
X219668D01*
X220726Y72346D01*
Y68114D01*
X219668Y67056D01*
X217552D01*
X216494Y68114D01*
Y70230D01*
X218610D01*
X214378Y67056D02*
Y73404D01*
X211204D01*
X210146Y72346D01*
Y70230D01*
X211204Y69172D01*
X214378D01*
X208030Y73404D02*
X205914D01*
X206972D01*
Y67056D01*
X208030D01*
X205914D01*
X199566Y73404D02*
X201682D01*
X202740Y72346D01*
Y68114D01*
X201682Y67056D01*
X199566D01*
X198508Y68114D01*
Y72346D01*
X199566Y73404D01*
X196392Y72346D02*
X195334Y73404D01*
X193218D01*
X192160Y72346D01*
Y68114D01*
X193218Y67056D01*
X195334D01*
X196392Y68114D01*
Y72346D01*
X224114Y-20364D02*
X225172Y-19306D01*
X227288D01*
X228346Y-20364D01*
Y-24596D01*
X227288Y-25654D01*
X225172D01*
X224114Y-24596D01*
X221998Y-19306D02*
Y-25654D01*
Y-22480D01*
X217766D01*
Y-19306D01*
Y-25654D01*
X215650Y-19306D02*
X213534D01*
X214592D01*
Y-25654D01*
X215650D01*
X213534D01*
X210360D02*
Y-19306D01*
X207186D01*
X206128Y-20364D01*
Y-22480D01*
X207186Y-23538D01*
X210360D01*
X197664Y-25654D02*
Y-19306D01*
X194490D01*
X193432Y-20364D01*
Y-22480D01*
X194490Y-23538D01*
X197664D01*
X191316Y-19306D02*
Y-24596D01*
X190258Y-25654D01*
X188142D01*
X187084Y-24596D01*
Y-19306D01*
X-92456Y339344D02*
Y345692D01*
X-95630D01*
X-96688Y344634D01*
Y342518D01*
X-95630Y341460D01*
X-92456D01*
X-94572D02*
X-96688Y339344D01*
X-103036Y345692D02*
X-98804D01*
Y342518D01*
X-100920Y343576D01*
X-101978D01*
X-103036Y342518D01*
Y340402D01*
X-101978Y339344D01*
X-99862D01*
X-98804Y340402D01*
X-355346Y204724D02*
Y211072D01*
X-358520D01*
X-359578Y210014D01*
Y207898D01*
X-358520Y206840D01*
X-355346D01*
X-357462D02*
X-359578Y204724D01*
X-364868D02*
Y211072D01*
X-361694Y207898D01*
X-365926D01*
X-298196Y204724D02*
Y211072D01*
X-301370D01*
X-302428Y210014D01*
Y207898D01*
X-301370Y206840D01*
X-298196D01*
X-300312D02*
X-302428Y204724D01*
X-304544Y210014D02*
X-305602Y211072D01*
X-307718D01*
X-308776Y210014D01*
Y208956D01*
X-307718Y207898D01*
X-306660D01*
X-307718D01*
X-308776Y206840D01*
Y205782D01*
X-307718Y204724D01*
X-305602D01*
X-304544Y205782D01*
X162814Y-128016D02*
Y-121668D01*
X159640D01*
X158582Y-122726D01*
Y-124842D01*
X159640Y-125900D01*
X162814D01*
X160698D02*
X158582Y-128016D01*
X152234D02*
X156466D01*
X152234Y-123784D01*
Y-122726D01*
X153292Y-121668D01*
X155408D01*
X156466Y-122726D01*
X150282Y-70484D02*
Y-64136D01*
X147108D01*
X146050Y-65194D01*
Y-67310D01*
X147108Y-68368D01*
X150282D01*
X148166D02*
X146050Y-70484D01*
X143934D02*
X141818D01*
X142876D01*
Y-64136D01*
X143934Y-65194D01*
X-103932Y-107314D02*
Y-100966D01*
X-106048Y-103082D01*
X-108164Y-100966D01*
Y-107314D01*
X-113454Y-100966D02*
X-111338D01*
X-110280Y-102024D01*
Y-106256D01*
X-111338Y-107314D01*
X-113454D01*
X-114512Y-106256D01*
Y-102024D01*
X-113454Y-100966D01*
X-116628D02*
Y-107314D01*
X-119802D01*
X-120860Y-106256D01*
Y-102024D01*
X-119802Y-100966D01*
X-116628D01*
X-127208Y-107314D02*
X-122976D01*
X-127208Y-103082D01*
Y-102024D01*
X-126150Y-100966D01*
X-124034D01*
X-122976Y-102024D01*
X-85940Y104776D02*
Y111124D01*
X-88056Y109008D01*
X-90172Y111124D01*
Y104776D01*
X-95462Y111124D02*
X-93346D01*
X-92288Y110066D01*
Y105834D01*
X-93346Y104776D01*
X-95462D01*
X-96520Y105834D01*
Y110066D01*
X-95462Y111124D01*
X-98636D02*
Y104776D01*
X-101810D01*
X-102868Y105834D01*
Y110066D01*
X-101810Y111124D01*
X-98636D01*
X-104984Y104776D02*
X-107100D01*
X-106042D01*
Y111124D01*
X-104984Y110066D01*
X298230Y-103506D02*
X302462D01*
Y-106680D01*
X300346D01*
X302462D01*
Y-109854D01*
X296114Y-103506D02*
X291882D01*
X293998D01*
Y-109854D01*
X289766Y-103506D02*
Y-109854D01*
X286592D01*
X285534Y-108796D01*
Y-104564D01*
X286592Y-103506D01*
X289766D01*
X283418D02*
Y-109854D01*
X279186D01*
X270722D02*
Y-103506D01*
X267548D01*
X266490Y-104564D01*
Y-106680D01*
X267548Y-107738D01*
X270722D01*
X261200Y-103506D02*
X263316D01*
X264374Y-104564D01*
Y-108796D01*
X263316Y-109854D01*
X261200D01*
X260142Y-108796D01*
Y-104564D01*
X261200Y-103506D01*
X258026D02*
Y-109854D01*
X255910Y-107738D01*
X253794Y-109854D01*
Y-103506D01*
X247446D02*
X251678D01*
Y-109854D01*
X247446D01*
X251678Y-106680D02*
X249562D01*
X245330Y-109854D02*
Y-103506D01*
X242156D01*
X241098Y-104564D01*
Y-106680D01*
X242156Y-107738D01*
X245330D01*
X243214D02*
X241098Y-109854D01*
X-438404Y334264D02*
Y340612D01*
X-441578D01*
X-442636Y339554D01*
Y337438D01*
X-441578Y336380D01*
X-438404D01*
X-444752Y339554D02*
X-445810Y340612D01*
X-447926D01*
X-448984Y339554D01*
Y338496D01*
X-447926Y337438D01*
X-446868D01*
X-447926D01*
X-448984Y336380D01*
Y335322D01*
X-447926Y334264D01*
X-445810D01*
X-444752Y335322D01*
X-32512Y326390D02*
Y332738D01*
X-35686D01*
X-36744Y331680D01*
Y329564D01*
X-35686Y328506D01*
X-32512D01*
X-38860Y326390D02*
X-40976D01*
X-39918D01*
Y332738D01*
X-38860Y331680D01*
X-92500Y285114D02*
Y278766D01*
X-95674D01*
X-96732Y279824D01*
Y284056D01*
X-95674Y285114D01*
X-92500D01*
X-103080Y278766D02*
X-98848D01*
X-103080Y282998D01*
Y284056D01*
X-102022Y285114D01*
X-99906D01*
X-98848Y284056D01*
X135128Y-123700D02*
Y-130048D01*
X131954D01*
X130896Y-128990D01*
Y-124758D01*
X131954Y-123700D01*
X135128D01*
X128780Y-130048D02*
X126664D01*
X127722D01*
Y-123700D01*
X128780Y-124758D01*
X364322Y-196386D02*
X365380Y-195328D01*
X367496D01*
X368554Y-196386D01*
Y-200618D01*
X367496Y-201676D01*
X365380D01*
X364322Y-200618D01*
X362206Y-196386D02*
X361148Y-195328D01*
X359032D01*
X357974Y-196386D01*
Y-197444D01*
X359032Y-198502D01*
X357974Y-199560D01*
Y-200618D01*
X359032Y-201676D01*
X361148D01*
X362206Y-200618D01*
Y-199560D01*
X361148Y-198502D01*
X362206Y-197444D01*
Y-196386D01*
X361148Y-198502D02*
X359032D01*
X270342Y-196386D02*
X271400Y-195328D01*
X273516D01*
X274574Y-196386D01*
Y-200618D01*
X273516Y-201676D01*
X271400D01*
X270342Y-200618D01*
X268226Y-195328D02*
X263994D01*
Y-196386D01*
X268226Y-200618D01*
Y-201676D01*
X316062Y-189274D02*
X317120Y-188216D01*
X319236D01*
X320294Y-189274D01*
Y-193506D01*
X319236Y-194564D01*
X317120D01*
X316062Y-193506D01*
X309714Y-188216D02*
X311830Y-189274D01*
X313946Y-191390D01*
Y-193506D01*
X312888Y-194564D01*
X310772D01*
X309714Y-193506D01*
Y-192448D01*
X310772Y-191390D01*
X313946D01*
X225892Y-189782D02*
X226950Y-188724D01*
X229066D01*
X230124Y-189782D01*
Y-194014D01*
X229066Y-195072D01*
X226950D01*
X225892Y-194014D01*
X219544Y-188724D02*
X223776D01*
Y-191898D01*
X221660Y-190840D01*
X220602D01*
X219544Y-191898D01*
Y-194014D01*
X220602Y-195072D01*
X222718D01*
X223776Y-194014D01*
X129372Y59138D02*
X130430Y60196D01*
X132546D01*
X133604Y59138D01*
Y54906D01*
X132546Y53848D01*
X130430D01*
X129372Y54906D01*
X124082Y53848D02*
Y60196D01*
X127256Y57022D01*
X123024D01*
X130598Y-32174D02*
X131656Y-31116D01*
X133772D01*
X134830Y-32174D01*
Y-36406D01*
X133772Y-37464D01*
X131656D01*
X130598Y-36406D01*
X128482Y-32174D02*
X127424Y-31116D01*
X125308D01*
X124250Y-32174D01*
Y-33232D01*
X125308Y-34290D01*
X126366D01*
X125308D01*
X124250Y-35348D01*
Y-36406D01*
X125308Y-37464D01*
X127424D01*
X128482Y-36406D01*
M02*
