G04*
G04 #@! TF.GenerationSoftware,Altium Limited,Altium Designer,24.3.1 (35)*
G04*
G04 Layer_Color=32896*
%FSLAX44Y44*%
%MOMM*%
G71*
G04*
G04 #@! TF.SameCoordinates,3191A570-1A6B-4277-BA42-F0865F8515EA*
G04*
G04*
G04 #@! TF.FilePolarity,Positive*
G04*
G01*
G75*
%ADD10C,0.2000*%
%ADD11C,0.1270*%
%ADD12C,0.2540*%
%ADD28C,0.2500*%
D10*
X382000Y256390D02*
G03*
X382000Y256390I-1000J0D01*
G01*
X359810Y104800D02*
G03*
X359810Y104800I-1000J0D01*
G01*
X368300Y262890D02*
Y288290D01*
X444500Y262890D02*
Y288290D01*
X368300D02*
X444500D01*
X368300Y262890D02*
X444500D01*
X11260Y5540D02*
Y63040D01*
X85260D01*
Y5540D02*
Y63040D01*
X11260Y5540D02*
X85260D01*
D11*
X324790Y121270D02*
X348310D01*
X306550Y129510D02*
Y173030D01*
X324790Y181270D02*
X348310D01*
X366550Y129510D02*
Y173030D01*
D12*
X394974Y241302D02*
Y253998D01*
X397513Y256537D01*
X402592D01*
X405131Y253998D01*
Y241302D01*
X420366Y256537D02*
X410209D01*
X420366Y246381D01*
Y243842D01*
X417827Y241302D01*
X412748D01*
X410209Y243842D01*
X74679Y87879D02*
X79758D01*
X77218D01*
Y75183D01*
X79758Y72644D01*
X82297D01*
X84836Y75183D01*
X69601Y72644D02*
X64523D01*
X67062D01*
Y87879D01*
X69601Y85340D01*
X356619Y214372D02*
X359159Y216911D01*
X364237D01*
X366776Y214372D01*
Y211833D01*
X364237Y209293D01*
X359159D01*
X356619Y206754D01*
Y204215D01*
X359159Y201676D01*
X364237D01*
X366776Y204215D01*
X351541Y201676D02*
X346463D01*
X349002D01*
Y216911D01*
X351541Y214372D01*
D28*
X5760Y29040D02*
G03*
X5760Y29040I-1250J0D01*
G01*
M02*
