G04*
G04 #@! TF.GenerationSoftware,Altium Limited,Altium Designer,24.3.1 (35)*
G04*
G04 Layer_Physical_Order=1*
G04 Layer_Color=255*
%FSLAX44Y44*%
%MOMM*%
G71*
G04*
G04 #@! TF.SameCoordinates,3191A570-1A6B-4277-BA42-F0865F8515EA*
G04*
G04*
G04 #@! TF.FilePolarity,Positive*
G04*
G01*
G75*
%ADD12C,0.2540*%
%ADD18C,1.5500*%
%ADD19R,1.5500X1.5500*%
%ADD21C,0.5080*%
%ADD22C,1.5080*%
%ADD23R,1.5080X1.5080*%
%ADD24C,1.3700*%
%ADD25R,1.3700X1.3700*%
%ADD26C,1.3950*%
%ADD27R,1.5080X1.5080*%
D12*
X400050Y42589D02*
Y119162D01*
X386080Y19270D02*
X388081Y21271D01*
X398562Y120650D02*
X400050Y119162D01*
X359660Y120650D02*
X398562D01*
X388081Y30620D02*
X400050Y42589D01*
X388081Y21271D02*
Y30620D01*
X359050Y120040D02*
X359660Y120650D01*
D18*
X60760Y29040D02*
D03*
D19*
X35760D02*
D03*
D21*
X116840Y268090D02*
X117990Y269240D01*
X116840Y226278D02*
Y268090D01*
X118328Y224790D02*
X379512D01*
X116840Y226278D02*
X118328Y224790D01*
X379512D02*
X381000Y226278D01*
Y275590D01*
D22*
X411480Y44670D02*
D03*
Y19270D02*
D03*
X386080Y44670D02*
D03*
Y19270D02*
D03*
X360680Y44670D02*
D03*
Y19270D02*
D03*
X335280D02*
D03*
X314050Y183770D02*
D03*
Y118770D02*
D03*
X359050Y183770D02*
D03*
D23*
X335280Y44670D02*
D03*
D24*
X431800Y275590D02*
D03*
X406400D02*
D03*
D25*
X381000D02*
D03*
D26*
X275540Y269240D02*
D03*
X243840D02*
D03*
X149690D02*
D03*
X117990D02*
D03*
D27*
X359050Y118770D02*
D03*
M02*
