M48
;Layer_Color=9474304
;FILE_FORMAT=4:4
METRIC,LZ
;TYPE=PLATED
T01F00S00C1.0000
T02F00S00C1.0200
%
T01
X0003576Y0002904
X0006076
X0033528Y0001927
X0036068
X0038608
X0041148
Y0004467
X0038608
X0036068
X0033528
X0031405Y0011877
X0035905
Y0018377
X0031405
T02
X0011799Y0026924
X0014969
X0024384
X0027554
X00381Y0027559
X004064
X004318
M30
